<svg width="92" height="92" viewBox="0 0 92 92" fill="none" xmlns="http://www.w3.org/2000/svg">
<mask id="path-1-inside-1_332_260" fill="white">
<path d="M79 35.9999C79 54.2253 64.2254 68.9999 46 68.9999C27.7746 68.9999 13 54.2253 13 35.9999C13 17.7745 27.7746 2.99991 46 2.99991C64.2254 2.99991 79 17.7745 79 35.9999ZM19.6 35.9999C19.6 50.5802 31.4197 62.3999 46 62.3999C60.5803 62.3999 72.4 50.5802 72.4 35.9999C72.4 21.4196 60.5803 9.59991 46 9.59991C31.4197 9.59991 19.6 21.4196 19.6 35.9999Z"/>
</mask>
<path d="M79 35.9999C79 54.2253 64.2254 68.9999 46 68.9999C27.7746 68.9999 13 54.2253 13 35.9999C13 17.7745 27.7746 2.99991 46 2.99991C64.2254 2.99991 79 17.7745 79 35.9999ZM19.6 35.9999C19.6 50.5802 31.4197 62.3999 46 62.3999C60.5803 62.3999 72.4 50.5802 72.4 35.9999C72.4 21.4196 60.5803 9.59991 46 9.59991C31.4197 9.59991 19.6 21.4196 19.6 35.9999Z" fill="#F7F8F8" stroke="#F7F8F8" stroke-width="6" mask="url(#path-1-inside-1_332_260)"/>
<path d="M62.5611 11.3459C62.6633 11.1937 62.7144 11.1176 62.7754 11.008C63.4932 9.71868 63.0241 7.83391 61.7858 7.03133C61.6806 6.96313 61.6452 6.94419 61.5744 6.9063C57.7811 4.87563 53.6173 3.60125 49.3152 3.16686C43.9158 2.62166 38.4653 3.4165 33.4464 5.48095C28.4275 7.5454 23.9952 10.8158 20.5422 15.0023C17.0891 19.1889 14.7218 24.1624 13.65 29.4824C12.5782 34.8024 12.835 40.3046 14.3975 45.5017C15.9601 50.6987 18.7803 55.4302 22.6082 59.277C26.4362 63.1238 31.1537 65.9672 36.343 67.5553C40.4777 68.8206 44.8101 69.258 49.0938 68.8546C49.1738 68.847 49.2137 68.8433 49.3371 68.8211C50.7897 68.5607 51.9519 67.0046 51.7894 65.5379C51.7756 65.4132 51.7579 65.3233 51.7226 65.1434V65.1434C51.6514 64.7808 51.6158 64.5995 51.5873 64.4949C51.1991 63.0711 50.1788 62.289 48.7031 62.284C48.5946 62.2837 48.3355 62.3015 47.8173 62.3373C44.6055 62.5589 41.3706 62.1918 38.2744 61.2442C34.123 59.9738 30.3489 57.699 27.2866 54.6216C24.2242 51.5442 21.9681 47.759 20.718 43.6013C19.468 39.4437 19.2626 35.0419 20.12 30.7859C20.9774 26.5299 22.8713 22.5511 25.6337 19.2018C28.3962 15.8526 31.942 13.2363 35.9571 11.5847C39.9722 9.93318 44.3327 9.29731 48.6522 9.73347C51.8738 10.0588 54.9984 10.9729 57.8738 12.4208C58.3378 12.6545 58.5698 12.7713 58.6699 12.813C60.0324 13.3797 61.276 13.0537 62.1852 11.8914C62.252 11.806 62.355 11.6526 62.5611 11.3459V11.3459Z" fill="url(#paint0_linear_332_260)"/>
<g filter="url(#filter0_d_332_260)">
<circle cx="46" cy="35.9999" r="24" fill="#1EE390"/>
</g>
<path d="M30.4041 32.4159C31.0814 31.8719 31.6121 31.4266 31.9961 31.0799C32.3801 30.7279 32.7028 30.3626 32.9641 29.9839C33.2308 29.5999 33.3641 29.2239 33.3641 28.8559C33.3641 28.5092 33.2788 28.2372 33.1081 28.0399C32.9428 27.8372 32.6734 27.7359 32.3001 27.7359C31.9374 27.7359 31.6548 27.8506 31.4521 28.0799C31.2548 28.3039 31.1481 28.6052 31.1321 28.9839H30.4281C30.4494 28.3866 30.6308 27.9252 30.9721 27.5999C31.3134 27.2746 31.7534 27.1119 32.2921 27.1119C32.8414 27.1119 33.2761 27.2639 33.5961 27.5679C33.9214 27.8719 34.0841 28.2906 34.0841 28.8239C34.0841 29.2666 33.9508 29.6986 33.6841 30.1199C33.4228 30.5359 33.1241 30.9039 32.7881 31.2239C32.4521 31.5386 32.0228 31.9066 31.5001 32.3279H34.2521V32.9359H30.4041V32.4159ZM35.0777 28.6719C35.115 28.1812 35.3043 27.7972 35.6457 27.5199C35.987 27.2426 36.4297 27.1039 36.9737 27.1039C37.3363 27.1039 37.6483 27.1706 37.9097 27.3039C38.1763 27.4319 38.3763 27.6079 38.5097 27.8319C38.6483 28.0559 38.7177 28.3092 38.7177 28.5919C38.7177 28.9226 38.6217 29.2079 38.4297 29.4479C38.243 29.6879 37.9977 29.8426 37.6937 29.9119V29.9519C38.0403 30.0372 38.315 30.2052 38.5177 30.4559C38.7203 30.7066 38.8217 31.0346 38.8217 31.4399C38.8217 31.7439 38.7523 32.0186 38.6137 32.2639C38.475 32.5039 38.267 32.6932 37.9897 32.8319C37.7123 32.9706 37.379 33.0399 36.9897 33.0399C36.4243 33.0399 35.9603 32.8932 35.5977 32.5999C35.235 32.3012 35.0323 31.8799 34.9897 31.3359H35.6937C35.731 31.6559 35.8617 31.9172 36.0857 32.1199C36.3097 32.3226 36.6083 32.4239 36.9817 32.4239C37.355 32.4239 37.6377 32.3279 37.8297 32.1359C38.027 31.9386 38.1257 31.6852 38.1257 31.3759C38.1257 30.9759 37.9923 30.6879 37.7257 30.5119C37.459 30.3359 37.0563 30.2479 36.5177 30.2479H36.3337V29.6399H36.5257C37.0163 29.6346 37.387 29.5546 37.6377 29.3999C37.8883 29.2399 38.0137 28.9946 38.0137 28.6639C38.0137 28.3812 37.9203 28.1546 37.7337 27.9839C37.5523 27.8132 37.291 27.7279 36.9497 27.7279C36.619 27.7279 36.3523 27.8132 36.1497 27.9839C35.947 28.1546 35.827 28.3839 35.7897 28.6719H35.0777ZM39.8046 30.0479C39.8046 29.1306 39.9539 28.4159 40.2526 27.9039C40.5513 27.3866 41.0739 27.1279 41.8206 27.1279C42.5619 27.1279 43.0819 27.3866 43.3806 27.9039C43.6793 28.4159 43.8286 29.1306 43.8286 30.0479C43.8286 30.9812 43.6793 31.7066 43.3806 32.2239C43.0819 32.7412 42.5619 32.9999 41.8206 32.9999C41.0739 32.9999 40.5513 32.7412 40.2526 32.2239C39.9539 31.7066 39.8046 30.9812 39.8046 30.0479ZM43.1086 30.0479C43.1086 29.5839 43.0766 29.1919 43.0126 28.8719C42.9539 28.5466 42.8286 28.2852 42.6366 28.0879C42.4499 27.8906 42.1779 27.7919 41.8206 27.7919C41.4579 27.7919 41.1806 27.8906 40.9886 28.0879C40.8019 28.2852 40.6766 28.5466 40.6126 28.8719C40.5539 29.1919 40.5246 29.5839 40.5246 30.0479C40.5246 30.5279 40.5539 30.9306 40.6126 31.2559C40.6766 31.5812 40.8019 31.8426 40.9886 32.0399C41.1806 32.2372 41.4579 32.3359 41.8206 32.3359C42.1779 32.3359 42.4499 32.2372 42.6366 32.0399C42.8286 31.8426 42.9539 31.5812 43.0126 31.2559C43.0766 30.9306 43.1086 30.5279 43.1086 30.0479ZM47.396 32.9999L45.676 31.0639V32.9999H44.948V27.0799H45.676V30.5599L47.364 28.6159H48.38L46.316 30.7999L48.388 32.9999H47.396ZM48.7932 30.2079C48.7932 29.6639 48.9159 29.1759 49.1612 28.7439C49.4066 28.3066 49.7399 27.9652 50.1612 27.7199C50.5879 27.4746 51.0599 27.3519 51.5772 27.3519C52.1852 27.3519 52.7159 27.4986 53.1692 27.7919C53.6226 28.0852 53.9532 28.5012 54.1612 29.0399H53.2892C53.1346 28.7039 52.9106 28.4452 52.6172 28.2639C52.3292 28.0826 51.9826 27.9919 51.5772 27.9919C51.1879 27.9919 50.8386 28.0826 50.5292 28.2639C50.2199 28.4452 49.9772 28.7039 49.8012 29.0399C49.6252 29.3706 49.5372 29.7599 49.5372 30.2079C49.5372 30.6506 49.6252 31.0399 49.8012 31.3759C49.9772 31.7066 50.2199 31.9626 50.5292 32.1439C50.8386 32.3252 51.1879 32.4159 51.5772 32.4159C51.9826 32.4159 52.3292 32.3279 52.6172 32.1519C52.9106 31.9706 53.1346 31.7119 53.2892 31.3759H54.1612C53.9532 31.9092 53.6226 32.3226 53.1692 32.6159C52.7159 32.9039 52.1852 33.0479 51.5772 33.0479C51.0599 33.0479 50.5879 32.9279 50.1612 32.6879C49.7399 32.4426 49.4066 32.1039 49.1612 31.6719C48.9159 31.2399 48.7932 30.7519 48.7932 30.2079ZM54.9729 30.7919C54.9729 30.3439 55.0636 29.9519 55.2449 29.6159C55.4262 29.2746 55.6742 29.0106 55.9889 28.8239C56.3089 28.6372 56.6636 28.5439 57.0529 28.5439C57.4369 28.5439 57.7702 28.6266 58.0529 28.7919C58.3356 28.9572 58.5462 29.1652 58.6849 29.4159V28.6159H59.4209V32.9999H58.6849V32.1839C58.5409 32.4399 58.3249 32.6532 58.0369 32.8239C57.7542 32.9892 57.4236 33.0719 57.0449 33.0719C56.6556 33.0719 56.3036 32.9759 55.9889 32.7839C55.6742 32.5919 55.4262 32.3226 55.2449 31.9759C55.0636 31.6292 54.9729 31.2346 54.9729 30.7919ZM58.6849 30.7999C58.6849 30.4692 58.6182 30.1812 58.4849 29.9359C58.3516 29.6906 58.1702 29.5039 57.9409 29.3759C57.7169 29.2426 57.4689 29.1759 57.1969 29.1759C56.9249 29.1759 56.6769 29.2399 56.4529 29.3679C56.2289 29.4959 56.0502 29.6826 55.9169 29.9279C55.7836 30.1732 55.7169 30.4612 55.7169 30.7919C55.7169 31.1279 55.7836 31.4212 55.9169 31.6719C56.0502 31.9172 56.2289 32.1066 56.4529 32.2399C56.6769 32.3679 56.9249 32.4319 57.1969 32.4319C57.4689 32.4319 57.7169 32.3679 57.9409 32.2399C58.1702 32.1066 58.3516 31.9172 58.4849 31.6719C58.6182 31.4212 58.6849 31.1306 58.6849 30.7999ZM61.3792 27.0799V32.9999H60.6512V27.0799H61.3792ZM31.4156 41.2159H30.4956V44.9999H29.7676V41.2159H29.1996V40.6159H29.7676V40.3039C29.7676 39.8132 29.893 39.4559 30.1436 39.2319C30.3996 39.0026 30.8076 38.8879 31.3676 38.8879V39.4959C31.0476 39.4959 30.821 39.5599 30.6876 39.6879C30.5596 39.8106 30.4956 40.0159 30.4956 40.3039V40.6159H31.4156V41.2159ZM31.9924 42.7919C31.9924 42.3439 32.0831 41.9519 32.2644 41.6159C32.4458 41.2746 32.6938 41.0106 33.0084 40.8239C33.3284 40.6372 33.6831 40.5439 34.0724 40.5439C34.4564 40.5439 34.7898 40.6266 35.0724 40.7919C35.3551 40.9572 35.5658 41.1652 35.7044 41.4159V40.6159H36.4404V44.9999H35.7044V44.1839C35.5604 44.4399 35.3444 44.6532 35.0564 44.8239C34.7738 44.9892 34.4431 45.0719 34.0644 45.0719C33.6751 45.0719 33.3231 44.9759 33.0084 44.7839C32.6938 44.5919 32.4458 44.3226 32.2644 43.9759C32.0831 43.6292 31.9924 43.2346 31.9924 42.7919ZM35.7044 42.7999C35.7044 42.4692 35.6378 42.1812 35.5044 41.9359C35.3711 41.6906 35.1898 41.5039 34.9604 41.3759C34.7364 41.2426 34.4884 41.1759 34.2164 41.1759C33.9444 41.1759 33.6964 41.2399 33.4724 41.3679C33.2484 41.4959 33.0698 41.6826 32.9364 41.9279C32.8031 42.1732 32.7364 42.4612 32.7364 42.7919C32.7364 43.1279 32.8031 43.4212 32.9364 43.6719C33.0698 43.9172 33.2484 44.1066 33.4724 44.2399C33.6964 44.3679 33.9444 44.4319 34.2164 44.4319C34.4884 44.4319 34.7364 44.3679 34.9604 44.2399C35.1898 44.1066 35.3711 43.9172 35.5044 43.6719C35.6378 43.4212 35.7044 43.1306 35.7044 42.7999ZM38.3987 39.0799V44.9999H37.6707V39.0799H38.3987ZM40.5274 41.2159V43.7999C40.5274 44.0132 40.5728 44.1652 40.6634 44.2559C40.7541 44.3412 40.9114 44.3839 41.1354 44.3839H41.6714V44.9999H41.0154C40.6101 44.9999 40.3061 44.9066 40.1034 44.7199C39.9008 44.5332 39.7994 44.2266 39.7994 43.7999V41.2159H39.2314V40.6159H39.7994V39.5119H40.5274V40.6159H41.6714V41.2159H40.5274ZM42.2815 42.7919C42.2815 42.3439 42.3722 41.9519 42.5535 41.6159C42.7348 41.2746 42.9828 41.0106 43.2975 40.8239C43.6175 40.6372 43.9722 40.5439 44.3615 40.5439C44.7455 40.5439 45.0788 40.6266 45.3615 40.7919C45.6442 40.9572 45.8548 41.1652 45.9935 41.4159V40.6159H46.7295V44.9999H45.9935V44.1839C45.8495 44.4399 45.6335 44.6532 45.3455 44.8239C45.0628 44.9892 44.7322 45.0719 44.3535 45.0719C43.9642 45.0719 43.6122 44.9759 43.2975 44.7839C42.9828 44.5919 42.7348 44.3226 42.5535 43.9759C42.3722 43.6292 42.2815 43.2346 42.2815 42.7919ZM45.9935 42.7999C45.9935 42.4692 45.9268 42.1812 45.7935 41.9359C45.6602 41.6906 45.4788 41.5039 45.2495 41.3759C45.0255 41.2426 44.7775 41.1759 44.5055 41.1759C44.2335 41.1759 43.9855 41.2399 43.7615 41.3679C43.5375 41.4959 43.3588 41.6826 43.2255 41.9279C43.0922 42.1732 43.0255 42.4612 43.0255 42.7919C43.0255 43.1279 43.0922 43.4212 43.2255 43.6719C43.3588 43.9172 43.5375 44.1066 43.7615 44.2399C43.9855 44.3679 44.2335 44.4319 44.5055 44.4319C44.7775 44.4319 45.0255 44.3679 45.2495 44.2399C45.4788 44.1066 45.6602 43.9172 45.7935 43.6719C45.9268 43.4212 45.9935 43.1306 45.9935 42.7999ZM50.0958 40.5359C50.6291 40.5359 51.0611 40.6986 51.3918 41.0239C51.7224 41.3439 51.8878 41.8079 51.8878 42.4159V44.9999H51.1678V42.5199C51.1678 42.0826 51.0584 41.7492 50.8398 41.5199C50.6211 41.2852 50.3224 41.1679 49.9438 41.1679C49.5598 41.1679 49.2531 41.2879 49.0238 41.5279C48.7998 41.7679 48.6878 42.1172 48.6878 42.5759V44.9999H47.9598V40.6159H48.6878V41.2399C48.8318 41.0159 49.0264 40.8426 49.2718 40.7199C49.5224 40.5972 49.7971 40.5359 50.0958 40.5359ZM52.8049 42.7919C52.8049 42.3439 52.8956 41.9519 53.0769 41.6159C53.2583 41.2746 53.5063 41.0106 53.8209 40.8239C54.1409 40.6372 54.4983 40.5439 54.8929 40.5439C55.2343 40.5439 55.5516 40.6239 55.8449 40.7839C56.1383 40.9386 56.3623 41.1439 56.5169 41.3999V39.0799H57.2529V44.9999H56.5169V44.1759C56.3729 44.4372 56.1596 44.6532 55.8769 44.8239C55.5943 44.9892 55.2636 45.0719 54.8849 45.0719C54.4956 45.0719 54.1409 44.9759 53.8209 44.7839C53.5063 44.5919 53.2583 44.3226 53.0769 43.9759C52.8956 43.6292 52.8049 43.2346 52.8049 42.7919ZM56.5169 42.7999C56.5169 42.4692 56.4503 42.1812 56.3169 41.9359C56.1836 41.6906 56.0023 41.5039 55.7729 41.3759C55.5489 41.2426 55.3009 41.1759 55.0289 41.1759C54.7569 41.1759 54.5089 41.2399 54.2849 41.3679C54.0609 41.4959 53.8823 41.6826 53.7489 41.9279C53.6156 42.1732 53.5489 42.4612 53.5489 42.7919C53.5489 43.1279 53.6156 43.4212 53.7489 43.6719C53.8823 43.9172 54.0609 44.1066 54.2849 44.2399C54.5089 44.3679 54.7569 44.4319 55.0289 44.4319C55.3009 44.4319 55.5489 44.3679 55.7729 44.2399C56.0023 44.1066 56.1836 43.9172 56.3169 43.6719C56.4503 43.4212 56.5169 43.1306 56.5169 42.7999ZM60.3952 45.0719C59.9845 45.0719 59.6112 44.9786 59.2752 44.7919C58.9445 44.6052 58.6832 44.3412 58.4912 43.9999C58.3045 43.6532 58.2112 43.2532 58.2112 42.7999C58.2112 42.3519 58.3072 41.9572 58.4992 41.6159C58.6965 41.2692 58.9632 41.0052 59.2992 40.8239C59.6352 40.6372 60.0112 40.5439 60.4272 40.5439C60.8432 40.5439 61.2192 40.6372 61.5552 40.8239C61.8912 41.0052 62.1552 41.2666 62.3472 41.6079C62.5445 41.9492 62.6432 42.3466 62.6432 42.7999C62.6432 43.2532 62.5419 43.6532 62.3392 43.9999C62.1419 44.3412 61.8725 44.6052 61.5312 44.7919C61.1899 44.9786 60.8112 45.0719 60.3952 45.0719ZM60.3952 44.4319C60.6565 44.4319 60.9019 44.3706 61.1312 44.2479C61.3605 44.1252 61.5445 43.9412 61.6832 43.6959C61.8272 43.4506 61.8992 43.1519 61.8992 42.7999C61.8992 42.4479 61.8299 42.1492 61.6912 41.9039C61.5525 41.6586 61.3712 41.4772 61.1472 41.3599C60.9232 41.2372 60.6805 41.1759 60.4192 41.1759C60.1525 41.1759 59.9072 41.2372 59.6832 41.3599C59.4645 41.4772 59.2885 41.6586 59.1552 41.9039C59.0219 42.1492 58.9552 42.4479 58.9552 42.7999C58.9552 43.1572 59.0192 43.4586 59.1472 43.7039C59.2805 43.9492 59.4565 44.1332 59.6752 44.2559C59.8939 44.3732 60.1339 44.4319 60.3952 44.4319Z" fill="white"/>
<defs>
<filter id="filter0_d_332_260" x="0" y="-9.15527e-05" width="92" height="92" filterUnits="userSpaceOnUse" color-interpolation-filters="sRGB">
<feFlood flood-opacity="0" result="BackgroundImageFix"/>
<feColorMatrix in="SourceAlpha" type="matrix" values="0 0 0 0 0 0 0 0 0 0 0 0 0 0 0 0 0 0 127 0" result="hardAlpha"/>
<feOffset dy="10"/>
<feGaussianBlur stdDeviation="11"/>
<feColorMatrix type="matrix" values="0 0 0 0 0.584314 0 0 0 0 0.678431 0 0 0 0 0.996078 0 0 0 0.3 0"/>
<feBlend mode="normal" in2="BackgroundImageFix" result="effect1_dropShadow_332_260"/>
<feBlend mode="normal" in="SourceGraphic" in2="effect1_dropShadow_332_260" result="shape"/>
</filter>
<linearGradient id="paint0_linear_332_260" x1="46" y1="2.99991" x2="46" y2="68.9999" gradientUnits="userSpaceOnUse">
<stop stop-color="#53E88B"/>
<stop offset="1" stop-color="#15BE77"/>
</linearGradient>
</defs>
</svg>
