<svg width="359" height="194" viewBox="0 0 359 194" fill="none" xmlns="http://www.w3.org/2000/svg">
<g filter="url(#filter0_d_330_585)">
<rect x="22" y="11.9999" width="315" height="150" rx="20" fill="#53E88B" fill-opacity="0.01"/>
</g>
<path d="M49.56 36.6599V44.9999H48.192V41.3519H44.268V44.9999H42.9V36.6599H44.268V40.2359H48.192V36.6599H49.56ZM57.421 41.5319C57.421 41.7799 57.405 42.0039 57.373 42.2039H52.321C52.361 42.7319 52.557 43.1559 52.909 43.4759C53.261 43.7959 53.693 43.9559 54.205 43.9559C54.941 43.9559 55.461 43.6479 55.765 43.0319H57.241C57.041 43.6399 56.677 44.1399 56.149 44.5319C55.629 44.9159 54.981 45.1079 54.205 45.1079C53.573 45.1079 53.005 44.9679 52.501 44.6879C52.005 44.3999 51.613 43.9999 51.325 43.4879C51.045 42.9679 50.905 42.3679 50.905 41.6879C50.905 41.0079 51.041 40.4119 51.313 39.8999C51.593 39.3799 51.981 38.9799 52.477 38.6999C52.981 38.4199 53.557 38.2799 54.205 38.2799C54.829 38.2799 55.385 38.4159 55.873 38.6879C56.361 38.9599 56.741 39.3439 57.013 39.8399C57.285 40.3279 57.421 40.8919 57.421 41.5319ZM55.993 41.0999C55.985 40.5959 55.805 40.1919 55.453 39.8879C55.101 39.5839 54.665 39.4319 54.145 39.4319C53.673 39.4319 53.269 39.5839 52.933 39.8879C52.597 40.1839 52.397 40.5879 52.333 41.0999H55.993ZM58.3112 41.6639C58.3112 40.9999 58.4472 40.4119 58.7192 39.8999C58.9992 39.3879 59.3752 38.9919 59.8472 38.7119C60.3272 38.4239 60.8552 38.2799 61.4312 38.2799C61.9512 38.2799 62.4032 38.3839 62.7872 38.5919C63.1792 38.7919 63.4912 39.0439 63.7232 39.3479V38.3879H65.1032V44.9999H63.7232V44.0159C63.4912 44.3279 63.1752 44.5879 62.7752 44.7959C62.3752 45.0039 61.9192 45.1079 61.4072 45.1079C60.8392 45.1079 60.3192 44.9639 59.8472 44.6759C59.3752 44.3799 58.9992 43.9719 58.7192 43.4519C58.4472 42.9239 58.3112 42.3279 58.3112 41.6639ZM63.7232 41.6879C63.7232 41.2319 63.6272 40.8359 63.4352 40.4999C63.2512 40.1639 63.0072 39.9079 62.7032 39.7319C62.3992 39.5559 62.0712 39.4679 61.7192 39.4679C61.3672 39.4679 61.0392 39.5559 60.7352 39.7319C60.4312 39.8999 60.1832 40.1519 59.9912 40.4879C59.8072 40.8159 59.7152 41.2079 59.7152 41.6639C59.7152 42.1199 59.8072 42.5199 59.9912 42.8639C60.1832 43.2079 60.4312 43.4719 60.7352 43.6559C61.0472 43.8319 61.3752 43.9199 61.7192 43.9199C62.0712 43.9199 62.3992 43.8319 62.7032 43.6559C63.0072 43.4799 63.2512 43.2239 63.4352 42.8879C63.6272 42.5439 63.7232 42.1439 63.7232 41.6879ZM68.268 39.3479C68.468 39.0119 68.732 38.7519 69.06 38.5679C69.396 38.3759 69.792 38.2799 70.248 38.2799V39.6959H69.9C69.364 39.6959 68.956 39.8319 68.676 40.1039C68.404 40.3759 68.268 40.8479 68.268 41.5199V44.9999H66.9V38.3879H68.268V39.3479ZM73.1015 39.5039V43.1639C73.1015 43.4119 73.1575 43.5919 73.2695 43.7039C73.3895 43.8079 73.5895 43.8599 73.8695 43.8599H74.7095V44.9999H73.6295C73.0135 44.9999 72.5415 44.8559 72.2135 44.5679C71.8855 44.2799 71.7215 43.8119 71.7215 43.1639V39.5039H70.9415V38.3879H71.7215V36.7439H73.1015V38.3879H74.7095V39.5039H73.1015ZM83.4195 44.9999L81.4995 41.6639H80.4555V44.9999H79.0875V36.6599H81.9675C82.6075 36.6599 83.1475 36.7719 83.5875 36.9959C84.0355 37.2199 84.3675 37.5199 84.5835 37.8959C84.8075 38.2719 84.9195 38.6919 84.9195 39.1559C84.9195 39.6999 84.7595 40.1959 84.4395 40.6439C84.1275 41.0839 83.6435 41.3839 82.9875 41.5439L85.0515 44.9999H83.4195ZM80.4555 40.5719H81.9675C82.4795 40.5719 82.8635 40.4439 83.1195 40.1879C83.3835 39.9319 83.5155 39.5879 83.5155 39.1559C83.5155 38.7239 83.3875 38.3879 83.1315 38.1479C82.8755 37.8999 82.4875 37.7759 81.9675 37.7759H80.4555V40.5719ZM86.2136 41.6639C86.2136 40.9999 86.3496 40.4119 86.6216 39.8999C86.9016 39.3879 87.2776 38.9919 87.7496 38.7119C88.2296 38.4239 88.7576 38.2799 89.3336 38.2799C89.8536 38.2799 90.3056 38.3839 90.6896 38.5919C91.0816 38.7919 91.3936 39.0439 91.6256 39.3479V38.3879H93.0056V44.9999H91.6256V44.0159C91.3936 44.3279 91.0776 44.5879 90.6776 44.7959C90.2776 45.0039 89.8216 45.1079 89.3096 45.1079C88.7416 45.1079 88.2216 44.9639 87.7496 44.6759C87.2776 44.3799 86.9016 43.9719 86.6216 43.4519C86.3496 42.9239 86.2136 42.3279 86.2136 41.6639ZM91.6256 41.6879C91.6256 41.2319 91.5296 40.8359 91.3376 40.4999C91.1536 40.1639 90.9096 39.9079 90.6056 39.7319C90.3016 39.5559 89.9736 39.4679 89.6216 39.4679C89.2696 39.4679 88.9416 39.5559 88.6376 39.7319C88.3336 39.8999 88.0856 40.1519 87.8936 40.4879C87.7096 40.8159 87.6176 41.2079 87.6176 41.6639C87.6176 42.1199 87.7096 42.5199 87.8936 42.8639C88.0856 43.2079 88.3336 43.4719 88.6376 43.6559C88.9496 43.8319 89.2776 43.9199 89.6216 43.9199C89.9736 43.9199 90.3016 43.8319 90.6056 43.6559C90.9096 43.4799 91.1536 43.2239 91.3376 42.8879C91.5296 42.5439 91.6256 42.1439 91.6256 41.6879ZM96.3984 39.5039V43.1639C96.3984 43.4119 96.4544 43.5919 96.5664 43.7039C96.6864 43.8079 96.8864 43.8599 97.1664 43.8599H98.0064V44.9999H96.9264C96.3104 44.9999 95.8384 44.8559 95.5104 44.5679C95.1824 44.2799 95.0184 43.8119 95.0184 43.1639V39.5039H94.2384V38.3879H95.0184V36.7439H96.3984V38.3879H98.0064V39.5039H96.3984ZM105.327 41.5319C105.327 41.7799 105.311 42.0039 105.279 42.2039H100.227C100.267 42.7319 100.463 43.1559 100.815 43.4759C101.167 43.7959 101.599 43.9559 102.111 43.9559C102.847 43.9559 103.367 43.6479 103.671 43.0319H105.147C104.947 43.6399 104.583 44.1399 104.055 44.5319C103.535 44.9159 102.887 45.1079 102.111 45.1079C101.479 45.1079 100.911 44.9679 100.407 44.6879C99.9112 44.3999 99.5192 43.9999 99.2312 43.4879C98.9512 42.9679 98.8112 42.3679 98.8112 41.6879C98.8112 41.0079 98.9472 40.4119 99.2192 39.8999C99.4992 39.3799 99.8872 38.9799 100.383 38.6999C100.887 38.4199 101.463 38.2799 102.111 38.2799C102.735 38.2799 103.291 38.4159 103.779 38.6879C104.267 38.9599 104.647 39.3439 104.919 39.8399C105.191 40.3279 105.327 40.8919 105.327 41.5319ZM103.899 41.0999C103.891 40.5959 103.711 40.1919 103.359 39.8879C103.007 39.5839 102.571 39.4319 102.051 39.4319C101.579 39.4319 101.175 39.5839 100.839 39.8879C100.503 40.1839 100.303 40.5879 100.239 41.0999H103.899Z" fill="#1D1617"/>
<path d="M49.238 61.2779L45.514 69.9999H43.526L47.278 61.5019H42.49V59.8219H49.238V61.2779ZM52.12 64.5959C51.1866 64.1106 50.72 63.3592 50.72 62.3419C50.72 61.8379 50.846 61.3806 51.098 60.9699C51.3593 60.5499 51.7466 60.2186 52.26 59.9759C52.7826 59.7239 53.4173 59.5979 54.164 59.5979C54.9106 59.5979 55.5406 59.7239 56.054 59.9759C56.5766 60.2186 56.964 60.5499 57.216 60.9699C57.4773 61.3806 57.608 61.8379 57.608 62.3419C57.608 62.8552 57.482 63.3079 57.23 63.6999C56.978 64.0826 56.642 64.3812 56.222 64.5959C56.7353 64.8199 57.1366 65.1466 57.426 65.5759C57.7153 66.0052 57.86 66.5139 57.86 67.1019C57.86 67.7366 57.6966 68.2919 57.37 68.7679C57.0526 69.2346 56.614 69.5939 56.054 69.8459C55.494 70.0979 54.864 70.2239 54.164 70.2239C53.464 70.2239 52.834 70.0979 52.274 69.8459C51.7233 69.5939 51.2846 69.2346 50.958 68.7679C50.6406 68.2919 50.482 67.7366 50.482 67.1019C50.482 66.5139 50.6266 66.0052 50.916 65.5759C51.2053 65.1372 51.6066 64.8106 52.12 64.5959ZM55.704 62.6219C55.704 62.1646 55.564 61.8099 55.284 61.5579C55.0133 61.3059 54.64 61.1799 54.164 61.1799C53.6973 61.1799 53.324 61.3059 53.044 61.5579C52.7733 61.8099 52.638 62.1692 52.638 62.6359C52.638 63.0559 52.778 63.3919 53.058 63.6439C53.3473 63.8959 53.716 64.0219 54.164 64.0219C54.612 64.0219 54.9806 63.8959 55.27 63.6439C55.5593 63.3826 55.704 63.0419 55.704 62.6219ZM54.164 65.4499C53.632 65.4499 53.198 65.5852 52.862 65.8559C52.5353 66.1266 52.372 66.5139 52.372 67.0179C52.372 67.4846 52.5306 67.8672 52.848 68.1659C53.1746 68.4552 53.6133 68.5999 54.164 68.5999C54.7146 68.5999 55.1486 68.4506 55.466 68.1519C55.7833 67.8532 55.942 67.4752 55.942 67.0179C55.942 66.5232 55.7786 66.1406 55.452 65.8699C55.1253 65.5899 54.696 65.4499 54.164 65.4499ZM68.512 64.9879C69.0627 65.0906 69.5153 65.3659 69.87 65.8139C70.2247 66.2619 70.402 66.7752 70.402 67.3539C70.402 67.8766 70.2713 68.3386 70.01 68.7399C69.758 69.1319 69.3893 69.4399 68.904 69.6639C68.4187 69.8879 67.8447 69.9999 67.182 69.9999H62.968V60.2279H67C67.6627 60.2279 68.232 60.3352 68.708 60.5499C69.1933 60.7646 69.5573 61.0632 69.8 61.4459C70.052 61.8286 70.178 62.2626 70.178 62.7479C70.178 63.3172 70.024 63.7932 69.716 64.1759C69.4173 64.5586 69.016 64.8292 68.512 64.9879ZM64.928 64.2599H66.72C67.1867 64.2599 67.546 64.1572 67.798 63.9519C68.05 63.7372 68.176 63.4339 68.176 63.0419C68.176 62.6499 68.05 62.3466 67.798 62.1319C67.546 61.9172 67.1867 61.8099 66.72 61.8099H64.928V64.2599ZM66.902 68.4039C67.378 68.4039 67.7467 68.2919 68.008 68.0679C68.2787 67.8439 68.414 67.5266 68.414 67.1159C68.414 66.6959 68.274 66.3692 67.994 66.1359C67.714 65.8932 67.336 65.7719 66.86 65.7719H64.928V68.4039H66.902ZM79.0901 63.2519C79.0901 63.7746 78.9641 64.2646 78.7121 64.7219C78.4694 65.1792 78.0821 65.5479 77.5501 65.8279C77.0274 66.1079 76.3647 66.2479 75.5621 66.2479H73.9241V69.9999H71.9641V60.2279H75.5621C76.3181 60.2279 76.9621 60.3586 77.4941 60.6199C78.0261 60.8812 78.4227 61.2406 78.6841 61.6979C78.9547 62.1552 79.0901 62.6732 79.0901 63.2519ZM75.4781 64.6659C76.0194 64.6659 76.4207 64.5446 76.6821 64.3019C76.9434 64.0499 77.0741 63.6999 77.0741 63.2519C77.0741 62.2999 76.5421 61.8239 75.4781 61.8239H73.9241V64.6659H75.4781ZM91.1357 60.2279V69.9999H89.1757V63.6439L86.5577 69.9999H85.0737L82.4417 63.6439V69.9999H80.4817V60.2279H82.7077L85.8157 67.4939L88.9237 60.2279H91.1357Z" fill="url(#paint0_linear_330_585)"/>
<path opacity="0.2" d="M22 127.5L29.5 120L34.5 127.5L38 123H40.5L49.5 111.5L52.5 123L55 117H57.5L63 99.4999L69.5 117H73.5L75.5 111.5L85 127.5L90 117H97L102 97.4999L105 117H111.5L113 113H117L119.5 108L121 106L124 108L126 103L135.5 84.4999L143.5 103H147.5L152.5 108L160 103H170.5L179.5 71.9999L186 103H188L189.5 99.9999H191.5L193 98.4999L194 96.4999L196.5 99.4999L199 103H204L209.5 98.4999L211.5 103L217.5 82.9999L224.5 103H227V99.4999L234 114V99.9999H243L251 124.5L255 99.9999H265.5L268.5 97.4999L270.5 99.9999L273 97.4999L279.5 106L285 110V113L293.5 127.5L300 103H309L313 93.4999L316 96.4999L318.5 84.4999L329.5 106H337" stroke="url(#paint1_linear_330_585)" stroke-width="1.2" stroke-linecap="round" stroke-linejoin="round"/>
<path d="M22 127.5L29.5 120L34.5 127.5L38 123H40.5L49.5 111.5L52.5 123L55 117H57.5L63 99.4999L69.5 117H73.5L75.5 111.5L85 127.5L90 117H97L102 97.4999L105 117H111.5L113 113H117L119.5 108L121 106L124 108L126 103L135.5 84.4999L143.5 103H147.5L152.5 108L160 103H170.5L179.5 71.9999L186 103H188L189.5 99.9999H191.5L193 98.4999L194 96.4999L196.5 99.4999L199 103H204L209.5 98.4999L211.5 103L217.5 82.9999" stroke="url(#paint2_linear_330_585)" stroke-width="1.5" stroke-linecap="round" stroke-linejoin="round"/>
<path opacity="0.5" d="M29.5 120L22 127.5V133.5H217.5V82.9999L211.5 103L209.5 98.4999L204 103H199L196.5 99.4999L194 96.4999L193 98.4999L191.5 99.9999H189.5L188 103H186L179.5 71.9999L170.5 103H160L152.5 108L147.5 103H143.5L135.5 84.4999L126 103L124 108L121 106L119.5 108L117 113H113L111.5 117H105L102 97.4999L97 117H90L85 127.5L75.5 111.5L73.5 117H69.5L63 99.4999L57.5 117H55L52.5 123L49.5 111.5L40.5 123H38L34.5 127.5L29.5 120Z" fill="url(#paint3_linear_330_585)"/>
<path d="M218.866 74.4999C218.481 75.1666 217.519 75.1666 217.134 74.4999L214.536 69.9999C214.151 69.3332 214.632 68.4999 215.402 68.4999L220.598 68.4999C221.368 68.4999 221.849 69.3332 221.464 69.9999L218.866 74.4999Z" fill="url(#paint4_linear_330_585)"/>
<g filter="url(#filter1_d_330_585)">
<rect x="181" y="45.9999" width="73" height="25" rx="12.5" fill="url(#paint5_linear_330_585)"/>
</g>
<path d="M191.6 56.5899C191.647 55.9766 191.883 55.4966 192.31 55.1499C192.737 54.8032 193.29 54.6299 193.97 54.6299C194.423 54.6299 194.813 54.7132 195.14 54.8799C195.473 55.0399 195.723 55.2599 195.89 55.5399C196.063 55.8199 196.15 56.1366 196.15 56.4899C196.15 56.9032 196.03 57.2599 195.79 57.5599C195.557 57.8599 195.25 58.0532 194.87 58.1399V58.1899C195.303 58.2966 195.647 58.5066 195.9 58.8199C196.153 59.1332 196.28 59.5432 196.28 60.0499C196.28 60.4299 196.193 60.7732 196.02 61.0799C195.847 61.3799 195.587 61.6166 195.24 61.7899C194.893 61.9632 194.477 62.0499 193.99 62.0499C193.283 62.0499 192.703 61.8666 192.25 61.4999C191.797 61.1266 191.543 60.5999 191.49 59.9199H192.37C192.417 60.3199 192.58 60.6466 192.86 60.8999C193.14 61.1532 193.513 61.2799 193.98 61.2799C194.447 61.2799 194.8 61.1599 195.04 60.9199C195.287 60.6732 195.41 60.3566 195.41 59.9699C195.41 59.4699 195.243 59.1099 194.91 58.8899C194.577 58.6699 194.073 58.5599 193.4 58.5599H193.17V57.7999H193.41C194.023 57.7932 194.487 57.6932 194.8 57.4999C195.113 57.2999 195.27 56.9932 195.27 56.5799C195.27 56.2266 195.153 55.9432 194.92 55.7299C194.693 55.5166 194.367 55.4099 193.94 55.4099C193.527 55.4099 193.193 55.5166 192.94 55.7299C192.687 55.9432 192.537 56.2299 192.49 56.5899H191.6ZM204.249 56.4199C204.675 56.4199 205.055 56.5099 205.389 56.6899C205.722 56.8632 205.985 57.1266 206.179 57.4799C206.372 57.8332 206.469 58.2632 206.469 58.7699V61.9999H205.569V58.8999C205.569 58.3532 205.432 57.9366 205.159 57.6499C204.892 57.3566 204.529 57.2099 204.069 57.2099C203.595 57.2099 203.219 57.3632 202.939 57.6699C202.659 57.9699 202.519 58.4066 202.519 58.9799V61.9999H201.619V58.8999C201.619 58.3532 201.482 57.9366 201.209 57.6499C200.942 57.3566 200.579 57.2099 200.119 57.2099C199.645 57.2099 199.269 57.3632 198.989 57.6699C198.709 57.9699 198.569 58.4066 198.569 58.9799V61.9999H197.659V56.5199H198.569V57.3099C198.749 57.0232 198.989 56.8032 199.289 56.6499C199.595 56.4966 199.932 56.4199 200.299 56.4199C200.759 56.4199 201.165 56.5232 201.519 56.7299C201.872 56.9366 202.135 57.2399 202.309 57.6399C202.462 57.2532 202.715 56.9532 203.069 56.7399C203.422 56.5266 203.815 56.4199 204.249 56.4199ZM208.431 55.6299C208.258 55.6299 208.111 55.5699 207.991 55.4499C207.871 55.3299 207.811 55.1832 207.811 55.0099C207.811 54.8366 207.871 54.6899 207.991 54.5699C208.111 54.4499 208.258 54.3899 208.431 54.3899C208.598 54.3899 208.738 54.4499 208.851 54.5699C208.971 54.6899 209.031 54.8366 209.031 55.0099C209.031 55.1832 208.971 55.3299 208.851 55.4499C208.738 55.5699 208.598 55.6299 208.431 55.6299ZM208.871 56.5199V61.9999H207.961V56.5199H208.871ZM213.092 56.4199C213.759 56.4199 214.299 56.6232 214.712 57.0299C215.126 57.4299 215.332 58.0099 215.332 58.7699V61.9999H214.432V58.8999C214.432 58.3532 214.296 57.9366 214.022 57.6499C213.749 57.3566 213.376 57.2099 212.902 57.2099C212.422 57.2099 212.039 57.3599 211.752 57.6599C211.472 57.9599 211.332 58.3966 211.332 58.9699V61.9999H210.422V56.5199H211.332V57.2999C211.512 57.0199 211.756 56.8032 212.062 56.6499C212.376 56.4966 212.719 56.4199 213.092 56.4199ZM218.759 62.0899C218.339 62.0899 217.962 62.0199 217.629 61.8799C217.295 61.7332 217.032 61.5332 216.839 61.2799C216.645 61.0199 216.539 60.7232 216.519 60.3899H217.459C217.485 60.6632 217.612 60.8866 217.839 61.0599C218.072 61.2332 218.375 61.3199 218.749 61.3199C219.095 61.3199 219.369 61.2432 219.569 61.0899C219.769 60.9366 219.869 60.7432 219.869 60.5099C219.869 60.2699 219.762 60.0932 219.549 59.9799C219.335 59.8599 219.005 59.7432 218.559 59.6299C218.152 59.5232 217.819 59.4166 217.559 59.3099C217.305 59.1966 217.085 59.0332 216.899 58.8199C216.719 58.5999 216.629 58.3132 216.629 57.9599C216.629 57.6799 216.712 57.4232 216.879 57.1899C217.045 56.9566 217.282 56.7732 217.589 56.6399C217.895 56.4999 218.245 56.4299 218.639 56.4299C219.245 56.4299 219.735 56.5832 220.109 56.8899C220.482 57.1966 220.682 57.6166 220.709 58.1499H219.799C219.779 57.8632 219.662 57.6332 219.449 57.4599C219.242 57.2866 218.962 57.1999 218.609 57.1999C218.282 57.1999 218.022 57.2699 217.829 57.4099C217.635 57.5499 217.539 57.7332 217.539 57.9599C217.539 58.1399 217.595 58.2899 217.709 58.4099C217.829 58.5232 217.975 58.6166 218.149 58.6899C218.329 58.7566 218.575 58.8332 218.889 58.9199C219.282 59.0266 219.602 59.1332 219.849 59.2399C220.095 59.3399 220.305 59.4932 220.479 59.6999C220.659 59.9066 220.752 60.1766 220.759 60.5099C220.759 60.8099 220.675 61.0799 220.509 61.3199C220.342 61.5599 220.105 61.7499 219.799 61.8899C219.499 62.0232 219.152 62.0899 218.759 62.0899ZM224.369 59.2399C224.369 58.6799 224.483 58.1899 224.709 57.7699C224.936 57.3432 225.246 57.0132 225.639 56.7799C226.039 56.5466 226.483 56.4299 226.969 56.4299C227.449 56.4299 227.866 56.5332 228.219 56.7399C228.573 56.9466 228.836 57.2066 229.009 57.5199V56.5199H229.929V61.9999H229.009V60.9799C228.829 61.2999 228.559 61.5666 228.199 61.7799C227.846 61.9866 227.433 62.0899 226.959 62.0899C226.473 62.0899 226.033 61.9699 225.639 61.7299C225.246 61.4899 224.936 61.1532 224.709 60.7199C224.483 60.2866 224.369 59.7932 224.369 59.2399ZM229.009 59.2499C229.009 58.8366 228.926 58.4766 228.759 58.1699C228.593 57.8632 228.366 57.6299 228.079 57.4699C227.799 57.3032 227.489 57.2199 227.149 57.2199C226.809 57.2199 226.499 57.2999 226.219 57.4599C225.939 57.6199 225.716 57.8532 225.549 58.1599C225.383 58.4666 225.299 58.8266 225.299 59.2399C225.299 59.6599 225.383 60.0266 225.549 60.3399C225.716 60.6466 225.939 60.8832 226.219 61.0499C226.499 61.2099 226.809 61.2899 227.149 61.2899C227.489 61.2899 227.799 61.2099 228.079 61.0499C228.366 60.8832 228.593 60.6466 228.759 60.3399C228.926 60.0266 229.009 59.6632 229.009 59.2499ZM233.727 56.4299C234.201 56.4299 234.614 56.5332 234.967 56.7399C235.327 56.9466 235.594 57.2066 235.767 57.5199V56.5199H236.687V62.1199C236.687 62.6199 236.581 63.0632 236.367 63.4499C236.154 63.8432 235.847 64.1499 235.447 64.3699C235.054 64.5899 234.594 64.6999 234.067 64.6999C233.347 64.6999 232.747 64.5299 232.267 64.1899C231.787 63.8499 231.504 63.3866 231.417 62.7999H232.317C232.417 63.1332 232.624 63.3999 232.937 63.5999C233.251 63.8066 233.627 63.9099 234.067 63.9099C234.567 63.9099 234.974 63.7532 235.287 63.4399C235.607 63.1266 235.767 62.6866 235.767 62.1199V60.9699C235.587 61.2899 235.321 61.5566 234.967 61.7699C234.614 61.9832 234.201 62.0899 233.727 62.0899C233.241 62.0899 232.797 61.9699 232.397 61.7299C232.004 61.4899 231.694 61.1532 231.467 60.7199C231.241 60.2866 231.127 59.7932 231.127 59.2399C231.127 58.6799 231.241 58.1899 231.467 57.7699C231.694 57.3432 232.004 57.0132 232.397 56.7799C232.797 56.5466 233.241 56.4299 233.727 56.4299ZM235.767 59.2499C235.767 58.8366 235.684 58.4766 235.517 58.1699C235.351 57.8632 235.124 57.6299 234.837 57.4699C234.557 57.3032 234.247 57.2199 233.907 57.2199C233.567 57.2199 233.257 57.2999 232.977 57.4599C232.697 57.6199 232.474 57.8532 232.307 58.1599C232.141 58.4666 232.057 58.8266 232.057 59.2399C232.057 59.6599 232.141 60.0266 232.307 60.3399C232.474 60.6466 232.697 60.8832 232.977 61.0499C233.257 61.2099 233.567 61.2899 233.907 61.2899C234.247 61.2899 234.557 61.2099 234.837 61.0499C235.124 60.8832 235.351 60.6466 235.517 60.3399C235.684 60.0266 235.767 59.6632 235.767 59.2499ZM240.615 62.0899C240.102 62.0899 239.635 61.9732 239.215 61.7399C238.802 61.5066 238.475 61.1766 238.235 60.7499C238.002 60.3166 237.885 59.8166 237.885 59.2499C237.885 58.6899 238.005 58.1966 238.245 57.7699C238.492 57.3366 238.825 57.0066 239.245 56.7799C239.665 56.5466 240.135 56.4299 240.655 56.4299C241.175 56.4299 241.645 56.5466 242.065 56.7799C242.485 57.0066 242.815 57.3332 243.055 57.7599C243.302 58.1866 243.425 58.6832 243.425 59.2499C243.425 59.8166 243.298 60.3166 243.045 60.7499C242.798 61.1766 242.462 61.5066 242.035 61.7399C241.608 61.9732 241.135 62.0899 240.615 62.0899ZM240.615 61.2899C240.942 61.2899 241.248 61.2132 241.535 61.0599C241.822 60.9066 242.052 60.6766 242.225 60.3699C242.405 60.0632 242.495 59.6899 242.495 59.2499C242.495 58.8099 242.408 58.4366 242.235 58.1299C242.062 57.8232 241.835 57.5966 241.555 57.4499C241.275 57.2966 240.972 57.2199 240.645 57.2199C240.312 57.2199 240.005 57.2966 239.725 57.4499C239.452 57.5966 239.232 57.8232 239.065 58.1299C238.898 58.4366 238.815 58.8099 238.815 59.2499C238.815 59.6966 238.895 60.0732 239.055 60.3799C239.222 60.6866 239.442 60.9166 239.715 61.0699C239.988 61.2166 240.288 61.2899 240.615 61.2899Z" fill="white"/>
<circle cx="217.5" cy="83.4999" r="1.9" fill="white" stroke="url(#paint6_linear_330_585)" stroke-width="1.2"/>
<defs>
<filter id="filter0_d_330_585" x="3.05176e-05" y="-8.39233e-05" width="359" height="194" filterUnits="userSpaceOnUse" color-interpolation-filters="sRGB">
<feFlood flood-opacity="0" result="BackgroundImageFix"/>
<feColorMatrix in="SourceAlpha" type="matrix" values="0 0 0 0 0 0 0 0 0 0 0 0 0 0 0 0 0 0 127 0" result="hardAlpha"/>
<feOffset dy="10"/>
<feGaussianBlur stdDeviation="11"/>
<feColorMatrix type="matrix" values="0 0 0 0 0.584314 0 0 0 0 0.678431 0 0 0 0 0.996078 0 0 0 0.3 0"/>
<feBlend mode="normal" in2="BackgroundImageFix" result="effect1_dropShadow_330_585"/>
<feBlend mode="normal" in="SourceGraphic" in2="effect1_dropShadow_330_585" result="shape"/>
</filter>
<filter id="filter1_d_330_585" x="159" y="33.9999" width="117" height="69" filterUnits="userSpaceOnUse" color-interpolation-filters="sRGB">
<feFlood flood-opacity="0" result="BackgroundImageFix"/>
<feColorMatrix in="SourceAlpha" type="matrix" values="0 0 0 0 0 0 0 0 0 0 0 0 0 0 0 0 0 0 127 0" result="hardAlpha"/>
<feOffset dy="10"/>
<feGaussianBlur stdDeviation="11"/>
<feColorMatrix type="matrix" values="0 0 0 0 0.772549 0 0 0 0 0.545098 0 0 0 0 0.94902 0 0 0 0.3 0"/>
<feBlend mode="normal" in2="BackgroundImageFix" result="effect1_dropShadow_330_585"/>
<feBlend mode="normal" in="SourceGraphic" in2="effect1_dropShadow_330_585" result="shape"/>
</filter>
<linearGradient id="paint0_linear_330_585" x1="67.5" y1="54.9999" x2="67.5" y2="75.9999" gradientUnits="userSpaceOnUse">
<stop stop-color="#53E88B"/>
<stop offset="1" stop-color="#15BE77"/>
</linearGradient>
<linearGradient id="paint1_linear_330_585" x1="179.5" y1="71.9999" x2="179.5" y2="127.5" gradientUnits="userSpaceOnUse">
<stop stop-color="#53E88B"/>
<stop offset="1" stop-color="#15BE77"/>
</linearGradient>
<linearGradient id="paint2_linear_330_585" x1="119.75" y1="71.9999" x2="119.75" y2="127.5" gradientUnits="userSpaceOnUse">
<stop stop-color="#53E88B"/>
<stop offset="1" stop-color="#15BE77"/>
</linearGradient>
<linearGradient id="paint3_linear_330_585" x1="119.75" y1="71.9999" x2="119.75" y2="152" gradientUnits="userSpaceOnUse">
<stop stop-color="#93A7FE"/>
<stop offset="1" stop-color="white" stop-opacity="0"/>
</linearGradient>
<linearGradient id="paint4_linear_330_585" x1="218" y1="75.9999" x2="218" y2="65.9999" gradientUnits="userSpaceOnUse">
<stop stop-color="#2ECC71"/>
<stop offset="1" stop-color="#158053"/>
</linearGradient>
<linearGradient id="paint5_linear_330_585" x1="217.5" y1="45.9999" x2="217.5" y2="70.9999" gradientUnits="userSpaceOnUse">
<stop stop-color="#2ECC71"/>
<stop offset="1" stop-color="#158053"/>
</linearGradient>
<linearGradient id="paint6_linear_330_585" x1="217.5" y1="80.9999" x2="217.5" y2="85.9999" gradientUnits="userSpaceOnUse">
<stop stop-color="#2ECC71"/>
<stop offset="1" stop-color="#158053"/>
</linearGradient>
</defs>
</svg>
