<svg width="168" height="168" viewBox="0 0 168 168" fill="none" xmlns="http://www.w3.org/2000/svg">
<g filter="url(#filter0_d_317_657)">
<circle cx="84" cy="74" r="44" fill="white"/>
</g>
<g filter="url(#filter1_d_317_657)">
<path d="M131 74C133.883 74 135.324 74 136.219 72.9979C137.114 71.9958 136.963 70.6681 136.661 68.0127C136.019 62.3661 134.471 56.8462 132.066 51.6688C128.815 44.6728 124.077 38.4707 118.182 33.4956C112.286 28.5204 105.376 24.8922 97.9331 22.8642C92.4249 21.3634 86.7234 20.7658 81.0493 21.0822C78.3809 21.231 77.0467 21.3054 76.2093 22.3557C75.3719 23.4061 75.6142 24.827 76.0988 27.6689L83.1488 69.0087C83.5554 71.3932 83.7588 72.5854 84.5969 73.2927C85.435 74 86.6445 74 89.0634 74H131Z" fill="#1EE390"/>
</g>
<path d="M95.164 52.104C95.932 51.464 96.544 50.932 97 50.508C97.456 50.076 97.836 49.628 98.14 49.164C98.444 48.7 98.596 48.244 98.596 47.796C98.596 47.388 98.5 47.068 98.308 46.836C98.116 46.604 97.82 46.488 97.42 46.488C97.02 46.488 96.712 46.624 96.496 46.896C96.28 47.16 96.168 47.524 96.16 47.988H94.528C94.56 47.028 94.844 46.3 95.38 45.804C95.924 45.308 96.612 45.06 97.444 45.06C98.356 45.06 99.056 45.304 99.544 45.792C100.032 46.272 100.276 46.908 100.276 47.7C100.276 48.324 100.108 48.92 99.772 49.488C99.436 50.056 99.052 50.552 98.62 50.976C98.188 51.392 97.624 51.896 96.928 52.488H100.468V53.88H94.54V52.632L95.164 52.104ZM101.527 49.512C101.527 48.128 101.775 47.044 102.271 46.26C102.775 45.476 103.607 45.084 104.767 45.084C105.927 45.084 106.755 45.476 107.251 46.26C107.755 47.044 108.007 48.128 108.007 49.512C108.007 50.904 107.755 51.996 107.251 52.788C106.755 53.58 105.927 53.976 104.767 53.976C103.607 53.976 102.775 53.58 102.271 52.788C101.775 51.996 101.527 50.904 101.527 49.512ZM106.351 49.512C106.351 48.92 106.311 48.424 106.231 48.024C106.159 47.616 106.007 47.284 105.775 47.028C105.551 46.772 105.215 46.644 104.767 46.644C104.319 46.644 103.979 46.772 103.747 47.028C103.523 47.284 103.371 47.616 103.291 48.024C103.219 48.424 103.183 48.92 103.183 49.512C103.183 50.12 103.219 50.632 103.291 51.048C103.363 51.456 103.515 51.788 103.747 52.044C103.979 52.292 104.319 52.416 104.767 52.416C105.215 52.416 105.555 52.292 105.787 52.044C106.019 51.788 106.171 51.456 106.243 51.048C106.315 50.632 106.351 50.12 106.351 49.512ZM111.312 52.236L109.908 55.608H108.828L109.608 52.236H111.312ZM112.127 46.8V45.252H115.019V54H113.291V46.8H112.127Z" fill="white"/>
<defs>
<filter id="filter0_d_317_657" x="0" y="0" width="168" height="168" filterUnits="userSpaceOnUse" color-interpolation-filters="sRGB">
<feFlood flood-opacity="0" result="BackgroundImageFix"/>
<feColorMatrix in="SourceAlpha" type="matrix" values="0 0 0 0 0 0 0 0 0 0 0 0 0 0 0 0 0 0 127 0" result="hardAlpha"/>
<feOffset dy="10"/>
<feGaussianBlur stdDeviation="20"/>
<feColorMatrix type="matrix" values="0 0 0 0 0.113725 0 0 0 0 0.0862745 0 0 0 0 0.0901961 0 0 0 0.07 0"/>
<feBlend mode="normal" in2="BackgroundImageFix" result="effect1_dropShadow_317_657"/>
<feBlend mode="normal" in="SourceGraphic" in2="effect1_dropShadow_317_657" result="shape"/>
</filter>
<filter id="filter1_d_317_657" x="53.6571" y="9" width="105.238" height="97" filterUnits="userSpaceOnUse" color-interpolation-filters="sRGB">
<feFlood flood-opacity="0" result="BackgroundImageFix"/>
<feColorMatrix in="SourceAlpha" type="matrix" values="0 0 0 0 0 0 0 0 0 0 0 0 0 0 0 0 0 0 127 0" result="hardAlpha"/>
<feOffset dy="10"/>
<feGaussianBlur stdDeviation="11"/>
<feColorMatrix type="matrix" values="0 0 0 0 0.772549 0 0 0 0 0.545098 0 0 0 0 0.94902 0 0 0 0.3 0"/>
<feBlend mode="normal" in2="BackgroundImageFix" result="effect1_dropShadow_317_657"/>
<feBlend mode="normal" in="SourceGraphic" in2="effect1_dropShadow_317_657" result="shape"/>
</filter>
</defs>
</svg>
