<svg width="43" height="43" viewBox="0 0 43 43" fill="none" xmlns="http://www.w3.org/2000/svg">
<circle opacity="0.3" cx="21.5" cy="21.5" r="21.5" fill="url(#paint0_linear_408_477)"/>
<path d="M25.9515 27.5808L24.0795 27.7101V36.5512L24.0799 36.5511C24.0855 36.67 24.1605 36.7828 24.3079 36.8679C24.6464 37.0633 25.2375 37.0388 25.6283 36.8132C25.8293 36.6972 25.9373 36.5506 25.9496 36.4089L25.9515 36.4088V27.5808Z" fill="url(#paint1_linear_408_477)"/>
<path d="M34.8327 22.489L32.9606 22.6183V31.4594L32.9611 31.4593C32.9667 31.5782 33.0417 31.691 33.1891 31.7761C33.5276 31.9715 34.1187 31.947 34.5095 31.7214C34.7105 31.6053 34.8186 31.4587 34.8308 31.3171L34.8328 31.3169V22.489H34.8327Z" fill="url(#paint2_linear_408_477)"/>
<path d="M17.3139 8.0035L17.3147 8.00239L15.793 7.12817L15.7922 7.12934C15.5655 6.9787 15.2613 6.94688 14.9921 7.10233L7.05385 11.6603C6.48754 11.9872 6.13873 12.5914 6.13873 13.2453V25.957C6.13873 26.2532 6.30156 26.4927 6.52774 26.6193L6.5275 26.6196L8.1127 27.5304L17.3141 8.00362C17.3141 8.00356 17.314 8.00356 17.3139 8.0035Z" fill="url(#paint3_linear_408_477)"/>
<path d="M7.74005 26.8777V14.1659C7.74005 13.5121 8.08886 12.9079 8.65517 12.5809L16.5934 8.02297C17.0996 7.7307 17.7325 8.09603 17.7325 8.68062V21.3923C17.7325 22.0462 17.3836 22.6504 16.8174 22.9773L8.87917 27.5353C8.37292 27.8276 7.74005 27.4623 7.74005 26.8777Z" fill="url(#paint4_linear_408_477)"/>
<path d="M34.6601 25.5671L18.0729 15.9905C17.7426 15.7997 17.3355 15.7997 17.0052 15.9905L7.91267 21.2148C7.79759 21.2812 7.74005 21.3975 7.74005 21.5138V25.465C7.74005 25.5812 7.79759 25.6976 7.91267 25.764L24.4999 35.3406C24.8303 35.5313 25.2373 35.5313 25.5677 35.3406L34.6602 30.1163C34.777 30.049 34.8342 29.9302 34.8325 29.8122H34.8328V25.8706H34.8325C34.834 25.7529 34.7767 25.6344 34.6601 25.5671Z" fill="url(#paint5_linear_408_477)"/>
<path d="M24.4999 31.3911L7.91267 21.8145C7.68251 21.6816 7.68251 21.3494 7.91267 21.2165L17.0051 15.9922C17.3355 15.8015 17.7425 15.8015 18.0729 15.9922L34.6601 25.5688C34.8903 25.7017 34.8903 26.034 34.6601 26.1669L25.5677 31.3911C25.2373 31.5819 24.8303 31.5819 24.4999 31.3911Z" fill="#D7D1EB"/>
<path d="M34.8325 21.9195L7.74005 17.5627V21.5139C7.74005 21.6301 7.79759 21.7465 7.91267 21.8129L24.4999 31.3895C24.8303 31.5802 25.2373 31.5802 25.5677 31.3895L34.6602 26.1652C34.777 26.0978 34.8342 25.979 34.8325 25.8611H34.8328V21.9195H34.8325Z" fill="url(#paint6_linear_408_477)"/>
<path d="M24.4999 27.4381L7.91267 17.8614C7.68251 17.7286 7.68251 17.3963 7.91267 17.2634L17.0051 12.0392C17.3355 11.8484 17.7425 11.8484 18.0729 12.0392L34.6601 21.6158C34.8903 21.7487 34.8903 22.0809 34.6601 22.2138L25.5677 27.4381C25.2373 27.6288 24.8303 27.6288 24.4999 27.4381Z" fill="#D7D1EB"/>
<path d="M19.1199 14.0855C19.0695 14.0419 19.0113 14.0083 18.9484 13.9865L15.6655 12.0911C15.509 11.9524 15.2721 11.9096 15.0657 12.0288L10.5217 14.6522C10.0624 14.9174 9.77948 15.4074 9.77948 15.9378C9.77948 16.1446 9.89667 16.3101 10.0572 16.3938L13.4627 18.36C13.6169 18.4653 13.826 18.4886 14.0107 18.3819L18.5546 15.7585C19.0139 15.4933 19.2969 15.0032 19.2969 14.4729C19.2969 14.3127 19.2261 14.1775 19.1199 14.0855Z" fill="url(#paint7_linear_408_477)"/>
<path d="M13.9805 16.6502L18.5244 14.0268C18.8677 13.8286 19.2968 14.0763 19.2968 14.4727C19.2968 15.0031 19.0139 15.4932 18.5545 15.7583L14.0106 18.3818C13.6673 18.5799 13.2382 18.3322 13.2382 17.9358C13.2382 17.4055 13.5212 16.9154 13.9805 16.6502Z" fill="url(#paint8_linear_408_477)"/>
<path d="M11.9584 22.07L24.9184 34.0316L35.8609 24.1285C35.8609 22.2664 34.8675 20.5458 33.2549 19.6147L23.8338 14.1754C22.8948 13.6333 21.7379 13.6333 20.7989 14.1754L14.5604 17.752C13.0046 18.6503 12.0253 20.2838 11.9584 22.07Z" fill="#E9E5F6"/>
<path d="M21.7742 24.9258L13.8042 20.3244C13.2398 19.9985 12.5784 20.1761 12.2194 20.6267L14.587 28.0654L14.5858 28.0659L24.9184 34.0314V30.3718C24.9184 28.1251 23.7198 26.0491 21.7742 24.9258Z" fill="url(#paint9_linear_408_477)"/>
<path d="M28.2254 24.9738L32.94 22.6812C34.2623 21.9743 35.861 22.9324 35.861 24.4319V27.7395L24.9185 34.032V30.4916C24.9185 28.1831 26.1896 26.0622 28.2254 24.9738Z" fill="url(#paint10_linear_408_477)"/>
<path d="M23.8339 14.1758C22.8949 13.6336 21.738 13.6336 20.799 14.1758L14.5605 17.7524C13.4376 18.4006 12.6155 19.432 12.2194 20.6272L15.2849 21.1797C15.7348 20.4001 16.3865 19.7368 17.1931 19.2711L23.4316 15.6945C24.362 15.1574 25.5062 15.1533 26.4406 15.6807L23.8339 14.1758Z" fill="#F2EDFF"/>
<path d="M14.587 28.0654V23.7845C14.587 22.8538 14.8352 21.9584 15.2849 21.1793L13.8042 20.3244C13.2398 19.9985 12.5784 20.1761 12.2194 20.6267C12.1986 20.6893 11.9545 21.4066 11.9545 22.2657V26.5466L14.587 28.0654Z" fill="#E9E5F6"/>
<defs>
<linearGradient id="paint0_linear_408_477" x1="21.5" y1="0" x2="21.5" y2="43" gradientUnits="userSpaceOnUse">
<stop stop-color="#53E88B"/>
<stop offset="1" stop-color="#15BE77"/>
</linearGradient>
<linearGradient id="paint1_linear_408_477" x1="24.1803" y1="32.2903" x2="25.9269" y2="32.2903" gradientUnits="userSpaceOnUse">
<stop stop-color="#8B451C"/>
<stop offset="1" stop-color="#BF942A"/>
</linearGradient>
<linearGradient id="paint2_linear_408_477" x1="32.9606" y1="27.1986" x2="34.8327" y2="27.1986" gradientUnits="userSpaceOnUse">
<stop stop-color="#8B451C"/>
<stop offset="1" stop-color="#BF942A"/>
</linearGradient>
<linearGradient id="paint3_linear_408_477" x1="9.77365" y1="15.5562" x2="10.5931" y2="14.1369" gradientUnits="userSpaceOnUse">
<stop stop-color="#252336"/>
<stop offset="1" stop-color="#594A8E"/>
</linearGradient>
<linearGradient id="paint4_linear_408_477" x1="12.7363" y1="21.6956" x2="12.7363" y2="13.0477" gradientUnits="userSpaceOnUse">
<stop stop-color="#594A8E"/>
<stop offset="1" stop-color="#7662BD"/>
</linearGradient>
<linearGradient id="paint5_linear_408_477" x1="24.1805" y1="25.6656" x2="25.9271" y2="25.6656" gradientUnits="userSpaceOnUse">
<stop stop-color="#8B451C"/>
<stop offset="1" stop-color="#BF942A"/>
</linearGradient>
<linearGradient id="paint6_linear_408_477" x1="21.6595" y1="24.5476" x2="23.2755" y2="24.5476" gradientUnits="userSpaceOnUse">
<stop stop-color="#C5BAEB"/>
<stop offset="1" stop-color="#E9E5F6"/>
</linearGradient>
<linearGradient id="paint7_linear_408_477" x1="12.5945" y1="18.5719" x2="13.7651" y2="16.5443" gradientUnits="userSpaceOnUse">
<stop stop-color="#C5BAEB"/>
<stop offset="1" stop-color="#E9E5F6"/>
</linearGradient>
<linearGradient id="paint8_linear_408_477" x1="13.2382" y1="16.2043" x2="19.2968" y2="16.2043" gradientUnits="userSpaceOnUse">
<stop stop-color="#C5BAEB"/>
<stop offset="1" stop-color="#E9E5F6"/>
</linearGradient>
<linearGradient id="paint9_linear_408_477" x1="14.2541" y1="24.2292" x2="24.4066" y2="30.0907" gradientUnits="userSpaceOnUse">
<stop stop-color="#D7D1EB"/>
<stop offset="1" stop-color="#E7E3F3"/>
</linearGradient>
<linearGradient id="paint10_linear_408_477" x1="25.3797" y1="30.2019" x2="35.4335" y2="24.3974" gradientUnits="userSpaceOnUse">
<stop stop-color="#D7D1EB"/>
<stop offset="1" stop-color="#E7E3F3"/>
</linearGradient>
</defs>
</svg>
