<svg width="43" height="43" viewBox="0 0 43 43" fill="none" xmlns="http://www.w3.org/2000/svg">
<circle opacity="0.3" cx="21.5" cy="21.5" r="21.5" fill="url(#paint0_linear_408_478)"/>
<g clip-path="url(#clip0_408_478)">
<path d="M30.3237 32.9589L28.5988 29.8379L26.3459 30.8884L27.9062 35.1054C28.2656 35.8764 29.1874 36.2173 29.9648 35.8547C30.7402 35.4932 31.0757 34.5715 30.7141 33.7961L30.3237 32.9589Z" fill="#BFBFBF"/>
<path d="M13.5775 29.9205L11.6751 32.9589L11.2848 33.796C10.9232 34.5714 11.2587 35.4931 12.0341 35.8547C12.8006 36.2123 13.728 35.8876 14.0927 35.1054L15.5103 30.8218L13.5775 29.9205Z" fill="#BFBFBF"/>
<path d="M11.6753 32.9587C12.3793 33.7802 13.1899 34.5075 14.0858 35.1194C14.0881 35.1146 14.0906 35.11 14.0929 35.1052L15.9867 31.0437L13.1788 29.7344L11.6753 32.9587Z" fill="#ACACAC"/>
<path d="M30.324 32.9587L28.8205 29.7344L26.0126 31.0437L27.9065 35.1052C27.9087 35.1101 27.9113 35.1146 27.9136 35.1194C28.8094 34.5076 29.62 33.7803 30.324 32.9587Z" fill="#ACACAC"/>
<path d="M12.3074 13.5303L11.783 13.2021L10.7719 14.2131L11.0979 14.74L13.9213 17.5634L15.1309 16.3537L12.3074 13.5303Z" fill="#ACACAC"/>
<path d="M8.97687 12.6199L10.1863 11.4104L12.3059 13.53L11.0965 14.7395L8.97687 12.6199Z" fill="#9C9C9C"/>
<path d="M8.00302 10.5554C6.81456 11.8081 6.83366 13.7867 8.06202 15.0151L8.58403 15.5371C8.72718 15.6802 8.95927 15.6802 9.10247 15.5371L12.9848 11.6547C13.1279 11.5116 13.1279 11.2795 12.9848 11.1363L12.4628 10.6143C11.2343 9.38594 9.25575 9.3669 8.00302 10.5554Z" fill="#EB5569"/>
<path d="M31.3625 14.0035L30.3787 13.0197L29.6063 13.6161L26.8684 16.3539L28.078 17.5635L30.8159 14.8257L31.3625 14.0035Z" fill="#ACACAC"/>
<path d="M22.2068 10.1119V7.51697H19.7923V10.1119H19.7166V16.2537H22.2826V10.1119H22.2068Z" fill="#ACACAC"/>
<path d="M19.7166 7.85938H22.2826V10.1121H19.7166V7.85938Z" fill="#9C9C9C"/>
<path d="M24.6469 7.54266C24.6469 6.6907 23.9562 6 23.1043 6H18.7237C17.8717 6 17.1811 6.6907 17.1811 7.54266C17.1811 8.39467 17.8718 9.08531 18.7237 9.08531H23.1043C23.9562 9.08531 24.6469 8.39467 24.6469 7.54266Z" fill="#EB5569"/>
<path d="M29.6028 13.6179L31.8079 11.4127L33.0174 12.6222L30.8122 14.8273L29.6028 13.6179Z" fill="#9C9C9C"/>
<path d="M23.2755 6H21.5645C22.4165 6 23.1071 6.6907 23.1071 7.54266C23.1071 8.39467 22.4164 9.08531 21.5645 9.08531H23.2755C24.1275 9.08531 24.8182 8.39467 24.8182 7.54266C24.8182 6.6907 24.1275 6 23.2755 6Z" fill="#E53950"/>
<path d="M33.8755 10.4354C32.6228 9.24696 30.6442 9.26601 29.4158 10.4944L28.8938 11.0164C28.7507 11.1595 28.7507 11.3917 28.8938 11.5348L32.7762 15.4172C32.9193 15.5603 33.1514 15.5603 33.2945 15.4172L33.8165 14.8952C35.045 13.6668 35.064 11.6882 33.8755 10.4354Z" fill="#EB5569"/>
<path d="M33.9375 10.4944C33.7278 10.2848 33.496 10.1112 33.25 9.97192C33.9402 11.1913 33.7666 12.7672 32.7275 13.8062L32.2055 14.3283C32.0624 14.4714 31.8304 14.4714 31.6872 14.3284L32.897 15.5382C33.0401 15.6813 33.2722 15.6813 33.4154 15.5382L33.9374 15.0161C35.1861 13.7675 35.1861 11.743 33.9375 10.4944Z" fill="#E53950"/>
<path d="M12.5838 10.4932C11.3351 9.24454 9.31067 9.24454 8.06203 10.4932C7.85244 10.7028 7.67883 10.9346 7.53961 11.1807C8.75901 10.4905 10.3349 10.6641 11.3739 11.7031L11.8959 12.2251C12.039 12.3682 12.039 12.6004 11.8959 12.7435L9.10237 15.537C9.10242 15.537 9.10242 15.537 9.10248 15.537L13.1058 11.5336C13.2489 11.3905 13.2489 11.1583 13.1058 11.0152L12.5838 10.4932Z" fill="#E53950"/>
<path d="M20.9997 35.5401C27.7791 35.5401 33.2749 30.0443 33.2749 23.2649C33.2749 16.4855 27.7791 10.9897 20.9997 10.9897C14.2203 10.9897 8.72455 16.4855 8.72455 23.2649C8.72455 30.0443 14.2203 35.5401 20.9997 35.5401Z" fill="#EB5569"/>
<path d="M20.9996 10.9897C20.7163 10.9897 20.4354 11.0002 20.1568 11.0191C26.5429 11.4522 31.5891 16.7688 31.5891 23.2649C31.5891 29.761 26.543 35.0775 20.1568 35.5107C20.4354 35.5296 20.7163 35.5401 20.9996 35.5401C27.779 35.5401 33.2748 30.0443 33.2748 23.2649C33.2748 16.4855 27.779 10.9897 20.9996 10.9897Z" fill="#E53950"/>
<path d="M20.9996 33.4021C26.598 33.4021 31.1364 28.8637 31.1364 23.2653C31.1364 17.6669 26.598 13.1285 20.9996 13.1285C15.4012 13.1285 10.8629 17.6669 10.8629 23.2653C10.8629 28.8637 15.4012 33.4021 20.9996 33.4021Z" fill="#E8EDF2"/>
<path d="M20.9995 13.1285C20.6822 13.1285 20.3684 13.144 20.0585 13.1727C25.2083 13.649 29.2542 17.9932 29.2542 23.2654C29.2542 28.5375 25.2083 32.8817 20.0585 33.3581C20.3684 33.3867 20.6822 33.4022 20.9995 33.4022C26.589 33.4022 31.1363 28.8548 31.1363 23.2654C31.1363 17.6759 26.589 13.1285 20.9995 13.1285Z" fill="#D9E7EC"/>
<path d="M21.0455 22.9843C20.7954 22.9843 20.5928 22.7816 20.5928 22.5316V17.7814C20.5928 17.5314 20.7954 17.3287 21.0455 17.3287C21.2955 17.3287 21.4982 17.5314 21.4982 17.7814V22.5316C21.4982 22.7816 21.2955 22.9843 21.0455 22.9843Z" fill="#838383"/>
<path d="M24.641 23.7175H21.3876C21.1376 23.7175 20.9349 23.5148 20.9349 23.2648C20.9349 23.0148 21.1376 22.8121 21.3876 22.8121H24.641C24.891 22.8121 25.0937 23.0148 25.0937 23.2648C25.0937 23.5148 24.891 23.7175 24.641 23.7175Z" fill="#9C9C9C"/>
<path d="M21.0455 24.8836C21.9396 24.8836 22.6645 24.1587 22.6645 23.2645C22.6645 22.3703 21.9396 21.6454 21.0455 21.6454C20.1513 21.6454 19.4264 22.3703 19.4264 23.2645C19.4264 24.1587 20.1513 24.8836 21.0455 24.8836Z" fill="#FBC56D"/>
<path d="M10.8735 23.7176H13.2145C13.4645 23.7176 13.6672 23.5149 13.6672 23.2649C13.6672 23.0149 13.4645 22.8122 13.2145 22.8122H10.8735C10.8668 22.9624 10.8629 23.1132 10.8629 23.2649C10.8629 23.4166 10.8668 23.5675 10.8735 23.7176Z" fill="#ACACAC"/>
<path d="M20.9997 30.5977C20.7497 30.5977 20.547 30.8004 20.547 31.0504V33.3914C20.6971 33.3981 20.848 33.4021 20.9997 33.4021C21.1515 33.4021 21.3023 33.3981 21.4524 33.3914V31.0504C21.4525 30.8004 21.2497 30.5977 20.9997 30.5977Z" fill="#ACACAC"/>
<path d="M20.9997 13.1285C20.8479 13.1285 20.6971 13.1325 20.547 13.1391V15.4802C20.547 15.7302 20.7497 15.9329 20.9997 15.9329C21.2497 15.9329 21.4524 15.7302 21.4524 15.4802V13.1391C21.3023 13.1325 21.1515 13.1285 20.9997 13.1285Z" fill="#ACACAC"/>
<path d="M21.0451 21.6454C20.7686 21.6454 20.5057 21.7192 20.2751 21.8474C20.7763 22.1263 21.1242 22.6634 21.1242 23.2645C21.1242 23.8656 20.7764 24.4026 20.2751 24.6815C20.5057 24.8097 20.7686 24.8835 21.0451 24.8835C21.9227 24.8835 22.6642 24.142 22.6642 23.2644C22.6642 22.3868 21.9227 21.6454 21.0451 21.6454Z" fill="#E9B665"/>
<path d="M31.1257 22.8121H28.7847C28.5346 22.8121 28.332 23.0148 28.332 23.2648C28.332 23.5148 28.5346 23.7175 28.7847 23.7175H31.1257C31.1323 23.5673 31.1363 23.4165 31.1363 23.2648C31.1363 23.1131 31.1323 22.9622 31.1257 22.8121Z" fill="#ACACAC"/>
<path d="M31.1336 23.0351C31.1317 22.9606 31.1292 22.8863 31.1259 22.8121V22.8121H29.244C29.2506 22.9622 29.2543 23.1131 29.2543 23.2648C29.2543 23.4166 29.2506 23.5674 29.244 23.7175H31.1259C31.1292 23.6433 31.1317 23.569 31.1336 23.4945C31.1353 23.4184 31.1364 23.3422 31.1365 23.2657C31.1365 23.2654 31.1365 23.2651 31.1365 23.2648C31.1365 23.188 31.1353 23.1115 31.1336 23.0351Z" fill="#9C9C9C"/>
<path d="M20.9996 33.8543C15.1605 33.8543 10.41 29.1039 10.41 23.2648C10.41 17.4258 15.1605 12.6754 20.9996 12.6754C26.8387 12.6754 31.5891 17.4257 31.5891 23.2648C31.5891 29.1039 26.8387 33.8543 20.9996 33.8543ZM20.9996 13.5807C15.6597 13.5807 11.3155 17.925 11.3155 23.2648C11.3155 28.6046 15.6597 32.9489 20.9996 32.9489C26.3394 32.9489 30.6836 28.6046 30.6836 23.2648C30.6836 17.925 26.3394 13.5807 20.9996 13.5807Z" fill="#F58A97"/>
</g>
<defs>
<linearGradient id="paint0_linear_408_478" x1="21.5" y1="0" x2="21.5" y2="43" gradientUnits="userSpaceOnUse">
<stop stop-color="#53E88B"/>
<stop offset="1" stop-color="#15BE77"/>
</linearGradient>
<clipPath id="clip0_408_478">
<rect width="30" height="30" fill="white" transform="translate(6 6)"/>
</clipPath>
</defs>
</svg>
