<svg width="14" height="14" viewBox="0 0 14 14" fill="none" xmlns="http://www.w3.org/2000/svg">
<path d="M6.99996 7.58335C7.32213 7.58335 7.58329 7.32219 7.58329 7.00002C7.58329 6.67785 7.32213 6.41669 6.99996 6.41669C6.67779 6.41669 6.41663 6.67785 6.41663 7.00002C6.41663 7.32219 6.67779 7.58335 6.99996 7.58335Z" fill="#7B6F72" stroke="#7B6F72" stroke-width="2" stroke-linecap="round" stroke-linejoin="round"/>
<path d="M6.99996 3.49998C7.32213 3.49998 7.58329 3.23881 7.58329 2.91665C7.58329 2.59448 7.32213 2.33331 6.99996 2.33331C6.67779 2.33331 6.41663 2.59448 6.41663 2.91665C6.41663 3.23881 6.67779 3.49998 6.99996 3.49998Z" fill="#7B6F72" stroke="#7B6F72" stroke-width="2" stroke-linecap="round" stroke-linejoin="round"/>
<path d="M6.99996 11.6667C7.32213 11.6667 7.58329 11.4055 7.58329 11.0833C7.58329 10.7612 7.32213 10.5 6.99996 10.5C6.67779 10.5 6.41663 10.7612 6.41663 11.0833C6.41663 11.4055 6.67779 11.6667 6.99996 11.6667Z" fill="#7B6F72" stroke="#7B6F72" stroke-width="2" stroke-linecap="round" stroke-linejoin="round"/>
</svg>
