<svg width="151" height="182" viewBox="0 0 151 182" fill="none" xmlns="http://www.w3.org/2000/svg">
<path d="M60.7295 10.4362C60.7295 10.4362 62.2627 0 74.0098 0C85.7569 0 91.4543 13.3501 94.1062 21.1825C96.7582 29.0148 103.595 36.3925 112.504 40.753C121.413 45.1135 128.146 49.8047 127.006 59.6829C127.006 59.6829 146.067 74.5623 109.748 77.3109C73.4297 80.0594 55.5915 57.265 57.7876 45.5268C59.9837 33.7886 45.8126 17.8759 60.7295 10.4362Z" fill="#151416"/>
<path d="M82.7114 35.4832C82.7114 35.4832 81.054 51.5199 88.0981 52.9251C88.0981 52.9251 91.0193 81.7126 74.59 81.7126C58.1606 81.7126 59.8388 53.7931 59.8388 53.7931C59.8388 53.7931 66.8414 51.9538 66.282 36.4751C65.7227 20.9964 82.9393 24.7163 82.7114 35.4832Z" fill="#FFEDE5"/>
<path d="M77.822 36.9092C79.2101 31.6394 72.0624 30.5648 67.2558 30.4201C66.5721 31.97 66.1785 33.9746 66.2613 36.4752C66.3649 38.6658 66.2613 40.877 65.992 43.0676C68.7268 43.2742 76.1438 43.2536 77.822 36.9092Z" fill="#E0855C"/>
<path d="M64.2827 31.9914C65.7652 31.483 66.195 28.831 65.2427 26.0678C64.2904 23.3046 62.3167 21.4767 60.8342 21.985C59.3517 22.4934 58.9219 25.1455 59.8742 27.9086C60.8265 30.6718 62.8003 32.4997 64.2827 31.9914Z" fill="#E0855C"/>
<path d="M88.9579 27.884C89.9102 25.1208 89.4804 22.4687 87.9979 21.9603C86.5154 21.452 84.5417 23.2799 83.5894 26.0431C82.6371 28.8063 83.0669 31.4584 84.5494 31.9667C86.0318 32.4751 88.0056 30.6472 88.9579 27.884Z" fill="#E0855C"/>
<path d="M61.6205 13.0195C61.6205 13.0195 60.481 40.691 73.6162 40.753C83.8302 40.7943 86.7514 28.3742 86.9172 14.3834C87.0829 0.392635 61.7862 2.27322 61.6205 13.0195Z" fill="#FFEDE5"/>
<path d="M74.6521 32.652C72.456 32.652 70.5292 31.3294 70.5085 31.3087C70.4049 31.2467 70.3842 31.1227 70.4671 31.0194C70.5292 30.916 70.6536 30.8954 70.7571 30.978C70.7986 30.9987 74.5278 33.5406 77.2833 31.3707C77.3662 31.3087 77.5112 31.3087 77.5734 31.412C77.6355 31.5153 77.6355 31.6393 77.5319 31.7013C76.5996 32.404 75.6052 32.652 74.6521 32.652Z" fill="#472938"/>
<path d="M66.1164 21.2031C66.1164 21.2031 67.836 22.2984 70.7365 21.4098C70.7365 21.3891 68.2711 23.9103 66.1164 21.2031Z" fill="#472938"/>
<path d="M82.6078 21.4305C82.6078 21.4305 80.8882 22.5258 77.9877 21.6371C77.9877 21.6371 80.4531 24.1584 82.6078 21.4305Z" fill="#472938"/>
<path d="M65.1218 17.8347C65.1218 17.8347 67.2972 15.4374 70.467 16.1814C72.083 16.5534 71.4615 14.5695 68.5402 14.6935C65.619 14.8175 65.1218 17.8347 65.1218 17.8347Z" fill="#151416"/>
<path d="M83.768 17.8347C83.768 17.8347 81.5926 15.4374 78.4228 16.1814C76.8068 16.5534 77.4283 14.5695 80.3496 14.6935C83.2708 14.8175 83.768 17.8347 83.768 17.8347Z" fill="#151416"/>
<path d="M74.1548 28.0229C73.5332 28.0229 72.2073 27.5682 71.7515 27.1136C71.5857 26.9483 71.5236 26.7829 71.5443 26.6176C71.5857 26.3696 71.7722 25.5843 72.0415 24.5924C72.3938 23.1664 72.8495 21.4098 72.9946 20.5418C73.1396 19.7152 72.9946 18.8472 72.6009 18.1033C72.5388 17.9999 72.5802 17.8759 72.6838 17.8139C72.7874 17.752 72.9117 17.7933 72.9739 17.8966C73.4089 18.7233 73.5747 19.6739 73.4089 20.6038C73.2639 21.4925 72.8081 23.2697 72.4559 24.6957C72.2073 25.6463 72.0001 26.473 71.9794 26.6796C71.9794 26.7003 72.0001 26.7416 72.0623 26.8243C72.4973 27.2583 73.8647 27.6716 74.2584 27.6096C74.7763 27.5269 75.8536 27.0309 76.2266 26.597C76.3094 26.5143 76.4337 26.5143 76.5166 26.5763C76.5995 26.659 76.5995 26.7829 76.5373 26.8656C76.0815 27.3616 74.9213 27.9196 74.3205 28.0022C74.2376 28.0229 74.1962 28.0229 74.1548 28.0229Z" fill="#472938"/>
<path d="M61.807 20.1078C61.807 20.1078 62.6358 13.5154 64.6869 11.0975C64.6869 11.0975 68.126 9.56826 73.5956 12.8128C79.0651 16.0573 82.898 18.7852 87.9739 17.9793C87.9739 17.9793 88.4504 2.25255 75.3359 3.09985C62.2214 3.94715 59.5281 10.7875 61.807 20.1078Z" fill="#151416"/>
<path d="M148.47 117.279C148.263 116.948 147.642 117.506 147.642 117.506C147.642 117.506 146.999 116.783 145.259 117.299C143.519 117.816 138.36 122.238 138.36 122.238C136.04 122.197 132.248 124.47 132.248 124.47C132.248 124.47 129.389 123.292 126.799 119.407C124.21 115.522 121.392 113.621 121.392 113.621C121.392 113.621 115.322 89.2764 111.219 74.087C107.055 75.8436 101.648 82.7666 97.7941 88.3464C97.877 90.971 97.9599 92.6449 97.9599 92.6449C97.9599 92.6449 111.468 128.397 113.208 129.471C114.949 130.546 134.817 132.943 135.024 132.799C135.232 132.654 137.055 133.129 137.801 132.799C138.546 132.468 139.458 133.005 140.37 132.385C141.281 131.765 142.856 132.716 143.498 132.117C144.14 131.517 145.259 131.765 146.005 131.414C146.751 131.063 150.915 125.194 150.998 124.14C151.081 123.086 148.678 117.609 148.47 117.279Z" fill="#FFEDE5"/>
<path d="M101.275 81.2167C101.275 81.2167 108.339 93.2442 102.746 105.086L97.939 92.6036L101.275 81.2167Z" fill="#E0855C"/>
<path d="M111.199 74.0457C109.728 68.5899 108.505 64.3121 107.904 62.7622C105.625 56.8104 101.42 56.5417 101.42 56.5417C97.2761 56.6037 97.4833 78.7575 97.7733 88.3051C101.627 82.7253 107.034 75.823 111.199 74.0457Z" fill="#15BE77"/>
<path d="M116.792 114.881C116.71 114.881 116.627 114.819 116.585 114.737C116.565 114.633 116.627 114.509 116.73 114.489L120.791 113.414C120.895 113.393 121.019 113.455 121.04 113.559C121.06 113.662 120.998 113.786 120.895 113.807L116.834 114.881C116.834 114.881 116.813 114.881 116.792 114.881Z" fill="#472938"/>
<path d="M136.889 128.955C136.785 128.955 136.682 128.872 136.682 128.748C136.578 126.227 133.595 126.124 133.471 126.124C133.346 126.124 133.263 126.02 133.263 125.917C133.263 125.793 133.367 125.71 133.471 125.71C133.512 125.71 136.951 125.834 137.075 128.727C137.117 128.851 137.013 128.955 136.889 128.955C136.91 128.955 136.91 128.955 136.889 128.955Z" fill="#472938"/>
<path d="M135.977 130.835C135.957 130.835 135.915 130.835 135.894 130.815C135.791 130.773 135.749 130.649 135.791 130.546C136.039 130.009 138.277 125.173 139.209 124.553C139.976 124.036 140.908 124.202 141.281 124.532C141.53 124.739 141.447 124.946 141.426 125.008C141.323 125.235 140.121 128.211 139.52 129.74C139.479 129.843 139.354 129.905 139.251 129.864C139.147 129.823 139.085 129.699 139.126 129.595C139.189 129.409 140.805 125.4 141.032 124.884C140.991 124.842 140.887 124.76 140.68 124.718C140.515 124.677 139.976 124.574 139.437 124.925C138.733 125.4 136.827 129.285 136.143 130.753C136.122 130.794 136.06 130.835 135.977 130.835Z" fill="#472938"/>
<path d="M142.524 129.286C142.4 129.286 142.317 129.203 142.317 129.079C142.317 129.038 142.317 129.038 142.897 126.992C143.374 125.318 144.14 122.59 144.223 122.156C144.099 122.032 143.519 121.784 143.125 121.908C142.814 122.011 141.861 123.416 141.157 124.656C141.095 124.76 140.97 124.78 140.867 124.739C140.763 124.677 140.742 124.553 140.784 124.45C141.157 123.809 142.4 121.701 142.98 121.494C143.477 121.329 144.12 121.556 144.41 121.763C144.555 121.866 144.637 121.99 144.637 122.094C144.637 122.218 144.347 123.272 143.291 127.074C143.021 128.046 142.752 128.976 142.731 129.079C142.731 129.203 142.628 129.286 142.524 129.286Z" fill="#472938"/>
<path d="M145.445 128.851C145.425 128.851 145.425 128.851 145.404 128.851C145.3 128.831 145.218 128.707 145.238 128.603C145.963 125.38 147.02 120.461 147.041 119.924C146.958 119.8 146.585 119.593 145.943 119.593C145.59 119.593 144.7 120.771 144.099 121.866C144.037 121.97 143.912 122.011 143.809 121.949C143.705 121.887 143.664 121.763 143.726 121.66C144.057 121.081 145.176 119.18 145.943 119.18C146.668 119.18 147.269 119.428 147.434 119.779C147.476 119.862 147.579 120.089 145.632 128.686C145.632 128.789 145.549 128.851 145.445 128.851Z" fill="#472938"/>
<path d="M146.999 119.8C146.917 119.8 146.834 119.738 146.792 119.655C146.461 118.601 147.434 117.423 147.476 117.382C147.559 117.299 147.683 117.279 147.766 117.361C147.849 117.444 147.87 117.568 147.787 117.651C147.787 117.671 146.917 118.705 147.186 119.552C147.227 119.655 147.165 119.779 147.041 119.821C147.041 119.8 147.02 119.8 146.999 119.8Z" fill="#472938"/>
<path d="M145.901 126.847C145.86 126.847 145.818 126.826 145.798 126.806C145.694 126.744 145.673 126.62 145.736 126.516L147.434 123.954L146.937 120.854C146.917 120.75 146.999 120.626 147.103 120.626C147.207 120.606 147.331 120.688 147.331 120.792L147.87 124.057L146.088 126.764C146.026 126.806 145.963 126.847 145.901 126.847Z" fill="#472938"/>
<path d="M2.222 120.73C2.40846 120.399 3.05072 120.916 3.05072 120.916C3.05072 120.916 3.67226 120.172 5.43329 120.626C7.19432 121.081 12.5188 125.276 12.5188 125.276C14.8185 125.152 18.7342 127.26 18.7342 127.26C18.7342 127.26 21.5519 125.958 23.9966 121.97C26.4413 117.981 29.1761 115.956 29.1761 115.956C29.1761 115.956 34.252 91.4049 37.7534 76.0295C41.9798 77.6208 47.6566 84.3165 51.738 89.731C51.7587 92.3555 51.7587 94.0295 51.7587 94.0295C51.7587 94.0295 39.7008 130.277 38.002 131.435C36.3031 132.592 16.5381 135.754 16.3517 135.63C16.1652 135.506 14.342 136.043 13.5755 135.733C12.8089 135.423 11.9387 136.022 10.9857 135.423C10.0327 134.824 8.52027 135.836 7.83658 135.278C7.15288 134.721 6.07555 134.989 5.28826 134.679C4.50098 134.369 0.129483 128.665 0.00517494 127.611C-0.119133 126.558 2.03554 121.06 2.222 120.73Z" fill="#FFEDE5"/>
<path d="M47.9466 82.8286C47.9466 82.8286 41.3791 95.1454 47.4287 106.739L51.7173 94.0708L47.9466 82.8286Z" fill="#E0855C"/>
<path d="M37.7327 76.0502C38.9757 70.5531 40.0324 66.234 40.571 64.6427C42.6014 58.6083 46.8072 58.1536 46.8072 58.1536C50.9508 58.0503 51.6137 80.2041 51.7173 89.7517C47.6359 84.3579 41.9591 77.6622 37.7327 76.0502Z" fill="#15BE77"/>
<path d="M33.7756 117.072C33.7549 117.072 33.7549 117.072 33.7342 117.072L29.632 116.163C29.5284 116.142 29.4456 116.018 29.4663 115.915C29.487 115.811 29.6113 115.729 29.7149 115.749L33.817 116.659C33.9206 116.679 34.0035 116.803 33.9828 116.907C33.9621 117.01 33.8585 117.072 33.7756 117.072Z" fill="#472938"/>
<path d="M14.2385 131.931C14.1142 131.931 14.0313 131.827 14.0313 131.724C14.052 128.81 17.4705 128.562 17.5119 128.562C17.6155 128.562 17.7191 128.645 17.7398 128.748C17.7398 128.872 17.657 128.955 17.5534 128.976C17.4291 128.976 14.4664 129.203 14.4664 131.724C14.4457 131.848 14.3628 131.931 14.2385 131.931Z" fill="#472938"/>
<path d="M15.2537 133.77C15.1708 133.77 15.1087 133.728 15.0672 133.666C14.3421 132.241 12.2703 128.417 11.5452 127.963C10.9858 127.632 10.4471 127.756 10.2814 127.797C10.0949 127.859 9.99134 127.942 9.9499 127.983C10.1985 128.5 11.9595 132.447 12.0424 132.633C12.0838 132.737 12.0424 132.861 11.9388 132.902C11.8352 132.943 11.7109 132.902 11.6695 132.799C10.9858 131.29 9.68056 128.355 9.57697 128.128C9.4941 127.983 9.55626 127.797 9.70128 127.653C10.0535 127.322 10.9858 127.115 11.7731 127.591C12.7468 128.169 15.1708 132.923 15.4402 133.46C15.4816 133.563 15.4609 133.687 15.3573 133.728C15.3158 133.77 15.2744 133.77 15.2537 133.77Z" fill="#472938"/>
<path d="M8.6239 132.468C8.52031 132.468 8.43744 132.406 8.41672 132.303C8.396 132.199 8.12667 131.373 7.8159 130.401C6.57282 126.578 6.24133 125.504 6.24133 125.38C6.24133 125.256 6.30349 125.152 6.44851 125.049C6.73856 124.822 7.3601 124.574 7.87805 124.718C8.47887 124.884 9.80483 126.95 10.1985 127.57C10.2606 127.673 10.2192 127.797 10.1363 127.859C10.0327 127.921 9.90842 127.88 9.84626 127.797C9.0797 126.578 8.06451 125.214 7.77446 125.132C7.3601 125.008 6.80072 125.297 6.67641 125.421C6.78 125.793 7.67087 128.603 8.23026 130.298C8.8518 132.22 8.8518 132.22 8.8518 132.261C8.8518 132.365 8.74821 132.468 8.6239 132.468C8.64462 132.468 8.64462 132.468 8.6239 132.468Z" fill="#472938"/>
<path d="M5.70258 132.179C5.61971 132.179 5.53683 132.117 5.4954 132.034C3.21642 123.499 3.32001 123.272 3.34073 123.189C3.48575 122.817 4.06586 122.548 4.8117 122.528H4.83242C5.59899 122.528 6.77992 124.367 7.13212 124.925C7.19428 125.028 7.15284 125.152 7.06997 125.214C6.96638 125.276 6.84207 125.235 6.77991 125.152C6.13766 124.098 5.20535 122.941 4.85314 122.941C4.2316 122.962 3.85868 123.189 3.7758 123.313C3.81724 123.85 5.08104 128.727 5.93048 131.91C5.9512 132.013 5.88904 132.137 5.78545 132.158C5.7233 132.158 5.70258 132.179 5.70258 132.179Z" fill="#472938"/>
<path d="M3.79654 123.21C3.77582 123.21 3.7551 123.21 3.73438 123.21C3.63079 123.189 3.54792 123.065 3.58936 122.962C3.81726 122.094 2.92638 121.102 2.90566 121.081C2.82279 120.998 2.84351 120.874 2.92638 120.792C3.00925 120.709 3.13356 120.73 3.21643 120.812C3.25787 120.854 4.27305 121.99 3.983 123.065C3.96228 123.148 3.87941 123.21 3.79654 123.21Z" fill="#472938"/>
<path d="M5.16406 130.174C5.1019 130.174 5.03975 130.153 4.99831 130.091L3.11298 127.467L3.50662 124.181C3.52734 124.078 3.63093 123.995 3.73452 123.995C3.83811 124.016 3.92098 124.119 3.92098 124.222L3.54805 127.343L5.35052 129.843C5.41267 129.926 5.39195 130.071 5.30908 130.133C5.24693 130.174 5.20549 130.174 5.16406 130.174Z" fill="#472938"/>
<path d="M88.0773 52.9252L101.42 56.5417C101.42 56.5417 99.8037 78.0549 102.559 82.498C105.315 86.9412 103.782 97.0468 100.446 102.069C100.446 102.069 95.1007 119.221 96.551 123.251C98.0012 127.281 102.87 136.188 102.87 136.188C102.87 136.188 81.1368 147.182 49.6869 137.407C49.6869 137.407 55.923 124.305 54.9492 119.283C53.9755 114.261 47.2421 100.271 47.325 93.6576C47.4079 87.0445 49.5211 69.3959 46.4341 58.2363L59.7765 53.7932C59.7765 53.7932 60.0044 79.9974 75.1907 79.9974C90.377 79.9974 88.0773 52.9252 88.0773 52.9252Z" fill="#15BE77"/>
<path d="M100.467 102.069C100.467 102.069 98.8094 105.375 88.2847 106.76C88.2847 106.76 98.4158 107.524 97.4006 113.6L100.467 102.069Z" fill="#159F65"/>
<path d="M48.7754 101.139C48.7754 101.139 51.2616 105.788 62.5114 106.842C62.5114 106.842 50.1842 104.982 52.4839 111.719L48.7754 101.139Z" fill="#159F65"/>
<path d="M47.3872 94.8148C47.2836 94.8148 47.1801 94.7321 47.1801 94.6288C47.1593 94.2775 47.1386 93.9675 47.1593 93.6575C47.1801 92.1696 47.3044 90.1443 47.4287 87.7884C47.6151 84.5645 47.843 80.5554 47.9052 76.4429C47.9052 76.3189 47.9881 76.2362 48.1124 76.2362C48.2367 76.2362 48.3196 76.3395 48.3196 76.4429C48.2574 80.5554 48.0295 84.5852 47.843 87.8091C47.698 90.165 47.5944 92.1902 47.5737 93.6782C47.5737 93.9675 47.5737 94.2775 47.5944 94.6081C47.5944 94.6908 47.5115 94.7941 47.3872 94.8148Z" fill="#472938"/>
<path d="M102.559 82.7047C102.497 82.7047 102.414 82.6634 102.373 82.6014C101.461 81.1341 100.922 77.7656 100.777 72.5991C100.777 72.4751 100.86 72.3925 100.985 72.3925C101.088 72.3925 101.192 72.4751 101.192 72.5991C101.337 77.7036 101.855 81.0101 102.725 82.3947C102.787 82.498 102.746 82.622 102.663 82.684C102.642 82.684 102.601 82.7047 102.559 82.7047Z" fill="#472938"/>
<path d="M50.412 135.878C50.412 135.878 62.1177 140.321 75.8123 139.846C89.5069 139.371 116.917 129.492 129.72 131.518C142.524 133.543 141.695 138.978 141.26 141.478C140.825 143.979 114.244 181.487 90.895 181.487H55.115C55.115 181.487 11.1514 153.857 9.72186 145.88C8.29232 137.903 9.32821 133.129 21.5933 132.902C33.8583 132.675 47.1178 134.803 50.412 135.878Z" fill="#232224"/>
<path d="M75.3565 148.05C75.3565 148.05 92.8425 140.796 107.449 138.296C107.449 138.296 116.855 152.845 114.099 165.141C114.078 165.141 80.6396 157.825 75.3565 148.05Z" fill="#FFEDE5"/>
<path d="M75.3565 148.05C75.3565 148.05 117.663 153.568 114.078 165.141C110.494 176.714 75.3565 148.05 75.3565 148.05Z" fill="#E0855C"/>
<path d="M94.3756 168.985C94.3756 168.985 51.0129 172.704 41.5033 174.647C31.9937 176.59 22.3599 175.722 16.476 177.768C10.592 179.813 7.33932 181.384 6.63491 181.467C5.93049 181.549 4.31449 172.436 7.27717 169.212C7.27717 169.212 6.36557 165.926 10.5092 163.384C14.6528 160.842 21.5311 164.19 24.0795 163.384C26.6278 162.578 28.451 161.834 31.165 162.413C33.8791 162.991 40.5088 164.624 40.5088 164.624C40.5088 164.624 74.6521 142.987 94.3756 168.985Z" fill="#FFEDE5"/>
<path d="M40.5295 164.624L66.282 171.609L94.3756 168.985C94.3756 168.985 81.5719 155.841 63.8994 157.06C46.227 158.28 40.5295 164.624 40.5295 164.624Z" fill="#E0855C"/>
<path d="M49.5004 138.647C49.5004 138.647 62.8014 141.334 82.0277 151.377C101.254 161.421 117.165 157.308 122.78 159.251C128.395 161.194 139.044 159.685 140.784 161.194C142.524 162.702 143.664 165.347 142.628 166.484C142.628 166.484 147.269 177.106 146.834 177.809C146.399 178.512 144.783 178.45 144.016 178.284C143.249 178.119 136.495 174.771 128.726 173.386C120.957 172.002 99.5344 169.026 82.4628 168.158C65.3911 167.29 40.5295 165.575 40.5295 165.575C40.5295 165.575 41.1096 144.682 49.5004 138.647Z" fill="#FFEDE5"/>
<path d="M141.219 166.918C140.556 166.918 139.665 166.794 138.526 166.401C138.422 166.36 138.36 166.236 138.401 166.133C138.443 166.029 138.567 165.967 138.671 166.009C141.24 166.918 142.483 166.298 142.503 166.298C142.607 166.236 142.731 166.277 142.773 166.381C142.835 166.484 142.793 166.608 142.69 166.649C142.669 166.649 142.193 166.918 141.219 166.918Z" fill="#472938"/>
<path d="M9.36964 169.853C7.91938 169.853 7.21497 169.398 7.17353 169.377C7.06994 169.315 7.04922 169.191 7.11138 169.088C7.17353 168.985 7.29784 168.964 7.40143 169.026C7.40143 169.026 8.14728 169.481 9.59754 169.419C11.11 169.377 12.7467 168.633 12.7674 168.633C12.871 168.592 12.9953 168.633 13.0367 168.737C13.0782 168.84 13.0367 168.964 12.9331 169.005C12.871 169.047 11.1928 169.77 9.61826 169.832C9.53539 169.853 9.45251 169.853 9.36964 169.853Z" fill="#472938"/>
</svg>
