<svg width="121" height="93" viewBox="0 0 121 93" fill="none" xmlns="http://www.w3.org/2000/svg">
<circle cx="61" cy="46" r="46" fill="white"/>
<path d="M48.2296 42.5407C48.2296 42.5407 50.6937 22.6516 50.1374 15.3879C49.8521 11.6623 48.037 10.8194 45.2627 11.0319C42.4884 11.2444 26.6235 19.62 26.6235 19.62L28.8843 25.0385L42.0783 20.9162C42.0783 20.9162 40.734 28.6544 40.4237 30.1241C40.1135 31.5939 39.4645 33.5736 38.9474 35.3479C38.6942 36.2226 38.3412 37.3559 38.3412 37.9048C38.3483 39.201 48.2296 42.5407 48.2296 42.5407Z" fill="#FFEDE5"/>
<path d="M42.0782 20.9163C43.9182 20.5621 45.7547 19.482 46.3324 18.6214C46.0357 19.5891 45.3808 20.4091 44.4995 20.9163C43.6607 21.4534 42.7724 21.91 41.8464 22.2798L42.0782 20.9163Z" fill="#F28F8F"/>
<path d="M73.2056 42.1865C72.931 41.1736 71.1409 40.1077 65.8062 39.2187C60.4715 38.3298 55.6183 39.2187 55.5897 39.8456C55.5612 40.4724 56.9056 44.662 63.0568 45.427C69.2081 46.192 73.769 44.4106 73.2056 42.1865Z" fill="#263238"/>
<path d="M57.1587 50.796C57.1587 50.796 53.6819 28.3995 54.1811 23.8274C54.6982 19.103 56.5026 16.9108 59.5301 16.6027C63.4847 18.8835 65.5922 24.3338 68.1204 29.7063C70.6487 35.0788 73.3874 46.6028 73.5336 52.1098C73.6798 57.6169 69.2936 61.5409 64.3263 62.2563C59.3589 62.9716 57.1587 50.796 57.1587 50.796Z" fill="#FFEDE5"/>
<path d="M62.6217 33.2619C61.0173 31.981 59.9332 30.1673 59.5693 28.1551L64.5438 26.4339L67.8993 29.2069L67.9992 29.4229C68.042 29.515 68.0848 29.6071 68.1311 29.6992C68.2274 29.9046 68.3237 30.1206 68.42 30.3402C68.4449 30.4039 68.4735 30.4677 68.502 30.535C68.5769 30.705 68.6482 30.8891 68.7231 31.0662L68.798 31.2503C68.8978 31.4947 68.9941 31.7462 69.0939 32.0047C69.1902 32.2632 69.2865 32.5288 69.3828 32.798C69.4042 32.8582 69.4256 32.9149 69.4434 32.9715L69.7001 33.7152C69.7001 33.7506 69.7251 33.7896 69.7394 33.825C69.9391 34.4271 70.1388 35.0504 70.3313 35.6878L70.3634 35.7906C70.4597 36.1057 70.5524 36.4245 70.6451 36.7468C70.6451 36.7468 66.0236 36.088 62.6217 33.2619Z" fill="#F28F8F"/>
<path d="M58.4817 16.7939C60.3717 16.0538 62.6717 17.7856 63.8877 18.5647C66.3589 20.1371 81.4679 31.8312 84.991 34.5723C85.7541 35.0327 86.5315 35.4754 87.3232 35.8933L83.1724 42.3388C82.8315 41.4125 82.2982 40.5679 81.6069 39.8598C77.8413 37.1895 70.5525 35.7339 65.8597 33.9207C62.2082 32.5041 61.445 31.7108 60.2148 29.639C59.2734 27.9993 55.875 18.0193 58.4817 16.7939Z" fill="#FFEDE5"/>
<path d="M57.0839 50.9199L55.5898 39.8456C55.5898 39.8456 56.9305 42.8984 63.8342 43.7023C70.7379 44.5062 73.3803 43.3481 73.2056 42.1865C73.2056 42.1865 75.0099 49.1208 74.311 53.6256C73.6121 58.1304 66.6834 62.9291 66.6834 62.9291L57.0839 50.9199Z" fill="#232224"/>
<path opacity="0.15" d="M60.1399 52.4356C59.5052 52.4356 58.9096 52.4745 58.3569 52.51L66.0309 62.0968H67.8138C69.8036 60.5279 73.7939 57.0006 74.3146 53.6362C74.8281 50.3319 73.9936 45.728 73.5122 43.5039C73.7868 46.0609 68.0278 52.2691 60.1399 52.4356Z" fill="black"/>
<path d="M94.7011 26.5224C92.205 26.062 91.046 27.8505 90.126 29.3273C89.206 30.8041 87.6655 33.5134 86.9773 33.9702C86.2891 34.4271 85.9075 33.9702 84.9269 34.7033C83.9462 35.4364 83.2295 36.8282 83.5326 37.3347L84.2458 38.5671C83.8346 38.5224 83.4185 38.5744 83.0314 38.719C82.6442 38.8636 82.2967 39.0966 82.017 39.3994C80.9473 40.4618 81.5035 40.6389 82.1062 41.2409C82.7088 41.843 84.1245 44.5629 85.5438 45.303C85.5438 45.303 89.3665 44.1662 92.1372 39.8597C94.908 35.5533 94.7011 26.5224 94.7011 26.5224Z" fill="#15BE77"/>
<path d="M86.3319 45.8732C86.1856 45.8474 86.0464 45.7916 85.9231 45.7094C85.7997 45.6272 85.695 45.5204 85.6155 45.3958C85.536 45.2712 85.4835 45.1316 85.4613 44.9857C85.4391 44.8399 85.4478 44.691 85.4867 44.5487C85.9091 43.2207 86.5436 41.9688 87.366 40.8407C88.3252 39.4879 90.1225 36.9451 90.4256 35.5533C90.7287 34.1614 91.3813 30.2622 92.4475 28.6296C93.5137 26.997 94.6084 26.0549 96.0134 26.5826C97.4184 27.1103 92.9824 37.5613 91.6808 39.332C90.3792 41.1028 86.3319 45.8732 86.3319 45.8732Z" fill="#37474F"/>
<path d="M87.1519 45.6466C90.6643 43.7873 91.8197 41.9811 92.8574 39.626C93.8951 37.2709 96.32 35.1 96.9476 32.9857C97.5752 30.8714 97.6394 25.4494 95.2252 26.7633C92.8111 28.0772 92.3083 32.9255 91.2492 35.7268C90.1901 38.5282 83.7072 47.4775 87.1519 45.6466Z" fill="#232224"/>
<path d="M66.0415 51.3732C67.6462 51.1288 70.7308 51.7875 73.5301 55.669C76.5362 59.8373 77.096 67.1116 75.2096 67.7101C75.2096 67.7101 70.8378 67.2001 67.8352 65.6383C64.8327 64.0765 59.7869 53.5264 66.0415 51.3732Z" fill="#263238"/>
<path d="M117.32 86.0799C112.663 84.2632 108.851 81.1395 105.552 77.6476C102.899 74.0707 91.531 58.7537 89.559 56.5969C88.8458 55.8319 87.1555 53.8629 84.8127 53.3706C76.5183 51.5998 61.1597 51.8619 61.1597 51.8619L55.2545 50.8738L43.4868 61.8738C45.1094 63.5914 47.1455 65.0894 50.1231 66.63C53.1007 68.1706 56.3207 69.2897 60.6641 68.9249C69.3579 68.1953 74.5713 65.7552 79.2249 64.6751C80.5728 64.3634 81.9706 64.0766 83.0297 66.2723C84.0888 68.468 84.1744 69.5694 87.3089 71.9033C91.3277 74.8994 97.964 78.2497 100.86 81.8195C101.336 82.6946 101.621 83.6603 101.694 84.6527C101.969 88.4173 105.149 87.6772 107.713 89.3133C109.111 90.2058 110.149 91.2895 111.832 91.6578C113.364 91.9709 114.948 91.9419 116.468 91.5728C117.837 91.2505 119.798 90.2695 120.472 88.945C121.357 87.1813 118.661 86.6005 117.32 86.0799Z" fill="#FFEDE5"/>
<path d="M117.32 86.0799C112.663 84.2632 108.851 81.1395 105.552 77.6476C102.899 74.0707 91.531 58.7537 89.559 56.5969C88.8458 55.8319 87.1555 53.8629 84.8127 53.3706C76.5183 51.5998 61.1597 51.8619 61.1597 51.8619L55.2545 50.8738L43.4868 61.8738C45.1094 63.5914 47.1455 65.0894 50.1231 66.63C53.1007 68.1706 56.3207 69.2897 60.6641 68.9249C69.3579 68.1953 74.5713 65.7552 79.2249 64.6751C80.5728 64.3634 81.9706 64.0766 83.0297 66.2723C84.0888 68.468 84.1744 69.5694 87.3089 71.9033C91.3277 74.8994 97.964 78.2497 100.86 81.8195C101.336 82.6946 101.621 83.6603 101.694 84.6527C101.969 88.4173 105.149 87.6772 107.713 89.3133C109.111 90.2058 110.149 91.2895 111.832 91.6578C113.364 91.9709 114.948 91.9419 116.468 91.5728C117.837 91.2505 119.798 90.2695 120.472 88.945C121.357 87.1813 118.661 86.6005 117.32 86.0799Z" fill="#FFEDE5"/>
<path d="M87.0414 70.1183C86.1585 69.1464 85.4883 68.0032 85.073 66.761C84.7539 65.7226 84.3435 64.7141 83.8463 63.7471C82.3985 61.2681 72.7919 64.4307 68.5377 65.7268C68.2988 66.081 67.3003 67.1435 66.9437 68.0288C72.0965 66.9841 75.8051 65.4648 79.2177 64.6715C80.5656 64.3598 81.9635 64.073 83.0226 66.2687C84.0817 68.4644 84.1673 69.5658 87.3017 71.8997C88.9349 73.118 90.9996 74.3787 93.0715 75.721C90.7571 73.9361 89.0134 72.1476 87.0414 70.1183Z" fill="#F28F8F"/>
<path d="M56.1674 50.8738C56.1674 50.8738 64.608 51.2847 66.0415 51.3874C66.0415 51.3874 62.8643 52.2373 66.7298 59.9968C70.5953 67.7562 75.2132 67.7137 75.2132 67.7137C69.151 69.6403 66.0023 71.8041 58.2749 70.9011C49.064 69.5801 43.4797 62.7308 43.4797 62.7308L56.1674 50.8738Z" fill="#232224"/>
<path opacity="0.15" d="M75.1918 67.7136C75.1217 67.7181 75.0514 67.7181 74.9814 67.7136V67.7136C74.2932 67.6357 72.2463 67.1895 69.9534 64.7636C68.1333 65.2457 66.2866 65.6229 64.4226 65.8933C57.5332 66.8956 52.3661 65.6879 44.6672 61.6116L43.4797 62.7237C46.5351 66.1457 50.4546 68.6959 54.8337 70.1112V70.1112C55.1012 70.1927 55.3758 70.2742 55.6539 70.3485C55.9142 70.4158 56.1781 70.4831 56.442 70.5433L56.5133 70.561C56.7558 70.6177 57.0054 70.6673 57.255 70.7168L57.387 70.7416C57.6794 70.7983 57.9718 70.8479 58.2713 70.8904C58.7563 70.947 59.2199 70.9895 59.6692 71.025C60.1185 71.0604 60.55 71.0781 60.9707 71.0922H61.5877C61.7909 71.0922 61.9906 71.0922 62.1867 71.0922C62.7751 71.0922 63.335 71.0462 63.8734 70.9931C64.23 70.9577 64.5795 70.9152 64.9218 70.8656C65.7463 70.7415 66.563 70.5713 67.3681 70.3556C67.6819 70.2706 67.9921 70.1821 68.2988 70.0864C69.0726 69.8527 69.8357 69.5906 70.6202 69.3073L71.5723 68.9532C72.6992 68.5424 73.8831 68.1103 75.2096 67.6889L75.1918 67.7136Z" fill="black"/>
<path d="M27.9428 40.3096C24.5123 41.4924 21.2709 43.5607 24.0202 49.6131C27.9428 58.3535 45.7226 68.0573 54.8515 70.1184C50.2157 63.1523 54.0741 55.7682 57.1016 50.9199L56.285 44.9985C56.285 44.9985 53.5463 43.6917 49.0104 40.2104C44.4745 36.7291 42.5917 35.7835 35.8414 37.8234C31.2021 39.2259 27.9428 40.3096 27.9428 40.3096Z" fill="#15BE77"/>
<path opacity="0.05" d="M41.8394 60.064C32.5037 54.7518 29.569 50.0203 25.9067 45.4766L23.5104 48.3806C23.5746 48.5683 23.6459 48.7595 23.7243 48.9579C23.723 48.9684 23.723 48.9792 23.7243 48.9897C23.8028 49.1916 23.8919 49.4005 23.9882 49.613C25.7284 53.4379 30.0967 57.4468 35.2317 60.9352C35.9449 61.431 36.7151 61.9162 37.4711 62.3872C37.8527 62.6245 38.2342 62.8583 38.6193 63.0955C41.2308 64.6484 43.934 66.0439 46.7141 67.2745C49.3224 68.4704 52.0387 69.419 54.8266 70.1077C53.8112 68.609 53.1326 66.9107 52.8368 65.1284C49.5918 64.158 46.1114 62.497 41.8394 60.064Z" fill="black"/>
<path d="M25.3682 41.4959C25.3682 41.4959 13.8537 35.3833 12.0315 34.5581L22.1089 28.6828L19.9694 23.1686C19.9694 23.1686 4.99234 28.4561 2.13957 29.9754C0.645438 30.7793 0 31.4416 0 32.582C0 34.4837 1.8222 36.9486 4.3469 39.0842C9.71366 43.6279 16.9953 47.86 24.088 51.7273C25.7141 52.9244 27.4044 54.4295 27.4044 54.4295C29.2694 55.3574 31.9831 46.794 25.3682 41.4959Z" fill="#FFEDE5"/>
<path d="M36.1482 20.2504C35.4289 18.5922 34.0758 17.2856 32.3866 16.6181C30.6973 15.9506 28.8103 15.9769 27.1406 16.6912C25.4708 17.4055 24.1552 18.7493 23.4831 20.427C22.811 22.1047 22.8375 23.9788 23.5568 25.6371C23.6031 25.7504 23.6602 25.8531 23.7137 25.9593L21.9735 29.7204L19.4024 25.0138C19.4035 24.643 19.2658 24.2851 19.016 24.0096C18.7662 23.7341 18.4223 23.5606 18.0509 23.5228C17.8626 23.5068 17.673 23.5291 17.4936 23.5881C17.3142 23.6472 17.1487 23.7419 17.0073 23.8665C16.8659 23.991 16.7515 24.1428 16.671 24.3126C16.5904 24.4825 16.5455 24.6668 16.539 24.8544L18.5038 25.0244C18.0727 25.3084 17.7421 25.7197 17.5588 26.2002C17.0917 27.4114 18.7178 29.8798 20.8966 32.0472C20.8966 32.0472 23.9811 36.3714 24.73 36.977C25.2125 37.3417 25.8174 37.509 26.4202 37.4444L26.6057 28.9448C27.8581 29.6162 29.29 29.8834 30.7025 29.7094C32.1149 29.5354 33.4376 28.9288 34.487 27.9739C35.5363 27.0189 36.2601 25.7631 36.5578 24.3809C36.8555 22.9987 36.7123 21.5587 36.1482 20.2611V20.2504Z" fill="#263238"/>
<path d="M23.4889 31.1866C23.2036 31.5797 22.3335 31.0804 21.6453 30.79C20.9571 30.4996 19.1135 30.4889 19.0421 32.4403C18.9708 34.3917 21.385 35.9818 22.7721 35.8366C25.1613 35.5922 24.9117 34.1154 24.9117 34.1154L28.4206 41.8324C32.4822 44.0423 40.042 40.5645 35.5061 38.3794L34.5041 36.088C35.3711 35.8567 36.2086 35.5275 37.0003 35.107C38.4267 34.2075 38.8938 32.5784 38.6406 30.712C38.2377 27.7195 37.5708 25.4387 34.6681 20.4417C31.4588 14.9807 24.6835 17.8068 22.0375 21.6422C19.3916 25.4777 23.4889 31.1866 23.4889 31.1866Z" fill="#FFEDE5"/>
<path d="M23.7707 31.8418C23.5781 31.9303 22.3122 31.0308 21.6311 30.8006C20.7075 30.4854 19.2062 24.6809 19.2062 24.6809C19.2062 24.6809 17.9795 23.6007 18.6535 21.6529C19.2062 20.0557 21.246 18.9861 22.6581 18.2778C25.2042 16.9993 28.0534 15.5438 29.3014 12.8664C29.4013 12.6539 29.5439 12.4131 29.7793 12.4095C29.8524 12.416 29.9235 12.4369 29.9884 12.4709C30.0533 12.505 30.1107 12.5515 30.1573 12.6079C30.7452 13.2633 31.0767 14.1066 31.0916 14.9842C31.0916 15.0657 31.1165 15.1684 31.1985 15.1932C31.2806 15.218 31.3412 15.1507 31.3911 15.0905C31.65 14.7755 31.8472 14.4151 31.9724 14.028C32.1435 13.5003 33.0421 14.8426 33.1063 15.0267C33.3166 15.6093 33.4072 16.2279 33.3729 16.8459C33.3386 17.4638 33.1801 18.0687 32.9066 18.6249C32.3503 19.7334 31.2057 20.4204 30.1573 21.026C27.8216 22.3789 23.8277 23.668 23.2714 23.8203C22.5154 24.0292 22.6616 24.7836 23.0896 26.827C23.4818 28.6332 24.4161 31.5408 23.7707 31.8418Z" fill="#263238"/>
<path d="M34.5042 36.088C34.5042 36.088 30.332 36.9628 28.8486 36.853C27.9783 36.7902 27.1477 36.4667 26.4665 35.9251C26.9507 36.5495 27.5572 37.0699 28.2495 37.455C29.6188 38.1988 34.8965 37.0124 34.8965 37.0124L34.5042 36.088Z" fill="#F28F8F"/>
<path d="M27.9856 25.3042L26.7446 26.6499C26.5659 26.4773 26.4612 26.2427 26.4526 25.9952C26.444 25.7477 26.532 25.5064 26.6983 25.3219C26.7808 25.2354 26.8799 25.1661 26.9898 25.1183C27.0997 25.0704 27.2182 25.0449 27.3382 25.0433C27.4582 25.0416 27.5773 25.0639 27.6885 25.1087C27.7996 25.1535 27.9007 25.22 27.9856 25.3042V25.3042Z" fill="#263238"/>
<path d="M31.9831 32.1783L33.8196 32.0933C33.8308 32.2132 33.8175 32.3342 33.7806 32.449C33.7436 32.5638 33.6837 32.67 33.6045 32.7612C33.5252 32.8525 33.4283 32.9269 33.3194 32.9801C33.2106 33.0333 33.092 33.0641 32.9709 33.0707C32.722 33.0777 32.4801 32.9886 32.2959 32.8222C32.1117 32.6558 31.9996 32.425 31.9831 32.1783V32.1783Z" fill="#F28F8F"/>
<path d="M35.5384 23.1686L33.7554 22.7153C33.7796 22.5974 33.8277 22.4856 33.8968 22.3867C33.9658 22.2878 34.0544 22.2038 34.1571 22.1399C34.2598 22.076 34.3745 22.0334 34.4942 22.0149C34.614 21.9963 34.7363 22.0021 34.8537 22.0318C35.0921 22.0992 35.2957 22.2542 35.4229 22.4655C35.5501 22.6767 35.5914 22.9282 35.5384 23.1686V23.1686Z" fill="#263238"/>
<path d="M31.7334 25.9417L32.9494 30.2871L35.089 28.998L31.7334 25.9417Z" fill="#F28F8F"/>
<path d="M28.3493 27.8895C28.35 28.0462 28.3975 28.1993 28.4857 28.3293C28.5739 28.4592 28.6989 28.5604 28.8449 28.6199C28.9909 28.6794 29.1514 28.6946 29.3061 28.6636C29.4608 28.6326 29.6028 28.5567 29.7142 28.4456C29.8255 28.3346 29.9012 28.1932 29.9318 28.0394C29.9623 27.8856 29.9463 27.7263 29.8857 27.5816C29.8252 27.4368 29.7228 27.3131 29.5915 27.2261C29.4602 27.1391 29.3059 27.0927 29.1481 27.0927C29.0429 27.0927 28.9387 27.1133 28.8416 27.1534C28.7445 27.1935 28.6562 27.2522 28.582 27.3263C28.5078 27.4003 28.449 27.4882 28.4091 27.5848C28.3692 27.6815 28.3489 27.785 28.3493 27.8895V27.8895Z" fill="#263238"/>
<path d="M34.1298 25.6406C34.1291 25.7929 34.1739 25.942 34.2587 26.0689C34.3435 26.1959 34.4643 26.2949 34.6058 26.3535C34.7473 26.4121 34.9032 26.4276 35.0537 26.3981C35.2041 26.3686 35.3423 26.2953 35.4507 26.1876C35.5592 26.0799 35.633 25.9426 35.6627 25.7932C35.6924 25.6438 35.6768 25.489 35.6178 25.3485C35.5588 25.2079 35.4591 25.0879 35.3313 25.0037C35.2035 24.9195 35.0534 24.875 34.9 24.8757C34.696 24.8766 34.5007 24.9575 34.3564 25.1008C34.2122 25.244 34.1307 25.4381 34.1298 25.6406V25.6406Z" fill="#263238"/>
<path d="M101.23 85.4425C100.927 85.6479 101.398 86.9441 101.673 87.2628C102.245 87.815 102.951 88.2104 103.723 88.4103C105.127 88.8373 106.439 89.5194 107.592 90.4219C109.014 91.5655 110.669 92.3906 112.442 92.8407C114.546 93.3046 116.978 92.7132 119.099 91.4631C121.325 90.1562 121.118 88.9026 120.815 88.0668L101.23 85.4425Z" fill="#232224"/>
<path d="M106.044 78.1682C106.758 78.919 110.637 82.7297 113.615 83.7C115.986 84.4721 119.071 85.2087 120.422 86.643C121.827 88.1376 119.734 90.05 116.856 91.1478C113.854 92.2882 111.814 91.3674 109.821 90.3722C108.419 89.6639 106.355 88.2473 105.317 87.6772C104.279 87.107 102.357 86.7953 101.555 85.9489C101.113 85.4814 100.795 84.1781 100.603 83.0342C100.428 81.9718 99.7219 81.012 100.082 80.9554L100.667 81.5893C103.377 82.0851 106.201 79.599 106.044 78.1682Z" fill="#15BE77"/>
<path d="M12.0316 34.5582C10.3227 35.475 8.47719 36.1146 6.56497 36.4529C6.56497 36.4529 9.59247 37.2072 13.1941 35.1354L12.0316 34.5582Z" fill="#F28F8F"/>
</svg>
