<svg width="50" height="50" viewBox="0 0 50 50" fill="none" xmlns="http://www.w3.org/2000/svg">
<circle opacity="0.3" cx="25" cy="25" r="25" fill="url(#paint0_linear_50_2341)"/>
<mask id="mask0_50_2341" style="mask-type:alpha" maskUnits="userSpaceOnUse" x="0" y="0" width="50" height="50">
<circle cx="25" cy="25" r="25" fill="#C4C4C4"/>
</mask>
<g mask="url(#mask0_50_2341)">
<path d="M33.0843 11.2443C33.0843 11.2443 33.0843 11.4052 33.0602 11.6787C32.9838 12.849 32.7224 16.1428 32.1231 18.0169C31.9542 18.5398 31.4274 19.7744 30.808 21.174C29.8991 23.2733 28.7891 25.6864 28.3668 26.7521C28.2301 27.098 26.9029 26.4425 26.549 26.3781C25.6562 26.2052 25.5476 24.6126 25.8372 23.2733C25.9309 22.8045 26.1021 22.3546 26.3439 21.9421L26.4203 21.8255L26.4726 21.7491C26.9632 21.0332 27.7636 20.1082 28.4835 19.2677C29.0162 18.6865 29.4891 18.0533 29.8951 17.3775C30.2973 16.5208 31.5882 11.3931 31.5882 11.3931C32.1955 10.7336 33.0843 11.2443 33.0843 11.2443Z" fill="#FFEDE5"/>
<path d="M33.2533 10.6893C33.209 10.8824 33.1728 11.0674 33.1447 11.2162C33.0924 11.4897 33.0683 11.6707 33.0683 11.6707C32.6178 12.1412 31.7411 11.6707 31.7411 11.6707C31.6814 11.5902 31.6276 11.5055 31.5802 11.4173C31.3386 11.002 31.2424 10.518 31.3068 10.0418C31.3711 9.67587 31.4355 8.83533 31.4355 8.83533H31.5963C31.7652 8.83533 31.8175 9.35815 31.8296 9.60348C31.8327 9.63692 31.8327 9.67058 31.8296 9.70402C31.8388 9.66074 31.8566 9.61972 31.8819 9.58337C31.9354 9.51853 32.0043 9.46804 32.0822 9.43645C32.1601 9.40485 32.2447 9.39315 32.3283 9.40239C32.5334 9.40239 32.7305 9.40239 32.9396 9.40239C33.0338 9.40038 33.1273 9.41962 33.2131 9.4587C33.2437 9.47132 33.2712 9.49055 33.2935 9.515C33.563 9.78848 33.3257 10.4038 33.2533 10.6893Z" fill="#FFEDE5"/>
<path d="M33.2532 10.6893C33.209 10.8824 33.1728 11.0674 33.1446 11.2162C33.1131 11.1682 33.0782 11.1225 33.0401 11.0794C32.8626 10.9072 32.6537 10.7707 32.4248 10.6773C32.1674 10.5405 31.4595 10.1384 31.6767 9.73216C31.7136 9.67675 31.7671 9.6345 31.8295 9.61151L31.8899 9.5914C32.2227 9.54125 32.5587 9.51437 32.8953 9.51097C33.0039 9.51097 33.1125 9.47477 33.2211 9.46271C33.2511 9.47631 33.2784 9.49541 33.3015 9.51901C33.5629 9.78847 33.3256 10.4038 33.2532 10.6893Z" fill="#E0855C"/>
<path d="M27.112 18.2663C27.244 17.5101 27.4295 16.7642 27.667 16.0342C27.6965 15.9556 27.7052 15.8708 27.6925 15.7878C27.6798 15.7048 27.646 15.6265 27.5943 15.5603C27.5427 15.4941 27.4749 15.4423 27.3975 15.4098C27.3201 15.3773 27.2357 15.3652 27.1523 15.3747C26.9803 15.4048 26.8128 15.4561 26.6536 15.5275C26.6536 15.5275 27.0557 14.3692 26.4887 13.9872C25.9216 13.6051 25.0811 14.3371 24.7553 14.884C24.8184 14.7671 24.836 14.6309 24.8048 14.5018C24.7736 14.3726 24.6959 14.2595 24.5864 14.1842C24.1842 13.9268 22.3865 15.9096 22.7404 17.5384C23.0943 19.1672 23.2431 18.7087 23.2431 18.7087C23.2431 18.7087 26.9994 18.4754 27.112 18.2663Z" fill="#151416"/>
<path d="M23.1426 18.0048C23.1027 17.95 23.0504 17.9054 22.9899 17.8746C22.9294 17.8439 22.8626 17.8278 22.7947 17.8278C22.7269 17.8278 22.66 17.8439 22.5996 17.8746C22.5391 17.9054 22.4868 17.95 22.4469 18.0048C22.097 18.407 22.6922 19.2114 23.1426 19.2596C23.1691 18.8418 23.1691 18.4227 23.1426 18.0048Z" fill="#E0855C"/>
<path d="M29.6297 22.8712C29.0958 24.1323 28.6733 25.4376 28.3668 26.7723C28.3427 26.901 28.3186 27.0217 28.2985 27.1383C28.1657 27.9426 27.7636 31.9081 27.6992 32.5314C27.6992 32.5837 27.6992 32.6119 27.6992 32.6119C24.5502 33.4806 21.2644 32.6119 21.2644 32.6119C21.2644 32.6119 21.2644 32.5516 21.2644 32.4349C21.192 31.6627 20.8824 28.4574 20.6974 25.6864C20.6008 24.2708 20.5405 22.9718 20.5566 22.1634C20.5566 21.8658 21.2483 21.898 21.7229 21.8296C22.2926 21.7565 22.8659 21.7162 23.4402 21.7089H23.6172L23.6574 21.2464L23.6895 20.9368L23.766 20.1083C23.8182 20.1083 23.8705 20.1284 23.9228 20.1324C24.0237 20.1509 24.1259 20.1617 24.2285 20.1646C24.3529 20.1747 24.478 20.1747 24.6025 20.1646L24.7794 20.1445C24.8578 20.1367 24.9357 20.1246 25.0127 20.1083C25.1414 20.0801 25.2661 20.0439 25.3827 20.0078L25.4873 19.9716H25.5154L25.5958 19.9394C25.7459 19.8796 25.8911 19.8084 26.0302 19.7262C26.1066 19.682 26.171 19.6377 26.2232 19.6016L26.2594 19.5774L26.3278 19.5251C26.3469 19.5158 26.3634 19.502 26.3761 19.4849C26.3761 19.5453 26.3761 19.5694 26.3761 19.5975C26.3399 19.8589 26.3037 20.1968 26.2876 20.5346C26.2876 20.7638 26.2635 20.9931 26.2554 21.1942C26.2554 21.536 26.2554 21.7854 26.2554 21.7854C26.3304 21.7814 26.4056 21.7814 26.4806 21.7854C26.4843 21.7832 26.4885 21.7821 26.4927 21.7821C26.4969 21.7821 26.5011 21.7832 26.5048 21.7854C26.8327 21.8007 27.1592 21.8383 27.482 21.898C28.2234 22.0312 28.9362 22.291 29.5894 22.6661C29.6188 22.6904 29.6389 22.7241 29.6462 22.7615C29.6535 22.7989 29.6477 22.8377 29.6297 22.8712Z" fill="#FFEDE5"/>
<path d="M26.368 19.4487C26.3145 19.7369 26.1974 20.0096 26.0254 20.2469C25.8534 20.4842 25.6307 20.6803 25.3735 20.8208C25.1162 20.9614 24.8309 21.0429 24.5383 21.0595C24.2456 21.076 23.953 21.0273 23.6815 20.9167L23.7579 20.0882C24.2134 20.176 24.6824 20.1644 25.1329 20.054C25.5835 19.9436 26.0048 19.7372 26.368 19.4487Z" fill="#E0855C"/>
<path d="M23.2431 16.7984C23.0099 17.0357 22.9938 17.5786 22.9737 18.1738C22.9134 19.9796 23.4563 20.5466 24.3773 20.6432C25.2982 20.7397 26.2675 20.3898 26.4645 18.7127C26.5651 17.8762 26.6697 17.104 26.368 16.738C25.8935 16.1991 23.9309 16.0584 23.2431 16.7984Z" fill="#FFEDE5"/>
<path d="M26.3158 18.4714C26.3158 18.4714 26.6013 17.7233 27.0437 18.1215C27.4861 18.5196 26.8627 19.6538 26.1951 19.5653C26.1951 19.5653 26.0986 18.7288 26.3158 18.4714Z" fill="#FFEDE5"/>
<path d="M26.8386 18.4473C26.7345 18.4834 26.6407 18.5441 26.5651 18.6243C26.4831 18.6946 26.4161 18.7808 26.3681 18.8776C26.3681 18.9098 26.3962 18.9259 26.4203 18.9098C26.4445 18.8937 26.5209 18.7891 26.5772 18.7328C26.6114 18.7772 26.6555 18.813 26.7059 18.8374C26.7151 18.8389 26.7246 18.8379 26.7334 18.8344C26.7421 18.831 26.7497 18.8253 26.7555 18.8179C26.7612 18.8105 26.7649 18.8017 26.7661 18.7924C26.7673 18.7831 26.7659 18.7736 26.7622 18.765C26.7342 18.7236 26.697 18.6892 26.6536 18.6645C26.7288 18.615 26.8 18.5599 26.8668 18.4996C26.8708 18.4947 26.8732 18.4886 26.8738 18.4823C26.8744 18.476 26.8731 18.4697 26.8701 18.4641C26.8671 18.4585 26.8625 18.4539 26.8569 18.4509C26.8513 18.4479 26.8449 18.4467 26.8386 18.4473Z" fill="#E0855C"/>
<path d="M23.7459 18.1296C23.7459 18.1296 23.589 18.1899 23.6132 17.9124C23.6373 17.6349 23.7459 17.6993 23.7459 17.6993C23.7459 17.6993 23.8545 17.6993 23.8384 17.9164C23.8223 18.1336 23.7459 18.1296 23.7459 18.1296Z" fill="#3B2645"/>
<path d="M25.3304 18.1296C25.3304 18.1296 25.1736 18.1899 25.1977 17.9124C25.2218 17.6349 25.3304 17.6993 25.3304 17.6993C25.3304 17.6993 25.439 17.6993 25.4229 17.9164C25.4068 18.1336 25.3304 18.1296 25.3304 18.1296Z" fill="#3B2645"/>
<path d="M24.4497 18.8696C24.3733 18.8696 24.1923 18.9017 24.1521 18.8173C24.1677 18.6255 24.2068 18.4364 24.2687 18.2542C24.343 18.0085 24.4035 17.7587 24.4497 17.5062C24.4497 17.5062 24.4497 17.4861 24.4215 17.5062C24.2625 17.9437 24.1375 18.3928 24.0475 18.8495C24.0464 18.855 24.0464 18.8608 24.0476 18.8664C24.0489 18.8719 24.0513 18.8772 24.0547 18.8818C24.0581 18.8863 24.0625 18.8901 24.0675 18.8929C24.0725 18.8956 24.078 18.8973 24.0837 18.8977C24.2003 18.8977 24.313 18.9218 24.4296 18.9218C24.4859 18.9379 24.498 18.8736 24.4497 18.8696Z" fill="#E0855C"/>
<path d="M23.9188 17.293C23.8062 17.2327 23.597 17.2206 23.5166 17.3373C23.5138 17.3422 23.5123 17.3478 23.5123 17.3534C23.5123 17.3591 23.5138 17.3647 23.5167 17.3696C23.5195 17.3745 23.5236 17.3785 23.5286 17.3813C23.5335 17.3841 23.5391 17.3856 23.5448 17.3855C23.6011 17.3855 23.6493 17.3574 23.7056 17.3534C23.7646 17.3505 23.8235 17.3601 23.8786 17.3815C23.9308 17.3976 23.967 17.3172 23.9188 17.293Z" fill="#3B2645"/>
<path d="M25.5637 17.4298C25.4993 17.2689 25.2218 17.2528 25.1052 17.3534C25.0984 17.3567 25.0927 17.3618 25.0886 17.3682C25.0846 17.3746 25.0825 17.382 25.0825 17.3896C25.0825 17.3971 25.0846 17.4045 25.0886 17.4109C25.0927 17.4173 25.0984 17.4225 25.1052 17.4258C25.1736 17.4499 25.2459 17.4258 25.3183 17.4258C25.3768 17.4352 25.4337 17.4528 25.4873 17.4781C25.5395 17.4941 25.5757 17.4579 25.5637 17.4298Z" fill="#3B2645"/>
<path d="M24.0475 19.4286C24.3929 19.4739 24.7438 19.4122 25.0529 19.2516C25.0067 19.3586 24.9389 19.4548 24.8537 19.5344C24.7686 19.614 24.6681 19.6751 24.5583 19.7141C24.2084 19.8187 24.0475 19.4286 24.0475 19.4286Z" fill="white"/>
<path d="M23.4 26.3781C23.0541 26.4425 21.4656 26.6194 21.184 26.3781C20.982 26.1765 20.8148 25.9428 20.6894 25.6864C20.0452 24.3296 19.4825 22.9356 19.0043 21.5118C18.4653 19.9916 18.0069 18.5759 17.8339 18.037C17.2106 16.1428 16.9693 12.845 16.8928 11.6746C16.8727 11.4012 16.8647 11.2443 16.8647 11.2443C16.8647 11.2443 17.7455 10.7456 18.3728 11.4012C18.3728 11.4012 19.6839 16.5329 20.07 17.3895C20.3942 17.9478 20.7757 18.4707 21.2082 18.95C21.9522 19.8428 22.8691 20.8884 23.4322 21.6888L23.5368 21.8376L23.6132 21.9542C23.9677 22.5972 24.179 23.3092 24.2325 24.0415C24.3371 25.1515 24.132 26.2374 23.4 26.3781Z" fill="#FFEDE5"/>
<path d="M18.3728 11.4012C18.3254 11.4894 18.2717 11.5741 18.2119 11.6545C18.2119 11.6545 17.3392 12.1372 16.8928 11.6747C16.8928 11.6747 16.8727 11.55 16.8365 11.3569C16.8003 11.1639 16.7601 10.9548 16.6998 10.6893C16.6515 10.4963 16.3378 9.72813 16.4987 9.59139C16.5372 9.56535 16.5813 9.54881 16.6274 9.54313L17.1663 9.44661C17.476 9.39031 17.9948 9.30585 18.1194 9.69596C18.1194 9.47074 18.1194 8.93987 18.3527 8.82324H18.5216C18.5216 8.82324 18.5819 9.6477 18.6463 10.0298C18.7098 10.5046 18.6136 10.987 18.3728 11.4012Z" fill="#FFEDE5"/>
<path d="M20.6491 33.3277C20.6491 33.3277 18.9841 37.82 18.9158 46.3179C18.9158 46.9936 17.6007 51.6709 18.1114 58.2062L20.07 58.5762C20.07 58.5762 21.9683 51.6749 22.0527 46.9654C22.0527 46.9654 24.4658 38.6083 24.6307 34.7635C24.7956 30.9187 22.2377 29.672 20.6491 33.3277Z" fill="#FFEDE5"/>
<path d="M28.2381 33.3277C28.2381 33.3277 29.9031 37.82 29.9675 46.3179C29.9675 46.9936 31.2866 51.6709 30.7718 58.2062L28.8133 58.5762C28.8133 58.5762 26.919 51.6749 26.8305 46.9654C26.8305 46.9654 24.4175 38.6083 24.2526 34.7635C24.0877 30.9187 26.6496 29.672 28.2381 33.3277Z" fill="#FFEDE5"/>
<path d="M30.808 21.174C29.8991 23.2734 28.7932 25.6864 28.3669 26.7522C28.3427 26.8809 28.3186 27.0015 28.2985 27.1182C28.1658 27.9225 27.7636 31.8879 27.6992 32.5113C26.6094 32.8451 24.3934 33.2393 21.2645 32.4148C21.1921 31.6426 20.8824 28.4373 20.6974 25.6663C20.0532 24.3095 19.4905 22.9155 19.0123 21.4918C19.7644 21.0172 20.818 20.1686 21.2162 18.95C21.9602 19.8428 22.8772 20.8885 23.4402 21.6888H23.5207C23.5207 21.7331 23.5207 21.7853 23.5448 21.8376C23.6452 22.6075 23.8807 23.3536 24.2405 24.0415C24.2926 24.1375 24.3662 24.2201 24.4555 24.2829C24.5448 24.3457 24.6474 24.3869 24.7553 24.4035C25.1575 24.4035 25.5396 23.8967 25.8452 23.2854C26.0744 22.8176 26.2693 22.3337 26.4284 21.8376L26.4565 21.7612C26.4602 21.7591 26.4644 21.758 26.4686 21.758C26.4728 21.758 26.477 21.7591 26.4807 21.7612C26.9713 21.0453 27.7716 20.1203 28.4915 19.2798C28.8736 19.8268 29.7905 20.9207 30.808 21.174Z" fill="url(#paint1_linear_50_2341)"/>
<path d="M30.056 42.4852C28.9996 43.0354 27.8077 43.2713 26.6214 43.1649C26.2034 43.1293 25.795 43.0204 25.4149 42.8431L24.4497 37.454L23.5126 42.8431C21.4776 43.5791 18.6865 42.2359 18.6865 42.2359C19.5753 33.5207 21.2323 32.2137 21.2323 32.2137C23.963 33.1025 27.7233 32.2418 27.7233 32.2418C29.6498 34.8278 30.056 42.4852 30.056 42.4852Z" fill="#232224"/>
<path d="M16.8727 11.3369H16.8365C16.8044 11.1639 16.7601 10.9347 16.6998 10.6693C16.6515 10.4762 16.3419 9.71208 16.4987 9.57132C16.5375 9.54592 16.5815 9.52944 16.6274 9.52306L17.1663 9.42654C17.3946 9.36832 17.6338 9.36832 17.8621 9.42654C17.9705 9.47694 18.0614 9.55864 18.1231 9.66113C18.1847 9.76363 18.2143 9.88222 18.208 10.0016C18.208 10.7256 17.0618 11.2363 16.8727 11.3369Z" fill="#E0855C"/>
<path d="M38.4493 9.79247H10.2328C10.1686 9.78452 10.1094 9.75335 10.0665 9.70483C10.0237 9.65632 10 9.5938 10 9.52905C10 9.4643 10.0237 9.40178 10.0665 9.35327C10.1094 9.30475 10.1686 9.27358 10.2328 9.26562H38.4493C38.5136 9.27358 38.5727 9.30475 38.6156 9.35327C38.6585 9.40178 38.6822 9.4643 38.6822 9.52905C38.6822 9.5938 38.6585 9.65632 38.6156 9.70483C38.5727 9.75335 38.5136 9.78452 38.4493 9.79247Z" fill="#3B2645"/>
<path d="M11.1297 10.8784C11.0109 10.8784 10.897 10.8315 10.8126 10.7479C10.7282 10.6643 10.6803 10.5507 10.6793 10.432V8.62622C10.6793 8.50675 10.7267 8.39218 10.8112 8.30771C10.8957 8.22324 11.0102 8.17578 11.1297 8.17578C11.2492 8.17578 11.3637 8.22324 11.4482 8.30771C11.5327 8.39218 11.5801 8.50675 11.5801 8.62622V10.432C11.5801 10.4909 11.5685 10.5493 11.5458 10.6037C11.5231 10.6582 11.4898 10.7076 11.448 10.7491C11.4061 10.7906 11.3564 10.8234 11.3018 10.8456C11.2471 10.8678 11.1887 10.8789 11.1297 10.8784Z" fill="#3B2645"/>
<path d="M12.0225 12.4549C11.9052 12.4549 11.7927 12.4083 11.7097 12.3253C11.6267 12.2424 11.5801 12.1298 11.5801 12.0125V7.04968C11.5801 6.93129 11.6272 6.81774 11.7109 6.73402C11.7946 6.6503 11.9081 6.60327 12.0265 6.60327C12.1449 6.60327 12.2585 6.6503 12.3422 6.73402C12.4259 6.81774 12.4729 6.93129 12.4729 7.04968V12.0125C12.4724 12.0711 12.4604 12.1291 12.4374 12.183C12.4145 12.237 12.3812 12.2859 12.3394 12.327C12.2975 12.3681 12.248 12.4005 12.1937 12.4225C12.1393 12.4444 12.0811 12.4554 12.0225 12.4549Z" fill="#291B30"/>
<path d="M12.9153 13.219C12.7969 13.219 12.6834 13.172 12.5997 13.0883C12.5159 13.0046 12.4689 12.891 12.4689 12.7726V6.44641C12.4689 6.32802 12.5159 6.21447 12.5997 6.13075C12.6834 6.04703 12.7969 6 12.9153 6C13.0337 6 13.1473 6.04703 13.231 6.13075C13.3147 6.21447 13.3617 6.32802 13.3617 6.44641V12.7605C13.3633 12.8202 13.353 12.8795 13.3313 12.9351C13.3096 12.9906 13.2769 13.0413 13.2353 13.084C13.1937 13.1268 13.144 13.1607 13.089 13.1839C13.034 13.2071 12.975 13.219 12.9153 13.219Z" fill="#3B2645"/>
<path d="M37.1624 10.8784C37.2808 10.8784 37.3943 10.8314 37.4781 10.7476C37.5618 10.6639 37.6088 10.5504 37.6088 10.432V8.62622C37.6088 8.5676 37.5973 8.50955 37.5748 8.45539C37.5524 8.40123 37.5195 8.35201 37.4781 8.31056C37.4366 8.26911 37.3874 8.23623 37.3332 8.21379C37.2791 8.19136 37.221 8.17981 37.1624 8.17981C37.1038 8.17981 37.0457 8.19136 36.9916 8.21379C36.9374 8.23623 36.8882 8.26911 36.8467 8.31056C36.8053 8.35201 36.7724 8.40123 36.75 8.45539C36.7275 8.50955 36.716 8.5676 36.716 8.62622V10.432C36.716 10.5504 36.763 10.6639 36.8467 10.7476C36.9305 10.8314 37.044 10.8784 37.1624 10.8784Z" fill="#3B2645"/>
<path d="M36.2695 12.4549C36.3872 12.4549 36.5002 12.4084 36.5838 12.3256C36.6674 12.2427 36.7149 12.1302 36.716 12.0125V7.04968C36.716 6.93129 36.6689 6.81774 36.5852 6.73402C36.5015 6.6503 36.3879 6.60327 36.2695 6.60327C36.1511 6.60327 36.0376 6.6503 35.9539 6.73402C35.8702 6.81774 35.8231 6.93129 35.8231 7.04968V12.0125C35.8242 12.1302 35.8717 12.2427 35.9553 12.3256C36.0389 12.4084 36.1518 12.4549 36.2695 12.4549Z" fill="#291B30"/>
<path d="M35.3767 13.219C35.4951 13.219 35.6087 13.172 35.6924 13.0883C35.7761 13.0046 35.8232 12.891 35.8232 12.7726V6.44641C35.8232 6.32802 35.7761 6.21447 35.6924 6.13075C35.6087 6.04703 35.4951 6 35.3767 6C35.2583 6 35.1448 6.04703 35.0611 6.13075C34.9774 6.21447 34.9303 6.32802 34.9303 6.44641V12.7605C34.9287 12.8202 34.9391 12.8795 34.9608 12.9351C34.9825 12.9906 35.0151 13.0413 35.0567 13.084C35.0984 13.1268 35.1481 13.1607 35.2031 13.1839C35.258 13.2071 35.3171 13.219 35.3767 13.219Z" fill="#3B2645"/>
<path d="M16.8807 10.0982C16.8967 10.138 16.9214 10.1738 16.9531 10.2027C17.001 10.2344 17.0566 10.2524 17.114 10.255C17.2927 10.2719 17.4729 10.2624 17.6489 10.2269C17.8122 10.2051 17.9621 10.1251 18.0712 10.0016C18.128 9.92041 18.1627 9.82577 18.1719 9.72705C18.1811 9.62832 18.1644 9.52892 18.1235 9.4386C18.0629 9.29643 17.9693 9.17078 17.8504 9.07214C17.7315 8.9735 17.5907 8.90472 17.4398 8.87154C17.1904 8.81523 16.559 8.83936 16.4585 9.14904C16.4062 9.30186 16.555 9.45469 16.6274 9.57534C16.6998 9.69599 16.8083 9.92925 16.8807 10.0982Z" fill="#FFEDE5"/>
<path d="M32.8953 10.0982C32.8793 10.1391 32.853 10.1751 32.8189 10.2027C32.7713 10.2349 32.7155 10.2531 32.658 10.255C32.4806 10.2718 32.3018 10.2623 32.1272 10.2269C31.9587 10.2071 31.803 10.1271 31.6888 10.0016C31.6318 9.92037 31.5974 9.82549 31.5889 9.72662C31.5804 9.62774 31.5982 9.52838 31.6405 9.4386C31.7007 9.2969 31.7937 9.17156 31.9118 9.07295C32.03 8.97434 32.17 8.9053 32.3202 8.87154C32.5736 8.81523 33.205 8.83936 33.3055 9.14904C33.3578 9.30186 33.209 9.45469 33.1366 9.57534C33.0642 9.69599 32.9838 9.92925 32.8953 10.0982Z" fill="#FFEDE5"/>
<path d="M26.6214 43.1649C26.2035 43.1293 25.7951 43.0204 25.4149 42.8432L24.4497 37.454C24.4497 37.454 25.6562 39.1794 26.6214 43.1649Z" fill="#291B30"/>
<path d="M23.1305 28.2925C23.1283 28.3139 23.1283 28.3355 23.1305 28.3569C23.1305 28.3569 23.1667 28.3569 23.1587 28.3569L23.1305 28.2925Z" fill="#D6BED3"/>
<path d="M27.3172 24.13C27.1325 23.5174 27.0072 22.8885 26.9432 22.2518C26.9432 22.2348 26.9364 22.2184 26.9243 22.2063C26.9122 22.1943 26.8959 22.1875 26.8788 22.1875C26.8617 22.1875 26.8454 22.1943 26.8333 22.2063C26.8212 22.2184 26.8145 22.2348 26.8145 22.2518C26.6737 23.4141 27.1644 24.8338 27.7757 25.8111C27.7862 25.8259 27.8015 25.8367 27.8191 25.8418C27.8366 25.8468 27.8553 25.8457 27.8721 25.8387C27.8889 25.8317 27.9029 25.8191 27.9117 25.8032C27.9204 25.7872 27.9235 25.7687 27.9204 25.7508C27.7676 25.1958 27.4982 24.677 27.3172 24.13Z" fill="url(#paint2_linear_50_2341)"/>
<path d="M22.8892 22.0347C22.5594 22.5535 22.2779 23.1045 21.9481 23.6434C21.6184 24.1823 21.2323 24.6408 20.9427 25.1797C20.9374 25.1866 20.935 25.1954 20.9361 25.2041C20.9373 25.2127 20.9418 25.2206 20.9487 25.2259C20.9557 25.2313 20.9644 25.2336 20.9731 25.2325C20.9818 25.2314 20.9897 25.2268 20.995 25.2199C21.8657 24.3156 22.549 23.2482 23.0059 22.0789C23.026 22.0146 22.9254 21.9744 22.8892 22.0347Z" fill="url(#paint3_linear_50_2341)"/>
</g>
<defs>
<linearGradient id="paint0_linear_50_2341" x1="25" y1="0" x2="25" y2="50" gradientUnits="userSpaceOnUse">
<stop stop-color="#2ECC71"/>
<stop offset="1" stop-color="#158053"/>
</linearGradient>
<linearGradient id="paint1_linear_50_2341" x1="24.9102" y1="18.95" x2="24.9102" y2="32.9043" gradientUnits="userSpaceOnUse">
<stop stop-color="#53E88B"/>
<stop offset="1" stop-color="#15BE77"/>
</linearGradient>
<linearGradient id="paint2_linear_50_2341" x1="27.3559" y1="22.1875" x2="27.3559" y2="25.8449" gradientUnits="userSpaceOnUse">
<stop stop-color="#2ECC71"/>
<stop offset="1" stop-color="#158053"/>
</linearGradient>
<linearGradient id="paint3_linear_50_2341" x1="21.9722" y1="22.005" x2="21.9722" y2="25.2328" gradientUnits="userSpaceOnUse">
<stop stop-color="#2ECC71"/>
<stop offset="1" stop-color="#158053"/>
</linearGradient>
</defs>
</svg>
