<svg width="50" height="50" viewBox="0 0 50 50" fill="none" xmlns="http://www.w3.org/2000/svg">
<circle opacity="0.3" cx="25" cy="25" r="25" fill="url(#paint0_linear_212_966)"/>
<mask id="mask0_212_966" style="mask-type:alpha" maskUnits="userSpaceOnUse" x="0" y="0" width="50" height="50">
<circle cx="25" cy="25" r="25" fill="#C4C4C4"/>
</mask>
<g mask="url(#mask0_212_966)">
<path d="M24.2965 61.0664C23.44 61.068 22.5858 60.9771 21.7487 60.7954C20.2855 60.4939 18.9072 59.8706 17.713 58.9705C16.5189 58.0704 15.5387 56.9158 14.843 55.59C14.291 54.3499 13.8809 53.0511 13.6206 51.7183L13.5605 51.4645C12.7027 47.7992 11.6218 43.9231 9.62731 40.4213C9.30562 39.8578 8.9539 39.2942 8.61505 38.7522C7.79527 37.5248 7.10118 36.2176 6.54335 34.8503C5.68551 32.5057 5.84421 30.1741 7.01517 28.6383C7.16942 28.3996 7.37011 28.1947 7.60523 28.0358C7.84034 27.8769 8.10503 27.7672 8.38343 27.7133C8.55308 27.6928 8.72512 27.7074 8.88891 27.7562C9.05271 27.805 9.20475 27.8871 9.33564 27.9973C9.43774 28.0789 9.52147 28.1813 9.58135 28.2977C9.64122 28.4141 9.67589 28.5419 9.68307 28.6727H9.40427C9.39756 28.5815 9.37197 28.4927 9.32914 28.4119C9.2863 28.3312 9.22717 28.2603 9.15549 28.2038C9.05366 28.1189 8.93591 28.0554 8.8092 28.017C8.68248 27.9786 8.54938 27.966 8.41775 27.9801C7.93452 28.0905 7.51218 28.3832 7.23821 28.7974C6.1273 30.2644 5.95144 32.4885 6.80929 34.7427C7.36239 36.1002 8.05225 37.3976 8.86812 38.6145C9.20696 39.1609 9.55868 39.7244 9.88466 40.2923C11.8834 43.8199 12.9772 47.7175 13.835 51.4042L13.8951 51.6581C14.1499 52.9688 14.5529 54.2461 15.0961 55.4653C15.7721 56.7537 16.725 57.8754 17.8858 58.7496C19.0467 59.6237 20.3865 60.2284 21.8087 60.5201C24.6845 61.0917 27.6682 60.686 30.2885 59.3672C31.3377 58.8982 32.2849 58.2273 33.0765 57.3926C33.8818 56.415 34.5024 55.2983 34.908 54.0973C35.6243 52.213 36.1948 50.2255 36.7095 48.3111C37.503 45.4546 38.3222 42.4992 39.7119 39.8234C40.1409 39.0404 40.5698 38.2703 41.0245 37.5261C41.8758 36.1904 42.5941 34.774 43.1691 33.2973C43.6623 31.8948 43.6838 30.7161 43.2377 29.8557C43.0811 29.5688 42.8635 29.3199 42.6004 29.1266C42.3373 28.9333 42.035 28.8004 41.715 28.7372C41.4916 28.6842 41.259 28.6842 41.0356 28.7373C40.8122 28.7903 40.6043 28.8948 40.4282 29.0426L40.2438 28.8318C40.4507 28.6543 40.6961 28.5276 40.9605 28.4618C41.2248 28.3961 41.5008 28.3932 41.7665 28.4533C42.1296 28.5284 42.4716 28.6831 42.7682 28.9062C43.0648 29.1293 43.3086 29.4153 43.4822 29.7439C43.9669 30.6903 43.9454 31.9207 43.4264 33.4005C42.8455 34.8959 42.1155 36.3285 41.2475 37.6767C40.8186 38.4209 40.3468 39.1867 39.9607 39.961C38.5882 42.611 37.7732 45.5536 36.984 48.3929C36.4478 50.3201 35.8945 52.312 35.1697 54.2048C34.755 55.439 34.1182 56.5865 33.291 57.5905C32.4734 58.4519 31.4957 59.1446 30.4129 59.6296C28.5065 60.5603 26.4166 61.0513 24.2965 61.0664V61.0664Z" fill="url(#paint1_linear_212_966)"/>
<path d="M27.4447 10.9742C27.6665 10.6211 27.7935 10.2166 27.8136 9.79978C27.8378 9.61258 27.8208 9.42234 27.7637 9.24246C27.7066 9.06258 27.6109 8.89745 27.4833 8.7587C27.3761 8.65546 27.2431 8.57372 27.1445 8.46187C27.0458 8.35002 26.9986 8.23387 26.9171 8.12632C26.8288 8.01093 26.7151 7.91753 26.5849 7.85337C26.4547 7.78921 26.3116 7.75601 26.1665 7.75635C25.8706 7.75635 25.5574 7.89401 25.3087 7.75635C25.1543 7.67891 25.0513 7.52404 24.8797 7.438C24.7183 7.35557 24.533 7.33273 24.3565 7.37347C24.2022 7.42743 24.0393 7.45223 23.8761 7.44661C23.6444 7.41219 23.4857 7.2057 23.2799 7.08954C23.174 7.03527 23.0576 7.00488 22.9389 7.00049C22.8201 6.99611 22.7018 7.01783 22.5923 7.06415C22.4827 7.11047 22.3846 7.18025 22.3048 7.26862C22.225 7.35698 22.1655 7.46178 22.1303 7.57566C22.1024 7.6843 22.1024 7.79828 22.1303 7.90692C22.1775 8.16934 22.3577 8.38013 22.3705 8.64255C22.3834 8.90497 22.2247 9.13298 22.3705 9.36528C22.5164 9.59759 22.7308 9.60619 22.8338 9.82559C22.971 10.1224 22.8338 10.5096 22.9582 10.8279C23.0225 11.0301 23.0568 11.3184 23.2455 11.4474C23.5072 11.6281 24.0777 11.4775 24.3908 11.4474L25.6046 11.3485C26.1408 11.2969 26.8013 11.3485 27.286 11.0818C27.3445 11.0551 27.3982 11.0187 27.4447 10.9742V10.9742Z" fill="#232224"/>
<path d="M23.3271 10.7849C23.2845 10.7262 23.2287 10.6785 23.1642 10.6456C23.0997 10.6127 23.0284 10.5955 22.9561 10.5955C22.8837 10.5955 22.8124 10.6127 22.7479 10.6456C22.6834 10.6785 22.6276 10.7262 22.585 10.7849C22.2119 11.2151 22.8424 12.0755 23.3271 12.1271C23.3553 11.6801 23.3553 11.2318 23.3271 10.7849Z" fill="#E0855C"/>
<path d="M29.3534 17.9907C29.2404 18.7153 29.0886 19.4334 28.8988 20.1417C28.8687 20.275 28.843 20.4041 28.8259 20.5289C28.8087 20.6536 28.7915 20.7483 28.7701 20.9074C28.7701 20.9376 28.7701 20.972 28.7701 21.0021C28.7701 21.1053 28.7401 21.2129 28.7272 21.329L28.1868 26.3838C24.8283 27.3088 21.324 26.3838 21.324 26.3838C21.324 26.3838 21.324 26.3193 21.324 26.1945C21.2682 25.6224 21.0967 23.8027 20.9251 21.7506C20.9251 21.7506 20.9251 21.7205 20.9251 21.7076C20.9268 21.6761 20.9268 21.6445 20.9251 21.613C20.8522 20.7526 20.7836 19.8405 20.7278 18.9716C20.6248 17.4616 20.5605 16.0677 20.5734 15.203C20.5734 14.8847 21.3154 14.9191 21.8215 14.8503C22.1947 14.7986 22.5764 14.7642 22.9067 14.747C23.237 14.7298 23.4858 14.7212 23.653 14.7212H23.8418C23.8418 14.7212 23.8847 14.2265 23.8847 14.2222L24.0005 13.009C24.0568 13.0236 24.1141 13.0337 24.172 13.0391C24.2782 13.0591 24.3858 13.0706 24.4937 13.0736C24.6353 13.0736 24.7682 13.0736 24.8926 13.0736L25.0771 13.0521H25.1843C25.3044 13.0305 25.4202 13.0047 25.5274 12.9746C25.6347 12.9445 25.669 12.9316 25.7376 12.9101C26.051 12.8094 26.3485 12.6645 26.6212 12.4799L26.6598 12.4541L26.7327 12.3982L26.7842 12.3594C26.7842 12.4197 26.7842 12.4455 26.7842 12.4713C26.7499 12.7552 26.7113 13.1166 26.6941 13.4736C26.6941 13.7232 26.6684 13.9684 26.6598 14.1792C26.6512 14.39 26.5826 14.6954 26.7327 14.803C26.7863 14.8331 26.8441 14.8549 26.9043 14.8675C27.1397 14.9048 27.378 14.9206 27.6163 14.9148C27.6892 14.9148 27.7621 14.9148 27.835 14.9148C28.0179 14.9041 28.2012 14.9041 28.3841 14.9148C28.5118 14.9144 28.6384 14.9397 28.7563 14.9892C28.8742 15.0388 28.9809 15.1114 29.0703 15.203C29.1815 15.3644 29.2521 15.5504 29.2762 15.7451L29.3277 16.0978C29.4093 16.7257 29.418 17.3609 29.3534 17.9907Z" fill="#FFEDE5"/>
<path d="M26.767 12.3293C26.709 12.6372 26.5837 12.9283 26.4001 13.1818C26.2165 13.4353 25.9792 13.6449 25.7053 13.7954C25.4313 13.946 25.1275 14.0338 24.8156 14.0525C24.5038 14.0713 24.1917 14.0205 23.9018 13.9038L23.9833 13.0133C24.469 13.1073 24.9693 13.0948 25.4498 12.9767C25.9302 12.8587 26.3796 12.6378 26.767 12.3293Z" fill="#E0855C"/>
<path d="M23.413 9.49448C23.1642 9.7526 23.1428 10.3291 23.1256 10.9657C23.0613 12.9016 23.6404 13.5039 24.6226 13.6115C25.6048 13.719 26.6385 13.3361 26.8487 11.5465C26.9559 10.6474 27.0674 9.82573 26.7415 9.43425C26.2739 8.85779 24.1679 8.70292 23.413 9.49448Z" fill="#FFEDE5"/>
<path d="M26.7028 11.2841C26.7028 11.2841 27.0031 10.4839 27.4792 10.9098C27.9553 11.3357 27.299 12.5445 26.5699 12.4542C26.5785 12.4542 26.4798 11.5594 26.7028 11.2841Z" fill="#FFEDE5"/>
<path d="M27.2689 11.2754C27.1563 11.3107 27.0555 11.3761 26.9773 11.4647C26.8887 11.5389 26.817 11.6313 26.7671 11.7357C26.7671 11.7658 26.7971 11.7873 26.8186 11.7658C26.879 11.7058 26.9363 11.6426 26.9901 11.5765C27.0293 11.6198 27.0777 11.6536 27.1317 11.6755C27.1746 11.6755 27.2089 11.6368 27.1917 11.6024C27.162 11.5568 27.1224 11.5186 27.0759 11.4905C27.156 11.4391 27.232 11.3816 27.3032 11.3184C27.3046 11.3133 27.3047 11.3078 27.3036 11.3026C27.3025 11.2974 27.3001 11.2925 27.2968 11.2883C27.2935 11.2841 27.2892 11.2808 27.2844 11.2786C27.2795 11.2763 27.2743 11.2752 27.2689 11.2754Z" fill="#E0855C"/>
<path d="M23.9705 10.9225C23.9705 10.9225 23.8033 10.9827 23.829 10.6859C23.8547 10.3891 23.9705 10.4579 23.9705 10.4579C23.9705 10.4579 24.0863 10.4579 24.0692 10.6902C24.052 10.9225 23.9705 10.9225 23.9705 10.9225Z" fill="#232224"/>
<path d="M25.6562 10.9225C25.6562 10.9225 25.4932 10.9827 25.5189 10.6859C25.5447 10.3891 25.6562 10.4579 25.6562 10.4579C25.6562 10.4579 25.772 10.4579 25.7548 10.6902C25.7377 10.9225 25.6562 10.9225 25.6562 10.9225Z" fill="#232224"/>
<path d="M24.1507 10.0235C24.0833 9.98521 24.0056 9.96919 23.9286 9.97768C23.8517 9.98618 23.7793 10.0188 23.7218 10.0708C23.7189 10.0767 23.7175 10.0832 23.7178 10.0898C23.7181 10.0963 23.7201 10.1027 23.7235 10.1083C23.7269 10.1139 23.7317 10.1185 23.7374 10.1218C23.7431 10.125 23.7496 10.1267 23.7561 10.1267C23.8162 10.1267 23.8676 10.0923 23.9277 10.088C23.9906 10.085 24.0534 10.0953 24.1121 10.1181C24.1679 10.1353 24.2065 10.0493 24.1507 10.0235Z" fill="#232224"/>
<path d="M25.9092 10.1698C25.8406 9.9977 25.5446 9.98479 25.416 10.088C25.4097 10.0929 25.4047 10.0991 25.4012 10.1061C25.3977 10.1132 25.3959 10.121 25.3959 10.1289C25.3959 10.1368 25.3977 10.1446 25.4012 10.1517C25.4047 10.1588 25.4097 10.165 25.416 10.1698C25.493 10.1762 25.5705 10.1762 25.6476 10.1698C25.7099 10.1799 25.7706 10.1987 25.8277 10.2257C25.8351 10.2365 25.8465 10.244 25.8594 10.2464C25.8722 10.2488 25.8855 10.246 25.8964 10.2386C25.9072 10.2312 25.9146 10.2198 25.917 10.2069C25.9194 10.194 25.9166 10.1806 25.9092 10.1698V10.1698Z" fill="#232224"/>
<path d="M24.3093 12.3078C24.6711 12.3554 25.0388 12.2924 25.3644 12.1271C25.3157 12.2419 25.2436 12.3452 25.1528 12.4304C25.0619 12.5156 24.9543 12.5808 24.8368 12.6219C24.4637 12.7251 24.3093 12.3078 24.3093 12.3078Z" fill="white"/>
<path d="M22.1431 15.1988C23.1296 15.8914 23.2197 17.2379 22.7393 18.3134C22.4133 19.0319 21.8086 19.5352 21.4526 20.2149C21.0816 20.8741 20.6508 21.4977 20.1658 22.0776C19.1021 23.4328 18.0898 24.6588 17.6995 25.1234C16.357 26.7324 13.5346 28.8575 12.5181 29.5975C12.2865 29.7696 12.1492 29.8642 12.1492 29.8642C12.1492 29.8642 11.1756 29.3523 11.4329 28.4058C11.4329 28.4058 15.2932 24.2932 15.8637 23.4543C16.4941 22.3639 17.0668 21.241 17.5794 20.0901C18.2371 18.8139 18.9219 17.5548 19.6339 16.313C19.9599 15.7409 20.376 15.0224 21.0923 14.8934C21.3813 14.8608 21.6732 14.9226 21.9244 15.0697C22.0003 15.1075 22.0734 15.1506 22.1431 15.1988Z" fill="#FFEDE5"/>
<path d="M11.4331 28.4102C11.5388 28.402 11.6449 28.402 11.7505 28.4102C11.7505 28.4102 12.677 28.9264 12.5183 29.5975C12.5183 29.5975 12.4197 29.6878 12.2653 29.8255C12.1108 29.9632 11.9436 30.1266 11.742 30.3331C11.5404 30.5396 11.0814 31.1935 10.8841 31.1376C10.8381 31.1206 10.798 31.0907 10.7683 31.0516L10.3694 30.6214C10.1464 30.3719 9.77321 29.9503 10.0563 29.619C9.85041 29.7438 9.37002 30.0492 9.13411 29.9029L9.03546 29.7438C9.03546 29.7438 9.74318 29.2146 10.0349 28.9522C10.4283 28.6213 10.9201 28.4307 11.4331 28.4102Z" fill="#FFEDE5"/>
<path d="M23.3143 21.7895C23.3128 21.8124 23.3128 21.8355 23.3143 21.8584C23.3143 21.8584 23.3529 21.8584 23.3443 21.8584L23.3143 21.7895Z" fill="#D6BED3"/>
<path d="M24.9055 35.7321C24.5109 38.9026 24.0476 41.6602 24.0476 41.6602C24.112 42.4259 24.142 43.2562 24.142 44.108C24.142 45.7772 24.0305 47.5496 23.8889 49.1112C23.7088 51.103 23.46 52.798 23.3528 53.6498V53.7573C23.5115 59.4058 21.9073 60.1543 21.1567 58.9197C20.4061 57.685 21.1567 54.0455 21.1567 54.0455C21.1591 54.0126 21.1591 53.9795 21.1567 53.9466C20.8409 52.2564 20.6303 50.548 20.5262 48.8316C20.2688 44.6759 20.7106 41.8323 20.6591 41.316C19.7627 32.2819 21.0151 27.3002 21.0151 27.3002C21.2107 26.5764 21.5637 25.9049 22.0488 25.3342C22.9625 24.3448 24.0605 24.5943 24.7511 25.8032C24.8237 25.9271 24.8895 26.0549 24.9484 26.186C25.2298 26.8804 25.3894 27.6183 25.4202 28.3671C25.4888 30.2385 25.2272 33.1251 24.9055 35.7321Z" fill="#FFEDE5"/>
<path d="M29.3363 48.612C29.2365 50.3643 29.0274 52.1086 28.7101 53.8346L28.6715 54.0454C28.6715 54.0454 29.4221 57.6977 28.6715 58.9195C27.9208 60.1413 26.3338 59.4271 26.4754 53.8346C26.4754 53.8088 26.4754 53.783 26.4754 53.7614C26.3553 52.9527 26.1151 51.2018 25.9263 49.1282C25.7805 47.5537 25.669 45.7899 25.669 44.1207C25.669 43.2604 25.7033 42.4344 25.7676 41.6643C25.7676 41.6643 25.2915 38.9068 24.9098 35.7405C24.5881 33.1292 24.3222 30.2426 24.4337 28.3885C24.4658 27.6393 24.6269 26.9014 24.9098 26.2074C24.966 26.0722 25.0319 25.9414 25.1071 25.8159C25.9006 24.435 27.2217 24.3145 28.1953 25.8718C28.4743 26.3232 28.6934 26.8091 28.8473 27.3173C28.8473 27.3173 30.0998 32.286 29.2033 41.3331C29.139 41.8407 29.5636 44.5854 29.3363 48.612Z" fill="#FFEDE5"/>
<path d="M11.3301 31.2021C11.4156 31.3013 11.5217 31.3805 11.6411 31.434C11.7604 31.4876 11.89 31.5141 12.0207 31.5119C12.0806 31.4979 12.137 31.4719 12.1866 31.4354C12.2361 31.3989 12.2778 31.3528 12.3091 31.2997C12.3403 31.2466 12.3606 31.1877 12.3685 31.1266C12.3764 31.0655 12.3719 31.0033 12.3553 30.944C12.3054 30.8131 12.2244 30.6965 12.1193 30.6041C11.4717 29.9588 10.8068 29.3136 10.1334 28.7156C10.0209 28.5884 9.8705 28.5009 9.70451 28.4661C9.55014 28.466 9.40075 28.5209 9.28293 28.6209C9.16512 28.721 9.08652 28.8597 9.06113 29.0124C9.06113 29.2877 9.29703 29.391 9.49005 29.5459C10.0991 30.0879 10.7082 30.6558 11.3301 31.2021Z" fill="#232224"/>
<path d="M11.2357 30.4405C11.2624 30.4129 11.2842 30.3809 11.3001 30.3459C11.3109 30.3015 11.3116 30.2551 11.3019 30.2104C11.2923 30.1657 11.2726 30.1237 11.2443 30.0878C11.0856 29.8254 10.7596 29.4038 10.4379 29.365C10.3317 29.3596 10.226 29.3822 10.1311 29.4305C10.0363 29.4788 9.95578 29.5512 9.8975 29.6404C9.80124 29.7793 9.74003 29.9395 9.71911 30.1074C9.69819 30.2752 9.71819 30.4456 9.7774 30.604C9.87154 30.8889 10.0649 31.1303 10.3221 31.2837C10.4505 31.3383 10.5949 31.341 10.7251 31.2913C10.8554 31.2416 10.9615 31.1433 11.0213 31.017C11.0856 30.8578 11.0642 30.6642 11.1671 30.5309C11.1866 30.4983 11.2096 30.4681 11.2357 30.4405Z" fill="#FFEDE5"/>
<path d="M27.6507 15.199C26.6599 15.8916 26.5698 17.2381 27.0545 18.3136C27.3762 19.032 27.981 19.5354 28.3413 20.2151C28.7153 20.8724 29.1458 21.4957 29.628 22.0778C30.6918 23.4329 31.7083 24.659 32.0943 25.1236C33.4412 26.7411 36.2635 28.8577 37.28 29.5976L37.6532 29.8644C37.6532 29.8644 38.6225 29.3524 38.3652 28.406C38.3652 28.406 34.5049 24.2933 33.9344 23.4544C33.3023 22.365 32.7295 21.242 32.2187 20.0903C31.5582 18.7997 30.8762 17.5565 30.1599 16.3132C29.8339 15.741 29.4222 15.0226 28.7016 14.8935C28.4125 14.8613 28.1208 14.9231 27.8695 15.0699C27.7935 15.1075 27.7203 15.1506 27.6507 15.199Z" fill="#FFEDE5"/>
<path d="M38.3608 28.4101C38.2538 28.402 38.1462 28.402 38.0391 28.4101C38.0391 28.4101 37.1127 28.9263 37.2714 29.5975C37.2714 29.5975 37.3743 29.6878 37.5244 29.8255C37.6746 29.9631 37.8504 30.1266 38.0477 30.3331C38.245 30.5396 38.7125 31.1935 38.9056 31.1376C38.9509 31.1194 38.9908 31.0897 39.0214 31.0515L39.416 30.6213C39.6433 30.3718 40.0122 29.9502 39.7334 29.619C39.935 29.7437 40.4154 30.0492 40.6556 29.9029L40.7371 29.7437C40.7371 29.7437 40.0293 29.2146 39.7334 28.9522C39.3475 28.6254 38.8652 28.435 38.3608 28.4101Z" fill="#FFEDE5"/>
<path d="M38.4596 31.2021C38.3741 31.3013 38.268 31.3805 38.1487 31.434C38.0293 31.4876 37.8997 31.5141 37.769 31.5119C37.7084 31.4989 37.651 31.4736 37.6005 31.4375C37.55 31.4015 37.5073 31.3555 37.4752 31.3023C37.443 31.2491 37.4221 31.1899 37.4136 31.1282C37.4051 31.0666 37.4093 31.0039 37.4259 30.944C37.4794 30.8189 37.5617 30.7083 37.6661 30.6214C38.3152 29.9761 38.9786 29.3465 39.6563 28.7328C39.7682 28.6048 39.9189 28.5172 40.0852 28.4833C40.2391 28.4834 40.3879 28.5384 40.505 28.6385C40.6221 28.7386 40.6998 28.8773 40.7243 29.0296C40.7243 29.305 40.4927 29.4082 40.2954 29.5631C39.6906 30.0879 39.0815 30.6558 38.4596 31.2021Z" fill="#232224"/>
<path d="M38.5581 30.4405C38.5289 30.4142 38.5055 30.3819 38.4895 30.3459C38.4805 30.3011 38.4811 30.2548 38.4915 30.2103C38.5018 30.1657 38.5217 30.1239 38.5496 30.0878C38.704 29.8254 39.03 29.4038 39.3517 29.365C39.4579 29.3596 39.5636 29.3822 39.6584 29.4305C39.7533 29.4788 39.8338 29.5512 39.8921 29.6404C39.9873 29.7799 40.0468 29.9408 40.0655 30.1088C40.0842 30.2768 40.0615 30.4469 39.9993 30.604C39.908 30.8905 39.7139 31.1327 39.4546 31.2837C39.3263 31.3383 39.1819 31.341 39.0516 31.2913C38.9213 31.2416 38.8152 31.1433 38.7555 31.017C38.6954 30.8578 38.7168 30.6642 38.6096 30.5309L38.5581 30.4405Z" fill="#FFEDE5"/>
<path d="M29.4007 45.8544V46.2846C29.4007 46.5728 29.4007 46.8697 29.4007 47.1751V47.5236C29.4007 47.8763 29.3749 48.242 29.3578 48.6163C28.2472 48.9235 27.1037 49.0954 25.9521 49.1282C25.9049 48.6464 25.8106 47.3644 25.8063 47.2224C25.8063 46.9299 25.7419 46.1039 25.7377 45.9921C25.7119 45.364 25.6948 44.7359 25.6948 44.1207C25.6948 43.3205 25.7248 42.5376 25.7848 41.8106C25.7848 41.7589 25.7848 41.7116 25.7848 41.6643C25.7848 41.617 25.3087 38.911 24.927 35.7405C24.8841 36.076 24.8412 36.4116 24.7983 36.7342C24.438 39.4617 24.0563 41.6643 24.0563 41.6643C24.1206 42.43 24.1506 43.2603 24.1506 44.1121C24.1506 44.7617 24.1506 45.4027 24.1035 46.0824C24.1035 46.1943 24.0177 47.6311 24.0048 47.7688C23.9748 48.2291 23.9362 48.6808 23.8976 49.1153C23.2971 49.0895 22.7052 49.0508 22.1176 48.9991C21.6543 48.9604 21.071 48.9346 20.5048 48.8529C20.4791 48.4657 20.4619 48.0957 20.449 47.7344C20.449 47.644 20.449 47.5537 20.449 47.4633C20.449 47.0676 20.449 46.6933 20.449 46.3319V46.048C20.449 43.441 20.7021 41.7245 20.6635 41.3158C19.7671 32.2817 21.0195 27.3 21.0195 27.3C21.215 26.5762 21.5681 25.9047 22.0532 25.334C22.4209 25.3911 22.7817 25.4863 23.1298 25.618C23.6601 25.757 24.2075 25.8192 24.7554 25.803H25.15C25.6261 25.803 26.1022 25.747 26.5741 25.7341H26.8915C27.3438 25.7274 27.7954 25.7707 28.2383 25.8632C28.503 26.3195 28.7077 26.8082 28.8473 27.3172C29.1938 28.941 29.3976 30.5921 29.4564 32.2516C29.6017 35.2808 29.5171 38.3167 29.2034 41.333C29.1519 41.7159 29.3792 43.355 29.4007 45.8544Z" fill="#232224"/>
<path d="M12.2094 14.6867C12.2094 14.6609 12.1579 14.6609 12.1537 14.6867C11.9392 16.1537 12.0636 17.6981 12.0636 19.1995C12.0636 20.7869 12.0121 22.3872 12.1065 23.9704C12.1105 23.9873 12.1201 24.0023 12.1338 24.0131C12.1474 24.0238 12.1642 24.0297 12.1815 24.0297C12.1989 24.0297 12.2157 24.0238 12.2293 24.0131C12.2429 24.0023 12.2525 23.9873 12.2566 23.9704C12.3467 22.3872 12.2952 20.7869 12.2952 19.1995C12.2952 17.7325 12.4196 16.1666 12.2094 14.6867Z" fill="#F7F8F8"/>
<path d="M14.0839 15.1858C14.0793 15.1647 14.0677 15.1457 14.0509 15.1322C14.0341 15.1186 14.0132 15.1112 13.9917 15.1112C13.9701 15.1112 13.9492 15.1186 13.9324 15.1322C13.9156 15.1457 13.904 15.1647 13.8994 15.1858C13.8994 16.5968 13.8094 18.0337 13.8994 19.4404C13.8994 19.4644 13.9089 19.4874 13.9258 19.5043C13.9427 19.5213 13.9656 19.5308 13.9895 19.5308C14.0134 19.5308 14.0363 19.5213 14.0532 19.5043C14.0701 19.4874 14.0796 19.4644 14.0796 19.4404C14.1782 18.0337 14.0925 16.5968 14.0839 15.1858Z" fill="#F7F8F8"/>
<path d="M33.2609 29.9588C33.2574 29.946 33.2498 29.9348 33.2394 29.9268C33.2289 29.9188 33.2161 29.9145 33.203 29.9145C33.1898 29.9145 33.177 29.9188 33.1665 29.9268C33.1561 29.9348 33.1485 29.946 33.145 29.9588C33.0242 31.8061 32.9999 33.6584 33.0721 35.5083C33.0721 37.3581 33.0721 39.2037 33.1408 41.0535C33.1444 41.0673 33.1525 41.0795 33.1637 41.0881C33.175 41.0968 33.1888 41.1015 33.203 41.1015C33.2171 41.1015 33.2309 41.0968 33.2422 41.0881C33.2534 41.0795 33.2615 41.0673 33.2651 41.0535C33.3252 39.2037 33.3252 37.3581 33.3338 35.5083C33.4039 33.6584 33.3795 31.8062 33.2609 29.9588Z" fill="#F7F8F8"/>
<path d="M36.5681 19.1393C36.5547 17.9084 36.4745 16.6791 36.3279 15.4569C36.3279 15.3837 36.2121 15.4052 36.2078 15.4569C36.1747 16.7787 36.2133 18.1013 36.3236 19.419C36.3793 20.645 36.3665 21.9012 36.5295 23.1143C36.5295 23.2262 36.7182 23.1918 36.7225 23.0885C36.7825 21.7764 36.6453 20.4385 36.5681 19.1393Z" fill="#F7F8F8"/>
<path d="M37.4258 19.8233C37.4228 19.8137 37.4168 19.8053 37.4087 19.7993C37.4006 19.7933 37.3908 19.7901 37.3807 19.7901C37.3707 19.7901 37.3609 19.7933 37.3528 19.7993C37.3447 19.8053 37.3387 19.8137 37.3357 19.8233C37.2221 21.5908 37.2135 23.3635 37.31 25.1319C37.3073 25.1427 37.3071 25.154 37.3094 25.1648C37.3117 25.1757 37.3165 25.1859 37.3233 25.1946C37.3301 25.2034 37.3388 25.2104 37.3488 25.2153C37.3587 25.2202 37.3697 25.2227 37.3807 25.2227C37.3918 25.2227 37.4027 25.2202 37.4127 25.2153C37.4226 25.2104 37.4314 25.2034 37.4382 25.1946C37.445 25.1859 37.4497 25.1757 37.4521 25.1648C37.4544 25.154 37.4542 25.1427 37.4515 25.1319C37.548 23.3635 37.5394 21.5908 37.4258 19.8233Z" fill="#F7F8F8"/>
<path d="M24.7769 36.73C24.7835 36.395 24.8266 36.0618 24.9056 35.7363C24.8627 36.0718 24.8198 36.4074 24.7769 36.73Z" fill="#1D1617"/>
<path d="M29.4436 32.2518C28.8646 28.7629 24.0821 28.5995 24.0821 28.5995C23.7861 27.1626 25.7163 26.7324 25.7163 26.7324L26.8443 25.7559C27.2966 25.7491 27.7483 25.7924 28.1911 25.8849C28.4705 26.3321 28.6911 26.8136 28.8474 27.3175C29.1868 28.9421 29.3863 30.5929 29.4436 32.2518V32.2518Z" fill="#1D1617"/>
<path d="M28.9159 27.6916C25.0556 29.5113 20.8607 27.8421 20.8607 27.8421C21.1652 26.9817 20.9379 22.5937 20.9164 21.7591C20.9164 21.7591 20.9164 21.729 20.9164 21.7161C20.9182 21.6846 20.9182 21.653 20.9164 21.6215C21.7271 19.7372 21.8172 16.1064 21.8215 14.8588C22.1861 14.8029 22.5678 14.7728 22.8981 14.7556C23.0267 16.1494 23.4857 19.7243 24.7639 19.5694C26.0421 19.4146 26.6511 16.2311 26.8742 14.8373C27.1094 14.8769 27.3479 14.8927 27.5862 14.8846C27.6591 14.8846 27.732 14.8846 27.8049 14.8846C27.6934 16.7904 28.7486 20.7955 28.7786 20.9074C28.7786 20.9375 28.7786 20.9719 28.7786 21.002C28.7786 21.1053 28.7486 21.2128 28.7357 21.329C28.7357 21.329 28.7357 21.3763 28.7357 21.4021C28.4655 23.8284 28.9159 27.6916 28.9159 27.6916Z" fill="url(#paint2_linear_212_966)"/>
</g>
<defs>
<linearGradient id="paint0_linear_212_966" x1="25" y1="0" x2="25" y2="50" gradientUnits="userSpaceOnUse">
<stop stop-color="#2ECC71"/>
<stop offset="1" stop-color="#158053"/>
</linearGradient>
<linearGradient id="paint1_linear_212_966" x1="24.9157" y1="27.7043" x2="24.9157" y2="61.0665" gradientUnits="userSpaceOnUse">
<stop stop-color="#53E88B"/>
<stop offset="1" stop-color="#15BE77"/>
</linearGradient>
<linearGradient id="paint2_linear_212_966" x1="24.8883" y1="14.7556" x2="24.8883" y2="28.5413" gradientUnits="userSpaceOnUse">
<stop stop-color="#53E88B"/>
<stop offset="1" stop-color="#15BE77"/>
</linearGradient>
</defs>
</svg>
