<svg width="92" height="93" viewBox="0 0 92 93" fill="none" xmlns="http://www.w3.org/2000/svg">
<circle cx="46" cy="47" r="46" fill="white"/>
<g clip-path="url(#clip0_393_477)">
<path opacity="0.3" d="M31.3032 55.055H31.2589L29.556 54.5601C29.4975 54.5419 29.4484 54.501 29.4192 54.4463C29.3899 54.3915 29.3829 54.3273 29.3995 54.2673C29.4161 54.2072 29.4551 54.1563 29.5082 54.1253C29.5612 54.0943 29.624 54.0857 29.6831 54.1014L31.3742 54.5903C31.4278 54.6082 31.4732 54.6454 31.5021 54.6949C31.531 54.7443 31.5413 54.8028 31.5312 54.8595C31.5211 54.9162 31.4913 54.9672 31.4472 55.0031C31.4031 55.0391 31.3478 55.0575 31.2914 55.055H31.3032Z" fill="url(#paint0_linear_393_477)"/>
<path opacity="0.3" d="M29.556 56.3949C29.5078 56.3904 29.4621 56.3709 29.4251 56.3391C29.3881 56.3072 29.3615 56.2646 29.349 56.2168C29.3397 56.1855 29.3368 56.1526 29.3405 56.1201C29.3441 56.0876 29.3544 56.0562 29.3704 56.0279C29.3865 55.9996 29.4081 55.975 29.434 55.9555C29.4598 55.9361 29.4892 55.9224 29.5205 55.9151L31.2234 55.4745C31.2825 55.4615 31.3442 55.4723 31.3956 55.5048C31.447 55.5373 31.4841 55.5888 31.499 55.6486C31.5139 55.7084 31.5056 55.7718 31.4757 55.8254C31.4458 55.8791 31.3967 55.9188 31.3387 55.9362L29.6328 56.3768C29.6084 56.3873 29.5824 56.3934 29.556 56.3949V56.3949Z" fill="url(#paint1_linear_393_477)"/>
<path opacity="0.3" d="M30.4252 58.0003C30.3691 57.9946 30.3168 57.969 30.2774 57.9279C30.2342 57.8832 30.21 57.8231 30.21 57.7604C30.21 57.6977 30.2342 57.6375 30.2774 57.5929L31.5368 56.3405C31.5582 56.3164 31.5843 56.2971 31.6133 56.2836C31.6424 56.2702 31.6738 56.263 31.7057 56.2624C31.7375 56.2619 31.7692 56.268 31.7987 56.2804C31.8282 56.2928 31.8549 56.3112 31.8771 56.3345C31.8993 56.3578 31.9167 56.3855 31.928 56.416C31.9394 56.4464 31.9445 56.4788 31.9431 56.5113C31.9417 56.5439 31.9337 56.5757 31.9198 56.605C31.9059 56.6343 31.8862 56.6603 31.862 56.6815L30.6085 57.9399C30.5837 57.9624 30.5546 57.9794 30.523 57.9897C30.4915 58.0001 30.4582 58.0037 30.4252 58.0003V58.0003Z" fill="url(#paint2_linear_393_477)"/>
<path opacity="0.3" d="M31.9536 58.9509H31.9092C31.8791 58.9423 31.8509 58.9275 31.8264 58.9075C31.8019 58.8875 31.7816 58.8627 31.7667 58.8346C31.7518 58.8064 31.7426 58.7755 31.7397 58.7436C31.7367 58.7118 31.7401 58.6796 31.7496 58.6491L32.2167 56.923C32.2346 56.8633 32.2746 56.8132 32.3283 56.7834C32.3819 56.7535 32.4449 56.7463 32.5036 56.7633C32.5624 56.7802 32.6124 56.8201 32.6427 56.8742C32.6731 56.9283 32.6815 56.9924 32.6661 57.0527L32.1871 58.7789C32.1727 58.8301 32.1418 58.8748 32.0994 58.906C32.0571 58.9372 32.0058 58.953 31.9536 58.9509Z" fill="url(#paint3_linear_393_477)"/>
<path d="M78.1389 32.1537L73.9024 34.6433L64.6251 36.0133C64.6251 36.0133 57.8519 25.6264 56.8142 23.9938C55.7765 22.3612 54.5614 21.3141 51.7499 21.3171L52.282 29.6037C52.3707 29.8723 57.9791 36.9247 61.6775 40.7692C62.9843 42.1242 63.7855 42.4712 65.8165 41.8918C71.0287 40.4161 77.3466 36.0435 77.8551 34.9511C78.538 33.5237 78.0886 32.1838 78.1389 32.1537Z" fill="#FFEDE5"/>
<path d="M76.3975 26.8998C76.9533 25.047 79.2238 23.5381 81.3317 24.1417C81.6656 24.2358 81.9857 24.3749 82.2837 24.5551C84.3532 25.7622 85.9999 28.7044 85.9999 31.1246C86.0067 31.5333 85.9508 31.9406 85.8344 32.3317V32.3317C85.2815 34.1816 83.0169 35.7025 80.9001 35.0959C80.5667 35.0004 80.2467 34.8615 79.9481 34.6825C77.8964 33.4754 76.2319 30.5301 76.2319 28.1099C76.2259 27.7003 76.2818 27.2922 76.3975 26.8998Z" fill="#49464D"/>
<path d="M79.9511 34.6644C77.8993 33.4573 76.2349 30.5121 76.2349 28.0919C76.2349 25.6717 77.8993 24.6939 79.9511 25.901C82.0029 27.1081 83.6585 30.0504 83.6585 32.4706C83.6585 34.8908 82.0029 35.8715 79.9511 34.6644Z" fill="#232224"/>
<path d="M79.9511 28.5837C79.1617 28.119 78.5202 28.4962 78.5202 29.4257C78.547 29.9323 78.6906 30.4254 78.9392 30.8648C79.1878 31.3042 79.5345 31.6776 79.9511 31.9545C80.7404 32.4192 81.379 32.042 81.379 31.1126C81.3527 30.6061 81.2097 30.1131 80.9616 29.6737C80.7135 29.2343 80.3672 28.8608 79.9511 28.5837V28.5837Z" fill="#49464D"/>
<path d="M79.4604 29.9809C79.4698 30.1545 79.5192 30.3233 79.6045 30.4738C79.6897 30.6242 79.8085 30.7521 79.9511 30.847C79.998 30.8815 80.0524 30.9036 80.1097 30.9115C80.1669 30.9194 80.2252 30.9128 80.2793 30.8923L80.3148 30.8711C80.357 30.8342 80.3903 30.7876 80.4118 30.7353C80.4334 30.6829 80.4427 30.6261 80.4389 30.5694C80.4296 30.3962 80.3806 30.2276 80.2958 30.0772C80.2111 29.9268 80.0931 29.7987 79.9511 29.7033C79.9043 29.6688 79.8498 29.6467 79.7926 29.6388C79.7354 29.6309 79.6771 29.6375 79.623 29.658L79.5875 29.6792C79.5445 29.7157 79.5106 29.762 79.4885 29.8145C79.4664 29.8669 79.4568 29.924 79.4604 29.9809V29.9809Z" fill="#232224"/>
<path d="M71.611 34.6071C71.6202 34.7803 71.6691 34.949 71.7538 35.0994C71.8386 35.2499 71.9568 35.3779 72.0989 35.4731C72.1624 35.515 72.2361 35.538 72.3117 35.5395C72.3691 35.5384 72.4252 35.5217 72.4743 35.4912L80.2793 30.8923L80.3148 30.8712C80.357 30.8342 80.3903 30.7876 80.4118 30.7353C80.4334 30.6829 80.4427 30.6261 80.4389 30.5694C80.4295 30.3962 80.3805 30.2276 80.2958 30.0772C80.2111 29.9268 80.0931 29.7987 79.9511 29.7033C79.9043 29.6688 79.8498 29.6467 79.7926 29.6388C79.7353 29.6309 79.6771 29.6375 79.623 29.658L79.5875 29.6792L71.7825 34.2781C71.7265 34.3109 71.6807 34.3592 71.6503 34.4174C71.62 34.4756 71.6064 34.5413 71.611 34.6071V34.6071Z" fill="#FAFAFA"/>
<path d="M63.951 34.2359C64.5039 32.386 66.7685 30.856 68.8853 31.4626C69.2194 31.5586 69.5403 31.6975 69.8402 31.876C71.892 33.0831 73.5564 36.0284 73.5564 38.4486C73.5614 38.8572 73.5056 39.2642 73.3909 39.6557C72.8351 41.5055 70.5734 43.0264 68.4566 42.4229C68.1234 42.3268 67.8035 42.1879 67.5046 42.0095C65.4529 40.8024 63.7884 37.8571 63.7884 35.4399C63.7816 35.0324 63.8364 34.6263 63.951 34.2359V34.2359Z" fill="#49464D"/>
<path d="M67.5016 41.9974C65.4499 40.7904 63.7854 37.8451 63.7854 35.4279C63.7854 33.0107 65.4499 32.0269 67.5016 33.234C69.5534 34.4411 71.2179 37.3864 71.2179 39.8066C71.2179 42.2268 69.5564 43.2075 67.5016 41.9974Z" fill="#232224"/>
<path d="M67.5016 35.9107C66.7123 35.443 66.0737 35.8202 66.0737 36.7527C66.1004 37.2586 66.2437 37.751 66.4918 38.1899C66.7399 38.6287 67.0859 39.0017 67.5016 39.2785C68.291 39.7432 68.9326 39.366 68.9326 38.4365C68.9052 37.9304 68.7615 37.4379 68.5128 36.9991C68.2642 36.5602 67.9178 36.1874 67.5016 35.9107V35.9107Z" fill="#49464D"/>
<path d="M67.0138 37.314C67.0229 37.4872 67.0718 37.6559 67.1566 37.8063C67.2413 37.9568 67.3595 38.0848 67.5016 38.18C67.5484 38.2145 67.6029 38.2367 67.6601 38.2446C67.7174 38.2525 67.7756 38.2458 67.8298 38.2253C67.8428 38.2208 67.8549 38.2136 67.8652 38.2042C67.908 38.1675 67.9418 38.1211 67.9639 38.0687C67.986 38.0163 67.9957 37.9594 67.9924 37.9024C67.9826 37.7289 67.9332 37.5602 67.8479 37.4098C67.7627 37.2593 67.6441 37.1314 67.5016 37.0363C67.4548 37.0029 67.4008 36.9815 67.3441 36.9742C67.2874 36.9668 67.2299 36.9737 67.1764 36.9941L67.1409 37.0152C67.098 37.0511 67.064 37.0969 67.0419 37.1489C67.0198 37.2008 67.0102 37.2574 67.0138 37.314V37.314Z" fill="#232224"/>
<path d="M65.8313 38.0231C65.8398 38.1965 65.8884 38.3654 65.9732 38.516C66.058 38.6666 66.1765 38.7944 66.3191 38.8892C66.3827 38.931 66.4564 38.954 66.532 38.9555C66.5894 38.9541 66.6454 38.9375 66.6946 38.9073L67.8299 38.2373C67.8429 38.2328 67.855 38.2256 67.8653 38.2162C67.9081 38.1795 67.9419 38.1331 67.964 38.0807C67.9861 38.0283 67.9958 37.9714 67.9925 37.9144C67.9827 37.741 67.9333 37.5722 67.848 37.4218C67.7628 37.2714 67.6442 37.1435 67.5017 37.0484C67.4549 37.0149 67.4009 36.9936 67.3442 36.9862C67.2875 36.9789 67.23 36.9857 67.1765 37.0061L67.141 37.0272L66.0028 37.6942C65.9468 37.7269 65.9009 37.7752 65.8706 37.8334C65.8403 37.8916 65.8266 37.9573 65.8313 38.0231V38.0231Z" fill="#FAFAFA"/>
<path d="M65.8313 38.0231C65.84 38.1969 65.8887 38.3662 65.9734 38.5172C66.0582 38.6682 66.1766 38.7967 66.3191 38.8922C66.3664 38.9257 66.421 38.947 66.4781 38.9544C66.5352 38.9617 66.5933 38.9549 66.6473 38.9345L66.6827 38.9133C66.7259 38.877 66.76 38.8306 66.7821 38.7782C66.8042 38.7257 66.8137 38.6686 66.8099 38.6116C66.7999 38.4377 66.7504 38.2686 66.6652 38.1178C66.58 37.9669 66.4615 37.8384 66.3191 37.7425C66.2718 37.709 66.2172 37.6877 66.1601 37.6803C66.103 37.6729 66.0449 37.6798 65.9909 37.7002L65.9555 37.7213C65.913 37.7582 65.8796 37.8047 65.8581 37.8571C65.8365 37.9095 65.8273 37.9664 65.8313 38.0231V38.0231Z" fill="#E0E0E0"/>
<path d="M75.4308 37.0755C77.2253 35.6783 78.9459 35.6874 78.6355 32.2713C78.3724 30.7625 78.0058 30.6538 76.566 30.0805C75.9333 29.83 75.0878 29.6399 74.5823 30.2314C74.5267 30.3057 74.4654 30.3753 74.399 30.4396C74.2499 30.5366 74.0788 30.5927 73.9023 30.6025C73.5652 30.6193 73.2448 30.7572 72.9976 30.9918C72.8291 31.188 72.7641 31.4566 72.5985 31.6527C72.4394 31.8064 72.2684 31.9467 72.087 32.0722C71.9571 32.1872 71.8523 32.3289 71.7795 32.488C71.7066 32.6471 71.6674 32.82 71.6643 32.9956C71.6762 33.1963 71.7311 33.3919 71.8251 33.5687C71.9191 33.7454 72.0499 33.899 72.2083 34.0186L73.1129 33.4875C73.4825 33.2279 74.2452 34.1544 73.9171 34.6433C73.3938 35.4218 75.4308 37.0755 75.4308 37.0755Z" fill="#FFEDE5"/>
<path d="M54.5289 43.9438C55.1025 41.5779 55.268 35.6663 55.268 35.6663L38.4815 36.1793L39.395 39.9122C39.5457 40.7537 39.6258 41.6067 39.6345 42.4621C39.6345 42.4621 41.2635 45.5432 46.0943 46.0834C49.0625 46.3722 52.0384 45.6173 54.5289 43.9438Z" fill="#FFEDE5"/>
<path d="M55.2769 35.6662C55.2976 35.8533 55.1793 37.6428 55.1793 37.6428C53.0329 39.4867 46.1474 40.4191 38.919 37.9657L37.3875 31.9303C37.3875 31.9303 42.5849 29.6007 39.0727 21.7848L42.8481 21.483L49.5503 21.311H51.7499C53.5584 23.1046 55.0869 25.1706 56.282 27.437C57.1601 29.1088 58.2776 31.5592 55.2769 35.6662Z" fill="#232224"/>
<path d="M45.7779 35.7206C42.7535 34.9329 41.9966 33.0046 41.7808 31.5863C41.7808 31.5863 41.2102 35.7206 45.5325 36.6832C50.0913 37.6972 51.9657 34.0125 51.9657 34.0125C51.9657 34.0125 49.4261 36.6711 45.7779 35.7206Z" fill="#37474F"/>
<path d="M20.0333 81.7255C19.1464 82.3864 17.1035 82.5463 15.3031 81.6832C13.5026 80.8202 12.7517 78.3638 13.0887 76.4656C13.4967 74.151 14.6172 72.8866 14.901 71.4924C15.1848 70.0983 14.901 68.173 15.3326 66.9297C15.5106 66.4518 15.7876 66.0188 16.1448 65.6604C16.502 65.3021 16.9309 65.0268 17.4021 64.8535C17.7025 64.735 18.0255 64.6883 18.3464 64.7171C18.6672 64.7459 18.9773 64.8493 19.2528 65.0195L19.785 65.3393L20.0333 81.7255Z" fill="#263238"/>
<path d="M22.1472 72.8987L20.7458 77.1898C20.7458 77.1898 21.6328 80.2498 21.1331 81.0646C20.397 82.2717 19.0991 82.4829 16.9143 81.8009C14.4161 81.0254 13.8278 78.7168 13.9579 76.9243C14.1353 74.3683 16.4502 72.446 16.1841 69.9836C16.054 68.7765 16.2166 67.4276 16.8641 66.3895C17.5884 65.2307 18.7769 65.0134 20.0097 65.3906C21.0681 65.7165 21.9964 66.3955 22.8922 67.0323C23.1494 67.1993 23.3823 67.4025 23.584 67.6358C23.7445 67.8542 23.8647 68.1007 23.9388 68.3631C24.1009 68.8904 24.1493 69.4474 24.0807 69.9956C24.0156 70.5086 23.6934 70.8074 23.3948 71.2027L22.1472 72.8987Z" fill="#232224"/>
<path d="M28.1872 70.8678C28.1014 70.8346 23.8205 68.0402 23.3593 67.829C22.8981 67.6177 21.7629 67.319 20.666 69.9112C19.8826 71.755 21.009 72.437 21.009 72.437L26.0349 75.4849L28.1872 70.8678Z" fill="#FFEDE5"/>
<path d="M20.7459 77.1899C19.8401 76.7278 18.8373 76.4988 17.8249 76.523C17.7497 76.5302 17.674 76.5184 17.6043 76.4887C17.5347 76.459 17.4732 76.4124 17.4253 76.3528C17.3774 76.2932 17.3446 76.2225 17.3298 76.147C17.3149 76.0714 17.3184 75.9933 17.3401 75.9194V75.9194C17.3685 75.8315 17.4219 75.7541 17.4935 75.6972C17.5651 75.6402 17.6516 75.6063 17.7421 75.5996C18.4192 75.5453 20.0629 75.5241 21.1538 76.4415C21.4436 77.039 20.7459 77.1899 20.7459 77.1899Z" fill="url(#paint4_linear_393_477)"/>
<path d="M21.2603 75.2283C20.3794 74.7192 19.3897 74.4384 18.3777 74.4105C18.3015 74.4144 18.2256 74.3989 18.1567 74.3654C18.0878 74.3319 18.0281 74.2815 17.983 74.2187C17.9379 74.1559 17.9088 74.0827 17.8982 74.0056C17.8876 73.9284 17.896 73.8498 17.9225 73.7768V73.7768C17.9551 73.6902 18.012 73.6153 18.0862 73.5616C18.1604 73.5079 18.2484 73.4778 18.3393 73.475C19.0193 73.4569 20.6631 73.5263 21.7067 74.498C21.9639 75.1167 21.2603 75.2283 21.2603 75.2283Z" fill="url(#paint5_linear_393_477)"/>
<path d="M20.7459 77.1899C19.8401 76.7278 18.8373 76.4988 17.8249 76.523C17.7497 76.5302 17.674 76.5184 17.6043 76.4887C17.5347 76.459 17.4732 76.4124 17.4253 76.3528C17.3774 76.2932 17.3446 76.2225 17.3298 76.147C17.3149 76.0714 17.3184 75.9933 17.3401 75.9194V75.9194C17.3685 75.8315 17.4219 75.7541 17.4935 75.6972C17.5651 75.6402 17.6516 75.6063 17.7421 75.5996C18.4192 75.5453 20.0629 75.5241 21.1538 76.4415C21.4436 77.039 20.7459 77.1899 20.7459 77.1899Z" fill="#15BE77"/>
<path d="M21.2603 75.2283C20.3794 74.7192 19.3897 74.4384 18.3777 74.4105C18.3015 74.4144 18.2256 74.3989 18.1567 74.3654C18.0878 74.3319 18.0281 74.2815 17.983 74.2187C17.9379 74.1559 17.9088 74.0827 17.8982 74.0056C17.8876 73.9284 17.896 73.8498 17.9225 73.7768V73.7768C17.9551 73.6902 18.012 73.6153 18.0862 73.5616C18.1604 73.5079 18.2484 73.4778 18.3393 73.475C19.0193 73.4569 20.6631 73.5263 21.7067 74.498C21.9639 75.1167 21.2603 75.2283 21.2603 75.2283Z" fill="#15BE77"/>
<path d="M64.8882 82.1902L70.4492 79.939C70.3546 78.4754 69.9999 76.526 70.3694 72.6965L64.0604 71.4713V77.9171L64.8882 82.1902Z" fill="#FFEDE5"/>
<path d="M80.7553 87.1754C80.9031 87.6324 80.8756 88.1295 80.6784 88.5666C80.4892 88.974 78.405 90.172 75.5934 89.9789C73.5085 89.8298 71.5006 89.114 69.7781 87.9057C68.7079 87.1815 67.5904 87.0457 66.2008 86.9642C64.8113 86.8827 62.9783 86.1736 62.6738 85.5097C62.3693 84.8458 62.7211 83.699 62.7211 83.699L80.7553 87.1754Z" fill="#263238"/>
<path d="M69.4115 78.2189L69.6332 78.1706C69.7537 78.1376 69.8797 78.1314 70.0028 78.1525C70.1393 78.1955 70.2606 78.2784 70.3516 78.3909C70.6268 78.749 70.8665 79.1341 71.0671 79.5406C71.6584 80.5214 72.8941 81.3362 74.2452 82.0755C75.1647 82.5795 76.0634 82.9808 77.0124 83.4063C77.9615 83.8318 79.2623 84.1215 80.0191 84.6436C81.1219 85.401 81.2667 87.3082 80.0191 88.0596C78.9371 88.7114 76.0841 89.4146 73.0922 88.5485C71.4603 88.0777 69.6509 86.3003 67.5135 86.1343C66.1535 86.0257 63.5785 85.6364 62.7034 84.5832C62.3811 84.1155 62.8127 82.6307 63.1675 81.3512C63.5548 79.954 63.6967 77.4916 64.152 77.6153C64.152 77.6153 64.0278 77.9624 64.2052 78.1495C64.3826 78.3366 65.0064 78.7108 65.1897 78.8677C65.4962 79.1868 65.7437 79.56 65.9199 79.9691C65.9932 80.1539 66.1298 80.3051 66.3043 80.3946C66.5349 80.4821 66.7063 80.3343 66.8956 80.2407C67.1514 80.1239 67.4395 80.1036 67.7086 80.1834C67.6826 79.9062 67.6342 79.6316 67.5637 79.3626C67.5335 79.2776 67.5263 79.1858 67.543 79.097C67.5802 79.0142 67.641 78.9448 67.7174 78.8979C68.2294 78.5532 68.8065 78.3219 69.4115 78.2189Z" fill="#232224"/>
<path d="M72.974 81.3211C72.974 81.3211 72.7789 80.7869 71.9718 80.6361C71.3509 80.5184 70.257 80.9831 69.5771 81.5414C69.5131 81.5953 69.4629 81.6643 69.4309 81.7424C69.3989 81.8205 69.3859 81.9054 69.3932 81.9897C69.4005 82.0741 69.4278 82.1553 69.4727 82.2265C69.5176 82.2977 69.5788 82.3567 69.651 82.3984V82.3984C69.7438 82.4525 69.851 82.4753 69.9572 82.4634C70.0634 82.4514 70.1632 82.4054 70.2423 82.332C70.9908 81.6476 71.9697 81.2853 72.974 81.3211V81.3211Z" fill="url(#paint6_linear_393_477)"/>
<path d="M74.8927 82.4165C74.7587 82.2236 74.5814 82.0663 74.3757 81.9576C74.17 81.849 73.9418 81.7921 73.7101 81.7919C73.7101 81.7919 72.093 81.8402 71.0907 82.7907C71.0297 82.8431 70.9819 82.9098 70.9514 82.985C70.9209 83.0602 70.9086 83.1419 70.9156 83.223C70.9226 83.3041 70.9486 83.3823 70.9914 83.451C71.0342 83.5197 71.0926 83.5768 71.1617 83.6176V83.6176C71.2494 83.6674 71.3503 83.6878 71.4501 83.6759C71.5498 83.6639 71.6434 83.6203 71.7175 83.5512C72.1302 83.1321 72.6296 82.8127 73.1791 82.6164C73.7285 82.42 74.314 82.3517 74.8927 82.4165Z" fill="url(#paint7_linear_393_477)"/>
<path d="M77.0124 83.4063C76.8581 83.2273 76.6679 83.0843 76.4547 82.9869C76.2415 82.8895 76.0102 82.8401 75.7767 82.842C75.7767 82.842 74.2689 82.8993 73.2696 83.8499C73.2078 83.9017 73.1593 83.968 73.1281 84.0432C73.097 84.1184 73.0842 84.2002 73.0909 84.2815C73.0976 84.3629 73.1236 84.4414 73.1665 84.5102C73.2095 84.579 73.2682 84.6362 73.3376 84.6767V84.6767C73.426 84.7264 73.5273 84.7466 73.6274 84.7347C73.7275 84.7228 73.8216 84.6793 73.8964 84.6104C74.2881 84.176 74.7738 83.8409 75.3148 83.6319C75.8558 83.4228 76.4371 83.3456 77.0124 83.4063Z" fill="url(#paint8_linear_393_477)"/>
<path d="M72.974 81.3211C72.974 81.3211 72.7789 80.7869 71.9718 80.6361C71.3509 80.5184 70.257 80.9831 69.5771 81.5414C69.5131 81.5953 69.4629 81.6643 69.4309 81.7424C69.3989 81.8205 69.3859 81.9054 69.3932 81.9897C69.4005 82.0741 69.4278 82.1553 69.4727 82.2265C69.5176 82.2977 69.5788 82.3567 69.651 82.3984V82.3984C69.7438 82.4525 69.851 82.4753 69.9572 82.4634C70.0634 82.4514 70.1632 82.4054 70.2423 82.332C70.9908 81.6476 71.9697 81.2853 72.974 81.3211V81.3211Z" fill="#15BE77"/>
<path d="M74.8927 82.4165C74.7587 82.2236 74.5814 82.0663 74.3757 81.9576C74.17 81.849 73.9418 81.7921 73.7101 81.7919C73.7101 81.7919 72.093 81.8402 71.0907 82.7907C71.0297 82.8431 70.9819 82.9098 70.9514 82.985C70.9209 83.0602 70.9086 83.1419 70.9156 83.223C70.9226 83.3041 70.9486 83.3823 70.9914 83.451C71.0342 83.5197 71.0926 83.5768 71.1617 83.6176V83.6176C71.2494 83.6674 71.3503 83.6878 71.4501 83.6759C71.5498 83.6639 71.6434 83.6203 71.7175 83.5512C72.1302 83.1321 72.6296 82.8127 73.1791 82.6164C73.7285 82.42 74.314 82.3517 74.8927 82.4165Z" fill="#15BE77"/>
<path d="M77.0124 83.4063C76.8581 83.2273 76.6679 83.0843 76.4547 82.9869C76.2415 82.8895 76.0102 82.8401 75.7767 82.842C75.7767 82.842 74.2689 82.8993 73.2696 83.8499C73.2078 83.9017 73.1593 83.968 73.1281 84.0432C73.097 84.1184 73.0842 84.2002 73.0909 84.2815C73.0976 84.3629 73.1236 84.4414 73.1665 84.5102C73.2095 84.579 73.2682 84.6362 73.3376 84.6767V84.6767C73.426 84.7264 73.5273 84.7466 73.6274 84.7347C73.7275 84.7228 73.8216 84.6793 73.8964 84.6104C74.2881 84.176 74.7738 83.8409 75.3148 83.6319C75.8558 83.4228 76.4371 83.3456 77.0124 83.4063Z" fill="#15BE77"/>
<path d="M68.6901 49.8193C64.4624 48.8506 54.3663 46.696 54.3663 46.696L54.5289 43.9438C50.8777 45.8752 43.1821 45.329 39.6344 42.4622L39.0756 45.3803C37.7305 47.0241 36.5656 48.8131 35.6018 50.7156C34.7918 52.3542 33.4377 54.9102 34.7859 60.8641C35.5782 64.3616 36.6336 73.5686 36.6336 73.5686L26.2861 69.6758C26.2861 69.6758 25.3992 69.8297 24.6483 71.8093C24.2048 72.9802 24.057 74.1058 24.5064 74.6882C28.2906 77.7391 34.4222 82.7213 40.6189 85.5157C44.7579 87.1332 46.9575 83.5814 47.1585 82.2657C47.936 77.2261 48.8318 61.0331 48.8318 61.0331L62.6679 60.5835C62.2096 63.2571 64.0722 73.7044 64.0722 73.7044C64.0722 73.7044 67.478 75.2133 70.2984 73.6682C70.2984 73.6682 72.1846 61.6457 72.3679 57.6352C72.5542 53.1629 72.7789 50.7578 68.6901 49.8193Z" fill="#15BE77"/>
<path opacity="0.15" d="M62.668 60.5834C62.668 59.8622 63.138 57.3424 64.7375 55.9995C64.7375 55.9995 62.5438 56.4009 61.5386 60.6196L62.668 60.5834Z" fill="black"/>
<path opacity="0.15" d="M36.6336 73.5686C36.6336 73.5686 36.9293 77.5429 37.6743 79.4803C37.6743 79.4803 35.8088 76.0401 35.6048 73.1763L36.6336 73.5686Z" fill="black"/>
<path opacity="0.15" d="M54.3633 46.696L54.5259 43.9468C50.8747 45.8752 43.1821 45.3289 39.6374 42.4651L39.0786 45.3802C39.1082 45.4074 41.3846 47.8095 47.3034 48.1203C53.2221 48.4311 54.3633 46.696 54.3633 46.696Z" fill="black"/>
<path opacity="0.15" d="M48.8437 61.0331C48.7947 59.5394 48.4486 58.0714 47.8265 56.7185C47.2045 55.3655 46.3193 54.1558 45.225 53.1629C45.225 53.1629 48.4061 54.6718 49.4704 59.4488C49.4704 59.4488 51.8356 58.3232 53.0714 54.9494C53.0714 54.9494 52.6929 58.3232 50.789 60.2424L56.5274 60.7826L48.8437 61.0331Z" fill="black"/>
<path d="M46.9989 1.20688e-05C45.7842 -0.00197107 44.5811 0.240466 43.4583 0.713459C42.3356 1.18645 41.3151 1.88072 40.4554 2.75657C39.5957 3.63241 38.9136 4.67265 38.4481 5.81779C37.9825 6.96293 37.7427 8.19052 37.7423 9.43034V9.43034C37.7423 10.6704 37.9818 11.8983 38.4472 13.0438C38.9126 14.1893 39.5946 15.2299 40.4544 16.1061C41.3141 16.9822 42.3347 17.6768 43.4577 18.1499C44.5806 18.6231 45.784 18.8657 46.9989 18.8637V18.8637C49.4471 18.8597 51.7937 17.864 53.5232 16.0952C55.2527 14.3265 56.2237 11.9293 56.2229 9.43034V9.43034C56.2229 6.93187 55.2516 4.53552 53.5222 2.76742C51.7927 0.999323 49.4466 0.00400961 46.9989 1.20688e-05V1.20688e-05Z" fill="#151416"/>
<path d="M37.3462 5.73365C37.6803 5.71803 38.0152 5.73725 38.3455 5.79098C38.4574 5.7985 38.5627 5.84793 38.6411 5.9298C38.6866 5.99751 38.7123 6.07707 38.715 6.15914C38.7913 6.68306 38.7437 7.21801 38.5761 7.7193C38.446 8.06935 38.041 8.24739 37.7837 8.50088C36.7845 9.49069 36.7047 11.1293 37.0979 12.4903C37.4911 13.8513 38.2804 15.0644 38.7919 16.3801C39.3033 17.6958 39.5753 19.2801 38.851 20.6049C38.5702 21.1119 38.0587 21.5102 38.1208 22.1137C38.1917 22.8531 38.8244 23.5592 39.0964 24.2261C39.395 25.0162 39.4965 25.8696 39.392 26.7097C39.3172 27.7542 38.9372 28.7518 38.3011 29.5735C37.8149 30.1519 37.1872 30.5884 36.482 30.8386C35.7767 31.0888 35.0191 31.1437 34.2863 30.9979C33.9773 30.9428 33.6849 30.8158 33.4319 30.6267C32.9973 30.2706 32.8229 29.6882 32.5864 29.1722C31.8266 27.5034 30.2212 26.2902 29.7334 24.5189C29.2042 22.6328 30.0852 20.6713 31.1673 19.0689C31.6728 18.3205 32.2375 17.5872 32.4858 16.7121C32.8199 15.5321 32.5272 14.2768 32.4504 13.0486C32.377 11.8489 32.5121 10.6454 32.8495 9.49371C33.0919 8.66082 33.4674 7.70119 34.103 7.10368C34.995 6.27586 36.1419 5.79138 37.3462 5.73365Z" fill="#151416"/>
<path d="M52.7757 4.31531C53.7868 4.93394 55.0315 7.54425 54.8866 13.0063C54.7624 17.6355 53.2872 18.7731 52.5481 19.1021C51.809 19.431 50.384 19.2197 49.0004 18.9783V21.7576C49.0004 21.7576 50.9043 24.033 50.7742 25.3095C50.6441 26.586 48.007 26.8726 46.2213 25.6112C44.4356 24.3498 42.9367 21.9266 42.9367 21.9266L42.9959 15.5351C42.9959 15.5351 42.171 16.3499 40.7904 15.1127C39.6581 14.0897 39.2796 12.3726 40.1725 11.4673C41.0653 10.562 42.7061 10.8064 43.3329 12.1221C43.3329 12.1221 45.5384 12.2126 48.4859 10.577C49.6326 9.95066 50.6185 9.0573 51.3639 7.96939C52.1092 6.88148 52.5928 5.62963 52.7757 4.31531V4.31531Z" fill="#FFEDE5"/>
<path d="M49.8253 11.8234C49.8258 11.9378 49.7933 12.0498 49.7318 12.1454C49.6703 12.2411 49.5826 12.3162 49.4796 12.3613C49.3766 12.4063 49.2629 12.4195 49.1526 12.399C49.0423 12.3785 48.9404 12.3254 48.8595 12.2461C48.7787 12.1669 48.7225 12.0651 48.6979 11.9535C48.6734 11.8419 48.6816 11.7253 48.7216 11.6185C48.7615 11.5116 48.8314 11.419 48.9225 11.3524C49.0137 11.2858 49.122 11.2481 49.234 11.244C49.3868 11.2438 49.5337 11.3041 49.6439 11.4121C49.7542 11.5201 49.8192 11.6675 49.8253 11.8234Z" fill="#263238"/>
<g style="mix-blend-mode:multiply" opacity="0.5">
<g style="mix-blend-mode:multiply" opacity="0.5">
<path d="M49.9553 15.7494L51.2768 16.1839C51.2527 16.2745 51.211 16.3592 51.1542 16.4329C51.0973 16.5066 51.0264 16.5678 50.9458 16.6129C50.8652 16.658 50.7765 16.686 50.6851 16.6952C50.5936 16.7045 50.5012 16.6948 50.4135 16.6668C50.2353 16.6047 50.0878 16.4742 50.0022 16.3029C49.9167 16.1316 49.8998 15.9331 49.9553 15.7494Z" fill="#F28F8F"/>
</g>
</g>
<path d="M54.5111 10.055L53.3611 9.23419C53.4093 9.1547 53.4729 9.08611 53.548 9.03265C53.6231 8.97919 53.7081 8.94199 53.7979 8.92333C53.8876 8.90467 53.9801 8.90496 54.0697 8.92417C54.1593 8.94337 54.2442 8.9811 54.319 9.03502C54.4717 9.14848 54.5765 9.31694 54.6122 9.50631C54.6479 9.69567 54.6118 9.8918 54.5111 10.055Z" fill="#263238"/>
<path d="M54.2391 11.419C54.2402 11.5335 54.2082 11.6458 54.1471 11.7419C54.086 11.8379 53.9985 11.9134 53.8955 11.959C53.7926 12.0045 53.6787 12.0181 53.5683 11.998C53.4578 11.9778 53.3556 11.9249 53.2745 11.8458C53.1933 11.7667 53.1368 11.665 53.1121 11.5533C53.0873 11.4416 53.0953 11.3249 53.1352 11.2178C53.175 11.1107 53.2449 11.018 53.3361 10.9513C53.4273 10.8846 53.5357 10.8468 53.6478 10.8426C53.8002 10.8424 53.9467 10.9023 54.0568 11.0097C54.167 11.117 54.2323 11.2637 54.2391 11.419Z" fill="#263238"/>
<g style="mix-blend-mode:multiply" opacity="0.5">
<g style="mix-blend-mode:multiply" opacity="0.5">
<path d="M51.5488 11.075L51.6257 14.5816L53.435 14.0173L51.5488 11.075Z" fill="#F28F8F"/>
</g>
</g>
<g style="mix-blend-mode:multiply" opacity="0.5">
<g style="mix-blend-mode:multiply" opacity="0.5">
<path d="M49.0034 18.9784C47.5429 18.7792 44.5451 17.886 44.0839 16.6729C44.2696 17.2859 44.6349 17.8261 45.1304 18.2209C46.0233 19.0116 48.9974 19.9169 48.9974 19.9169L49.0034 18.9784Z" fill="#F28F8F"/>
</g>
</g>
<path d="M39.0727 21.7878C36.2109 21.9961 35.0312 22.3672 33.4377 25.9764C32.0039 29.2204 28.5744 37.6157 27.7171 39.4867C26.8597 41.3577 26.6971 42.1091 27.4214 44.0676C28.0127 45.6639 32.8435 54.8347 33.3727 56.1716C33.9019 57.5084 34.1355 58.8603 35.0372 60.4175C35.9389 61.9746 37.3639 63.4955 38.4903 63.8546C40.1606 64.3888 42.3336 63.6464 42.3957 62.6174C42.4578 61.5883 39.9448 59.8713 39.2619 57.5869C39.7164 57.8917 40.195 58.1571 40.6928 58.3805C41.3698 58.6642 42.1267 58.6008 42.3514 58.2085C42.576 57.8162 41.899 57.5778 41.2959 56.9652C40.9352 56.6001 40.2966 55.7793 39.4807 55.055C38.9278 54.5661 38.0232 54.4213 37.6152 53.8841C37.3964 53.5975 36.403 51.1139 35.6551 48.9019C34.7326 46.1588 33.5176 42.5074 33.5176 42.5074L38.4903 31.9454C38.4903 31.9454 42.3898 27.9741 39.0727 21.7878Z" fill="#FFEDE5"/>
<path d="M33.3639 56.1715C33.3639 56.1715 34.508 53.8087 37.6064 53.8841L36.7874 52.0252C36.7874 52.0252 33.763 52.2425 32.4888 54.3337L33.3639 56.1715Z" fill="#37474F"/>
<path d="M33.0298 54.1648L33.695 55.1274C33.7431 55.1974 33.8046 55.2568 33.8757 55.302C33.9468 55.3472 34.0262 55.3773 34.1089 55.3906C34.1917 55.4038 34.2763 55.3999 34.3575 55.3791C34.4388 55.3582 34.5151 55.3209 34.5819 55.2693L35.7645 54.364C35.9019 54.2565 35.9941 54.0996 36.0221 53.9252C36.0501 53.7508 36.0119 53.5721 35.9153 53.4255L35.2974 52.496C35.2509 52.4243 35.1906 52.363 35.1201 52.3158C35.0497 52.2686 34.9705 52.2365 34.8876 52.2216C34.8046 52.2066 34.7195 52.209 34.6375 52.2287C34.5554 52.2484 34.4782 52.2849 34.4104 52.3361L33.1569 53.2414C33.0204 53.3469 32.9304 53.5032 32.9066 53.6763C32.8828 53.8494 32.9271 54.025 33.0298 54.1648V54.1648Z" fill="#263238"/>
<path d="M32.808 54.1406L33.4792 55.1033C33.5276 55.1729 33.5892 55.232 33.6603 55.277C33.7314 55.3219 33.8107 55.3519 33.8933 55.3651C33.976 55.3783 34.0604 55.3745 34.1416 55.3539C34.2228 55.3333 34.2991 55.2963 34.3661 55.2451L35.5487 54.3398C35.686 54.2324 35.7783 54.0757 35.8068 53.9015C35.8353 53.7273 35.798 53.5485 35.7024 53.4013L35.0845 52.4718C35.0377 52.4004 34.9773 52.3394 34.9068 52.2925C34.8364 52.2456 34.7573 52.2137 34.6745 52.1987C34.5916 52.1838 34.5066 52.1861 34.4247 52.2056C34.3427 52.225 34.2655 52.2612 34.1976 52.3119L32.944 53.2323C32.8097 53.3356 32.7203 53.4885 32.6949 53.6582C32.6695 53.8279 32.7101 54.001 32.808 54.1406Z" fill="#455A64"/>
<path d="M35.5812 53.8238C35.5663 53.9432 35.5057 54.0516 35.4127 54.1256L34.2301 55.0309C34.189 55.0644 34.1413 55.0884 34.0903 55.1014C34.0393 55.1145 33.9862 55.1161 33.9345 55.1063C33.8838 55.0983 33.8352 55.0801 33.7915 55.0526C33.7478 55.0251 33.71 54.989 33.6802 54.9464L33.0062 53.9807C32.9493 53.9005 32.924 53.8014 32.9352 53.7031C32.9392 53.6434 32.9561 53.5854 32.9848 53.5332C33.0134 53.4811 33.053 53.436 33.1008 53.4013L34.3543 52.496C34.3962 52.4643 34.4441 52.4417 34.495 52.4297C34.5459 52.4178 34.5986 52.4167 34.6499 52.4266C34.7006 52.4357 34.7489 52.4551 34.7921 52.4836C34.8352 52.5121 34.8723 52.5492 34.9012 52.5926L35.5191 53.522C35.5771 53.6108 35.6023 53.7178 35.5901 53.8238H35.5812Z" fill="url(#paint9_linear_393_477)"/>
</g>
<defs>
<linearGradient id="paint0_linear_393_477" x1="30.4628" y1="54.0938" x2="30.4628" y2="55.0552" gradientUnits="userSpaceOnUse">
<stop stop-color="#2ECC71"/>
<stop offset="1" stop-color="#158053"/>
</linearGradient>
<linearGradient id="paint1_linear_393_477" x1="30.4226" y1="55.4691" x2="30.4226" y2="56.3949" gradientUnits="userSpaceOnUse">
<stop stop-color="#2ECC71"/>
<stop offset="1" stop-color="#158053"/>
</linearGradient>
<linearGradient id="paint2_linear_393_477" x1="31.0767" y1="56.2624" x2="31.0767" y2="58.0015" gradientUnits="userSpaceOnUse">
<stop stop-color="#2ECC71"/>
<stop offset="1" stop-color="#158053"/>
</linearGradient>
<linearGradient id="paint3_linear_393_477" x1="32.2061" y1="56.7543" x2="32.2061" y2="58.9511" gradientUnits="userSpaceOnUse">
<stop stop-color="#2ECC71"/>
<stop offset="1" stop-color="#158053"/>
</linearGradient>
<linearGradient id="paint4_linear_393_477" x1="21.2243" y1="77.1899" x2="16.1681" y2="76.2423" gradientUnits="userSpaceOnUse">
<stop stop-color="#92A3FD"/>
<stop offset="1" stop-color="#9DCEFF"/>
</linearGradient>
<linearGradient id="paint5_linear_393_477" x1="21.7632" y1="75.2283" x2="16.7218" y2="74.3684" gradientUnits="userSpaceOnUse">
<stop stop-color="#92A3FD"/>
<stop offset="1" stop-color="#9DCEFF"/>
</linearGradient>
<linearGradient id="paint6_linear_393_477" x1="72.974" y1="82.4665" x2="68.276" y2="81.762" gradientUnits="userSpaceOnUse">
<stop stop-color="#92A3FD"/>
<stop offset="1" stop-color="#9DCEFF"/>
</linearGradient>
<linearGradient id="paint7_linear_393_477" x1="74.8927" y1="83.6792" x2="69.6961" y2="82.8314" gradientUnits="userSpaceOnUse">
<stop stop-color="#92A3FD"/>
<stop offset="1" stop-color="#9DCEFF"/>
</linearGradient>
<linearGradient id="paint8_linear_393_477" x1="77.0124" y1="84.738" x2="71.8837" y2="83.9169" gradientUnits="userSpaceOnUse">
<stop stop-color="#92A3FD"/>
<stop offset="1" stop-color="#9DCEFF"/>
</linearGradient>
<linearGradient id="paint9_linear_393_477" x1="34.2628" y1="52.4199" x2="34.2628" y2="55.1126" gradientUnits="userSpaceOnUse">
<stop stop-color="#53E88B"/>
<stop offset="1" stop-color="#15BE77"/>
</linearGradient>
<clipPath id="clip0_393_477">
<rect width="73" height="90" fill="white" transform="translate(13)"/>
</clipPath>
</defs>
</svg>
