<svg width="50" height="50" viewBox="0 0 50 50" fill="none" xmlns="http://www.w3.org/2000/svg">
<circle opacity="0.3" cx="25" cy="25" r="25" fill="url(#paint0_linear_212_1092)"/>
<mask id="mask0_212_1092" style="mask-type:alpha" maskUnits="userSpaceOnUse" x="0" y="0" width="50" height="50">
<circle cx="25" cy="25" r="25" fill="#C4C4C4"/>
</mask>
<g mask="url(#mask0_212_1092)">
<g clip-path="url(#clip0_212_1092)">
<g opacity="0.3">
<path opacity="0.3" d="M17.2125 29.7039H17.1926L16.4285 29.4818C16.4023 29.4736 16.3803 29.4553 16.3672 29.4307C16.354 29.4061 16.3509 29.3773 16.3583 29.3504C16.3658 29.3234 16.3833 29.3006 16.4071 29.2867C16.4309 29.2728 16.459 29.2689 16.4856 29.276L17.2444 29.4953C17.2684 29.5034 17.2888 29.52 17.3018 29.5422C17.3147 29.5644 17.3194 29.5907 17.3148 29.6161C17.3103 29.6415 17.2969 29.6644 17.2771 29.6806C17.2574 29.6967 17.2325 29.705 17.2072 29.7039H17.2125Z" fill="url(#paint1_linear_212_1092)"/>
<path opacity="0.3" d="M16.4286 30.3051C16.4069 30.3031 16.3864 30.2943 16.3698 30.2801C16.3532 30.2658 16.3413 30.2466 16.3357 30.2252C16.3315 30.2112 16.3302 30.1964 16.3319 30.1818C16.3335 30.1672 16.3381 30.1531 16.3453 30.1404C16.3525 30.1277 16.3622 30.1167 16.3738 30.108C16.3854 30.0993 16.3986 30.0931 16.4127 30.0898L17.1768 29.8921C17.2033 29.8863 17.231 29.8912 17.254 29.9057C17.2771 29.9203 17.2937 29.9434 17.3004 29.9703C17.3071 29.9971 17.3034 30.0255 17.29 30.0496C17.2765 30.0737 17.2545 30.0915 17.2285 30.0993L16.4631 30.297C16.4521 30.3017 16.4404 30.3044 16.4286 30.3051V30.3051Z" fill="url(#paint2_linear_212_1092)"/>
<path opacity="0.3" d="M16.8187 31.0256C16.7935 31.0231 16.77 31.0116 16.7523 30.9931C16.733 30.9731 16.7221 30.9461 16.7221 30.9179C16.7221 30.8898 16.733 30.8628 16.7523 30.8428L17.3174 30.2809C17.3271 30.27 17.3387 30.2614 17.3518 30.2553C17.3648 30.2493 17.3789 30.2461 17.3932 30.2458C17.4075 30.2456 17.4217 30.2483 17.435 30.2539C17.4482 30.2594 17.4602 30.2677 17.4701 30.2781C17.4801 30.2886 17.4879 30.301 17.493 30.3147C17.4981 30.3283 17.5004 30.3429 17.4997 30.3575C17.4991 30.3721 17.4955 30.3864 17.4893 30.3995C17.483 30.4127 17.4742 30.4243 17.4634 30.4339L16.9009 30.9985C16.8898 31.0086 16.8767 31.0162 16.8626 31.0209C16.8484 31.0255 16.8335 31.0271 16.8187 31.0256V31.0256Z" fill="url(#paint3_linear_212_1092)"/>
<path opacity="0.3" d="M17.5043 31.4519H17.4844C17.4709 31.448 17.4582 31.4414 17.4472 31.4324C17.4362 31.4235 17.4271 31.4123 17.4205 31.3997C17.4138 31.3871 17.4096 31.3732 17.4083 31.3589C17.407 31.3446 17.4085 31.3302 17.4128 31.3165L17.6224 30.5419C17.6304 30.5152 17.6484 30.4927 17.6724 30.4793C17.6965 30.4659 17.7248 30.4627 17.7511 30.4703C17.7775 30.4779 17.7999 30.4958 17.8135 30.52C17.8272 30.5443 17.8309 30.5731 17.824 30.6002L17.6091 31.3747C17.6026 31.3977 17.5888 31.4178 17.5698 31.4317C17.5508 31.4457 17.5277 31.4528 17.5043 31.4519Z" fill="url(#paint4_linear_212_1092)"/>
</g>
<path d="M38.2281 19.4277L36.3272 20.5448L32.1644 21.1595C32.1644 21.1595 29.1252 16.4989 28.6596 15.7663C28.194 15.0338 27.6488 14.5639 26.3872 14.5652L26.626 18.2835C26.6658 18.404 29.1823 21.5685 30.8418 23.2935C31.4282 23.9015 31.7877 24.0572 32.699 23.7972C35.0377 23.1351 37.8726 21.1731 38.1008 20.6829C38.4072 20.0424 38.2056 19.4412 38.2281 19.4277Z" fill="#FFEDE5"/>
<path d="M37.4466 17.0705C37.6959 16.2391 38.7147 15.5621 39.6606 15.8329C39.8104 15.8752 39.954 15.9376 40.0877 16.0184C41.0163 16.5601 41.7552 17.8803 41.7552 18.9662C41.7583 19.1496 41.7332 19.3324 41.6809 19.5078V19.5078C41.4329 20.3379 40.4167 21.0203 39.4669 20.7482C39.3173 20.7053 39.1737 20.643 39.0398 20.5627C38.1191 20.021 37.3723 18.6995 37.3723 17.6135C37.3696 17.4297 37.3946 17.2466 37.4466 17.0705Z" fill="url(#paint5_linear_212_1092)"/>
<path d="M39.0412 20.5545C38.1206 20.0128 37.3737 18.6913 37.3737 17.6053C37.3737 16.5193 38.1206 16.0806 39.0412 16.6223C39.9619 17.1639 40.7048 18.4841 40.7048 19.5701C40.7048 20.656 39.9619 21.0961 39.0412 20.5545Z" fill="url(#paint6_linear_212_1092)"/>
<path d="M39.041 17.826C38.6869 17.6175 38.399 17.7868 38.399 18.2038C38.411 18.4312 38.4755 18.6524 38.587 18.8496C38.6986 19.0467 38.8541 19.2142 39.041 19.3385C39.3952 19.547 39.6818 19.3778 39.6818 18.9607C39.67 18.7335 39.6058 18.5123 39.4945 18.3151C39.3831 18.1179 39.2278 17.9504 39.041 17.826V17.826Z" fill="url(#paint7_linear_212_1092)"/>
<path d="M38.821 18.4532C38.8252 18.5311 38.8474 18.6068 38.8856 18.6743C38.9239 18.7418 38.9772 18.7992 39.0412 18.8418C39.0622 18.8573 39.0866 18.8672 39.1123 18.8707C39.138 18.8743 39.1641 18.8713 39.1884 18.8621L39.2043 18.8526C39.2233 18.836 39.2382 18.8152 39.2479 18.7917C39.2576 18.7682 39.2617 18.7427 39.26 18.7172C39.2558 18.6395 39.2338 18.5639 39.1958 18.4964C39.1578 18.4289 39.1048 18.3714 39.0412 18.3286C39.0201 18.3132 38.9957 18.3032 38.97 18.2997C38.9443 18.2961 38.9182 18.2991 38.8939 18.3083L38.878 18.3178C38.8587 18.3342 38.8435 18.355 38.8336 18.3785C38.8237 18.402 38.8193 18.4276 38.821 18.4532V18.4532Z" fill="url(#paint8_linear_212_1092)"/>
<path d="M35.299 20.529C35.3031 20.6067 35.325 20.6824 35.363 20.7499C35.401 20.8174 35.4541 20.8748 35.5178 20.9176C35.5464 20.9364 35.5794 20.9467 35.6133 20.9474C35.6391 20.9468 35.6643 20.9394 35.6863 20.9257L39.1884 18.8621L39.2044 18.8526C39.2233 18.836 39.2382 18.8152 39.2479 18.7917C39.2576 18.7682 39.2618 18.7427 39.2601 18.7172C39.2559 18.6395 39.2339 18.5639 39.1959 18.4964C39.1579 18.4289 39.1049 18.3714 39.0412 18.3286C39.0202 18.3132 38.9957 18.3032 38.9701 18.2997C38.9444 18.2961 38.9182 18.2991 38.8939 18.3083L38.878 18.3178L35.3759 20.3814C35.3508 20.3961 35.3302 20.4177 35.3166 20.4438C35.303 20.47 35.2969 20.4995 35.299 20.529Z" fill="#FAFAFA"/>
<path d="M31.8619 20.3624C32.11 19.5324 33.1261 18.8459 34.0759 19.118C34.2259 19.1611 34.3698 19.2234 34.5044 19.3035C35.425 19.8451 36.1719 21.1667 36.1719 22.2527C36.1741 22.436 36.1491 22.6186 36.0976 22.7943C35.8482 23.6243 34.8334 24.3068 33.8836 24.036C33.7341 23.9929 33.5905 23.9305 33.4564 23.8505C32.5358 23.3088 31.7889 21.9873 31.7889 20.9027C31.7859 20.7198 31.8105 20.5376 31.8619 20.3624V20.3624Z" fill="url(#paint9_linear_212_1092)"/>
<path d="M33.455 23.845C32.5344 23.3033 31.7875 21.9818 31.7875 20.8972C31.7875 19.8126 32.5344 19.3711 33.455 19.9128C34.3756 20.4544 35.1225 21.7759 35.1225 22.8619C35.1225 23.9479 34.377 24.3879 33.455 23.845Z" fill="url(#paint10_linear_212_1092)"/>
<path d="M33.4549 21.1139C33.1007 20.904 32.8142 21.0733 32.8142 21.4917C32.8262 21.7187 32.8905 21.9397 33.0018 22.1366C33.1131 22.3335 33.2683 22.5009 33.4549 22.6251C33.8091 22.8336 34.097 22.6643 34.097 22.2473C34.0847 22.0202 34.0202 21.7992 33.9086 21.6023C33.7971 21.4054 33.6416 21.238 33.4549 21.1139V21.1139Z" fill="url(#paint11_linear_212_1092)"/>
<path d="M33.2361 21.7432C33.2402 21.821 33.2621 21.8967 33.3002 21.9642C33.3382 22.0317 33.3912 22.0891 33.455 22.1318C33.476 22.1473 33.5004 22.1572 33.5261 22.1608C33.5518 22.1643 33.5779 22.1614 33.6022 22.1522C33.6081 22.1501 33.6135 22.1469 33.6181 22.1427C33.6373 22.1262 33.6525 22.1054 33.6624 22.0819C33.6723 22.0584 33.6767 22.0328 33.6752 22.0073C33.6708 21.9294 33.6486 21.8537 33.6104 21.7862C33.5721 21.7187 33.5189 21.6613 33.455 21.6187C33.434 21.6036 33.4097 21.5941 33.3843 21.5908C33.3589 21.5875 33.333 21.5905 33.309 21.5997L33.2931 21.6092C33.2739 21.6253 33.2586 21.6458 33.2487 21.6692C33.2388 21.6925 33.2345 21.7179 33.2361 21.7432V21.7432Z" fill="url(#paint12_linear_212_1092)"/>
<path d="M32.7055 22.0618C32.7093 22.1396 32.7311 22.2154 32.7692 22.2829C32.8072 22.3505 32.8604 22.4079 32.9244 22.4504C32.9529 22.4691 32.986 22.4795 33.0199 22.4802C33.0457 22.4795 33.0708 22.472 33.0929 22.4585L33.6023 22.1579C33.6081 22.1558 33.6136 22.1526 33.6182 22.1484C33.6374 22.132 33.6526 22.1111 33.6625 22.0876C33.6724 22.0641 33.6767 22.0386 33.6752 22.013C33.6709 21.9352 33.6487 21.8594 33.6104 21.792C33.5722 21.7245 33.519 21.6671 33.455 21.6244C33.434 21.6094 33.4098 21.5998 33.3844 21.5965C33.3589 21.5932 33.3331 21.5963 33.3091 21.6054L33.2932 21.6149L32.7825 21.9142C32.7573 21.9289 32.7368 21.9505 32.7231 21.9766C32.7095 22.0028 32.7034 22.0323 32.7055 22.0618Z" fill="#FAFAFA"/>
<path d="M32.7055 22.0615C32.7094 22.1395 32.7313 22.2155 32.7693 22.2832C32.8073 22.351 32.8605 22.4086 32.9244 22.4515C32.9456 22.4665 32.9701 22.4761 32.9957 22.4794C33.0214 22.4827 33.0474 22.4796 33.0716 22.4705L33.0876 22.461C33.1069 22.4447 33.1222 22.4239 33.1321 22.4003C33.1421 22.3768 33.1463 22.3512 33.1446 22.3256C33.1401 22.2476 33.1179 22.1717 33.0797 22.104C33.0415 22.0363 32.9883 21.9787 32.9244 21.9356C32.9032 21.9206 32.8787 21.911 32.853 21.9077C32.8274 21.9044 32.8014 21.9075 32.7771 21.9167L32.7612 21.9261C32.7422 21.9427 32.7272 21.9635 32.7175 21.987C32.7078 22.0106 32.7037 22.0361 32.7055 22.0615Z" fill="#E0E0E0"/>
<path d="M37.0129 21.6361C37.8181 21.0092 38.5901 21.0133 38.4509 19.4805C38.3328 18.8034 38.1683 18.7547 37.5223 18.4974C37.2384 18.385 36.859 18.2997 36.6321 18.5651C36.6072 18.5985 36.5797 18.6297 36.5499 18.6586C36.483 18.7021 36.4062 18.7272 36.327 18.7317C36.1758 18.7392 36.032 18.8011 35.9211 18.9063C35.8455 18.9944 35.8163 19.1149 35.742 19.2029C35.6706 19.2719 35.5939 19.3348 35.5125 19.3911C35.4542 19.4427 35.4072 19.5063 35.3745 19.5777C35.3418 19.6491 35.3242 19.7267 35.3228 19.8054C35.3282 19.8955 35.3528 19.9833 35.395 20.0626C35.4371 20.1419 35.4958 20.2108 35.5669 20.2645L35.9728 20.0262C36.1387 19.9097 36.4809 20.3254 36.3337 20.5448C36.0989 20.8941 37.0129 21.6361 37.0129 21.6361Z" fill="#FFEDE5"/>
<path d="M27.6341 24.718C27.8915 23.6564 27.9658 21.0038 27.9658 21.0038L20.4335 21.234L20.8434 22.9089C20.9111 23.2865 20.947 23.6693 20.9509 24.0531C20.9509 24.0531 21.6818 25.4356 23.8494 25.678C25.1813 25.8076 26.5166 25.4689 27.6341 24.718Z" fill="#FFEDE5"/>
<path d="M27.9698 21.004C27.9791 21.088 27.926 21.8909 27.926 21.8909C26.9629 22.7183 23.8734 23.1367 20.6299 22.0358L19.9427 19.3277C19.9427 19.3277 22.2749 18.2824 20.6989 14.7753L22.3929 14.6399L25.4002 14.5627H26.3872C27.1987 15.3675 27.8846 16.2945 28.4208 17.3115C28.8148 18.0616 29.3163 19.1611 27.9698 21.004Z" fill="url(#paint13_linear_212_1092)"/>
<path d="M23.7075 21.0283C22.3505 20.6749 22.0109 19.8097 21.914 19.1733C21.914 19.1733 21.658 21.0283 23.5974 21.4603C25.643 21.9153 26.4841 20.2619 26.4841 20.2619C26.4841 20.2619 25.3445 21.4549 23.7075 21.0283Z" fill="url(#paint14_linear_212_1092)"/>
<path d="M12.1558 41.6708C11.7578 41.9673 10.8411 42.0391 10.0333 41.6518C9.22538 41.2646 8.88843 40.1624 9.03966 39.3107C9.22272 38.2721 9.72549 37.7047 9.85284 37.0792C9.98019 36.4536 9.85284 35.5897 10.0465 35.0318C10.1264 34.8174 10.2507 34.6231 10.411 34.4623C10.5712 34.3015 10.7637 34.178 10.9751 34.1002C11.1099 34.0471 11.2548 34.0261 11.3988 34.039C11.5428 34.052 11.6819 34.0984 11.8055 34.1747L12.0443 34.3182L12.1558 41.6708Z" fill="#1D1617"/>
<path d="M13.1042 37.7103L12.4754 39.6357C12.4754 39.6357 12.8734 41.0088 12.6492 41.3744C12.3189 41.916 11.7365 42.0108 10.7562 41.7048C9.63524 41.3568 9.37126 40.3209 9.42963 39.5166C9.50922 38.3697 10.5479 37.5072 10.4285 36.4022C10.3702 35.8606 10.4431 35.2554 10.7336 34.7896C11.0586 34.2696 11.5919 34.1721 12.1451 34.3414C12.62 34.4876 13.0366 34.7923 13.4385 35.078C13.5539 35.1529 13.6584 35.2441 13.7489 35.3488C13.8209 35.4468 13.8749 35.5574 13.9081 35.6751C13.9808 35.9117 14.0026 36.1616 13.9718 36.4077C13.9426 36.6378 13.798 36.7719 13.664 36.9493L13.1042 37.7103Z" fill="#1D1617"/>
<path d="M15.8144 36.799C15.7759 36.7842 13.855 35.5303 13.6481 35.4355C13.4411 35.3407 12.9317 35.2067 12.4396 36.3698C12.088 37.1971 12.5935 37.5032 12.5935 37.5032L14.8486 38.8708L15.8144 36.799Z" fill="#FFEDE5"/>
<path d="M12.4755 39.6359C12.069 39.4285 11.6191 39.3258 11.1648 39.3366C11.1311 39.3398 11.0971 39.3346 11.0658 39.3213C11.0346 39.3079 11.007 39.287 10.9855 39.2602C10.964 39.2335 10.9493 39.2018 10.9426 39.1679C10.936 39.134 10.9376 39.0989 10.9473 39.0658V39.0658C10.96 39.0263 10.984 38.9916 11.0161 38.9661C11.0482 38.9405 11.0871 38.9253 11.1277 38.9223C11.4315 38.8979 12.169 38.8884 12.6585 39.3001C12.7885 39.5682 12.4755 39.6359 12.4755 39.6359Z" fill="#1D1617"/>
<path d="M12.7063 38.7556C12.3111 38.5271 11.867 38.4011 11.4129 38.3886C11.3787 38.3903 11.3446 38.3834 11.3137 38.3684C11.2828 38.3533 11.256 38.3307 11.2358 38.3025C11.2156 38.2744 11.2025 38.2415 11.1977 38.2069C11.193 38.1723 11.1967 38.137 11.2086 38.1043V38.1043C11.2233 38.0654 11.2488 38.0318 11.2821 38.0077C11.3154 37.9836 11.3549 37.9701 11.3957 37.9688C11.7008 37.9607 12.4384 37.9919 12.9066 38.4279C13.022 38.7055 12.7063 38.7556 12.7063 38.7556Z" fill="#1D1617"/>
<path opacity="0.3" d="M12.4755 39.6359C12.069 39.4285 11.6191 39.3258 11.1648 39.3366C11.1311 39.3398 11.0971 39.3346 11.0658 39.3213C11.0346 39.3079 11.007 39.287 10.9855 39.2602C10.964 39.2335 10.9493 39.2018 10.9426 39.1679C10.936 39.134 10.9376 39.0989 10.9473 39.0658V39.0658C10.96 39.0263 10.984 38.9916 11.0161 38.9661C11.0482 38.9405 11.0871 38.9253 11.1277 38.9223C11.4315 38.8979 12.169 38.8884 12.6585 39.3001C12.7885 39.5682 12.4755 39.6359 12.4755 39.6359Z" fill="url(#paint15_linear_212_1092)"/>
<path opacity="0.3" d="M12.7063 38.7556C12.3111 38.5271 11.867 38.4011 11.4129 38.3886C11.3787 38.3903 11.3446 38.3834 11.3137 38.3684C11.2828 38.3533 11.256 38.3307 11.2358 38.3025C11.2156 38.2744 11.2025 38.2415 11.1977 38.2069C11.193 38.1723 11.1967 38.137 11.2086 38.1043V38.1043C11.2233 38.0654 11.2488 38.0318 11.2821 38.0077C11.3154 37.9836 11.3549 37.9701 11.3957 37.9688C11.7008 37.9607 12.4384 37.9919 12.9066 38.4279C13.022 38.7055 12.7063 38.7556 12.7063 38.7556Z" fill="url(#paint16_linear_212_1092)"/>
<path d="M32.2825 41.8796L34.7777 40.8694C34.7353 40.2127 34.5761 39.338 34.7419 37.6197L31.911 37.0699V39.9622L32.2825 41.8796Z" fill="#FFEDE5"/>
<path d="M39.4021 44.1162C39.4684 44.3213 39.456 44.5443 39.3676 44.7404C39.2827 44.9232 38.3474 45.4608 37.0859 45.3741C36.1504 45.3072 35.2494 44.9861 34.4765 44.4439C33.9963 44.1189 33.4949 44.058 32.8714 44.0214C32.2479 43.9849 31.4254 43.6667 31.2888 43.3688C31.1522 43.0709 31.31 42.5563 31.31 42.5563L39.4021 44.1162Z" fill="#1D1617"/>
<path d="M34.312 40.0974L34.4114 40.0757C34.4655 40.0609 34.5221 40.0581 34.5773 40.0676C34.6385 40.0869 34.693 40.1241 34.7338 40.1745C34.8573 40.3352 34.9648 40.508 35.0548 40.6904C35.3201 41.1305 35.8747 41.4961 36.4809 41.8278C36.8935 42.054 37.2967 42.2341 37.7226 42.425C38.1484 42.6159 38.7321 42.7459 39.0717 42.9801C39.5665 43.32 39.6315 44.1758 39.0717 44.513C38.5862 44.8054 37.306 45.1209 35.9635 44.7323C35.2313 44.5211 34.4194 43.7235 33.4603 43.6491C32.8501 43.6003 31.6946 43.4256 31.302 42.9531C31.1574 42.7432 31.3511 42.077 31.5103 41.5029C31.684 40.8759 31.7477 39.771 31.952 39.8265C31.952 39.8265 31.8963 39.9823 31.9759 40.0662C32.0555 40.1502 32.3354 40.3181 32.4176 40.3885C32.5552 40.5317 32.6662 40.6991 32.7453 40.8827C32.7782 40.9656 32.8394 41.0335 32.9177 41.0736C33.0212 41.1129 33.0981 41.0465 33.183 41.0046C33.2978 40.9521 33.4271 40.943 33.5479 40.9788C33.5362 40.8545 33.5145 40.7313 33.4829 40.6105C33.4693 40.5724 33.4661 40.5312 33.4736 40.4914C33.4903 40.4542 33.5175 40.4231 33.5518 40.402C33.7816 40.2473 34.0405 40.1436 34.312 40.0974Z" fill="#1D1617"/>
<path d="M35.9106 41.4896C35.9106 41.4896 35.823 41.2499 35.4609 41.1822C35.1823 41.1294 34.6915 41.3379 34.3864 41.5884C34.3577 41.6126 34.3351 41.6436 34.3208 41.6786C34.3064 41.7137 34.3006 41.7517 34.3039 41.7896C34.3071 41.8274 34.3194 41.8639 34.3395 41.8959C34.3597 41.9278 34.3871 41.9543 34.4195 41.973V41.973C34.4612 41.9973 34.5093 42.0075 34.5569 42.0021C34.6046 41.9968 34.6494 41.9761 34.6848 41.9432C35.0207 41.6361 35.4599 41.4735 35.9106 41.4896V41.4896Z" fill="#1D1617"/>
<path d="M36.7714 41.9811C36.7113 41.8945 36.6318 41.8239 36.5394 41.7752C36.4471 41.7264 36.3447 41.7009 36.2408 41.7008C36.2408 41.7008 35.5152 41.7225 35.0655 42.149C35.0381 42.1725 35.0166 42.2024 35.0029 42.2362C34.9893 42.2699 34.9837 42.3066 34.9869 42.343C34.99 42.3794 35.0017 42.4144 35.0209 42.4453C35.0401 42.4761 35.0663 42.5017 35.0973 42.52V42.52C35.1367 42.5424 35.1819 42.5515 35.2267 42.5462C35.2714 42.5408 35.3134 42.5212 35.3467 42.4902C35.5319 42.3022 35.756 42.1589 36.0025 42.0708C36.249 41.9827 36.5118 41.952 36.7714 41.9811Z" fill="#1D1617"/>
<path d="M37.7227 42.4253C37.6535 42.345 37.5681 42.2808 37.4724 42.2371C37.3768 42.1934 37.273 42.1712 37.1682 42.1721C37.1682 42.1721 36.4916 42.1978 36.0433 42.6243C36.0155 42.6476 35.9937 42.6774 35.9798 42.7111C35.9658 42.7448 35.9601 42.7815 35.9631 42.818C35.9661 42.8545 35.9777 42.8897 35.997 42.9206C36.0163 42.9515 36.0426 42.9772 36.0738 42.9954V42.9954C36.1134 43.0176 36.1589 43.0267 36.2038 43.0214C36.2487 43.016 36.2909 42.9965 36.3245 42.9656C36.5003 42.7707 36.7182 42.6203 36.961 42.5265C37.2037 42.4327 37.4645 42.3981 37.7227 42.4253Z" fill="#1D1617"/>
<path opacity="0.3" d="M35.9106 41.4896C35.9106 41.4896 35.823 41.2499 35.4609 41.1822C35.1823 41.1294 34.6915 41.3379 34.3864 41.5884C34.3577 41.6126 34.3351 41.6436 34.3208 41.6786C34.3064 41.7137 34.3006 41.7517 34.3039 41.7896C34.3071 41.8274 34.3194 41.8639 34.3395 41.8959C34.3597 41.9278 34.3871 41.9543 34.4195 41.973V41.973C34.4612 41.9973 34.5093 42.0075 34.5569 42.0021C34.6046 41.9968 34.6494 41.9761 34.6848 41.9432C35.0207 41.6361 35.4599 41.4735 35.9106 41.4896V41.4896Z" fill="url(#paint17_linear_212_1092)"/>
<path opacity="0.3" d="M36.7714 41.9811C36.7113 41.8945 36.6318 41.8239 36.5394 41.7752C36.4471 41.7264 36.3447 41.7009 36.2408 41.7008C36.2408 41.7008 35.5152 41.7225 35.0655 42.149C35.0381 42.1725 35.0166 42.2024 35.0029 42.2362C34.9893 42.2699 34.9837 42.3066 34.9869 42.343C34.99 42.3794 35.0017 42.4144 35.0209 42.4453C35.0401 42.4761 35.0663 42.5017 35.0973 42.52V42.52C35.1367 42.5424 35.1819 42.5515 35.2267 42.5462C35.2714 42.5408 35.3134 42.5212 35.3467 42.4902C35.5319 42.3022 35.756 42.1589 36.0025 42.0708C36.249 41.9827 36.5118 41.952 36.7714 41.9811Z" fill="url(#paint18_linear_212_1092)"/>
<path opacity="0.3" d="M37.7227 42.4253C37.6535 42.345 37.5681 42.2808 37.4724 42.2371C37.3768 42.1934 37.273 42.1712 37.1682 42.1721C37.1682 42.1721 36.4916 42.1978 36.0433 42.6243C36.0155 42.6476 35.9937 42.6774 35.9798 42.7111C35.9658 42.7448 35.9601 42.7815 35.9631 42.818C35.9661 42.8545 35.9777 42.8897 35.997 42.9206C36.0163 42.9515 36.0426 42.9772 36.0738 42.9954V42.9954C36.1134 43.0176 36.1589 43.0267 36.2038 43.0214C36.2487 43.016 36.2909 42.9965 36.3245 42.9656C36.5003 42.7707 36.7182 42.6203 36.961 42.5265C37.2037 42.4327 37.4645 42.3981 37.7227 42.4253Z" fill="url(#paint19_linear_212_1092)"/>
<path d="M33.9884 27.3544C32.0914 26.9198 27.5612 25.953 27.5612 25.953L27.6341 24.7181C25.9958 25.5847 22.5428 25.3396 20.9509 24.0532L20.7002 25.3626C20.0966 26.1002 19.5739 26.9029 19.1414 27.7566C18.778 28.4918 18.1704 29.6387 18.7753 32.3103C19.1308 33.8797 19.6044 38.0109 19.6044 38.0109L14.9614 36.2642C14.9614 36.2642 14.5635 36.3332 14.2265 37.2215C14.0275 37.7469 13.9612 38.2519 14.1628 38.5133C15.8608 39.8822 18.6121 42.1178 21.3926 43.3716C23.2498 44.0974 24.2368 42.5037 24.327 41.9133C24.6759 39.652 25.0778 32.3861 25.0778 32.3861L31.2861 32.1844C31.0805 33.3841 31.9163 38.0718 31.9163 38.0718C31.9163 38.0718 33.4445 38.7489 34.71 38.0556C34.71 38.0556 35.5564 32.661 35.6386 30.8614C35.7222 28.8547 35.823 27.7755 33.9884 27.3544Z" fill="#1D1617"/>
<path opacity="0.15" d="M31.2861 32.1845C31.2861 31.8609 31.4971 30.7302 32.2147 30.1277C32.2147 30.1277 31.2304 30.3078 30.7794 32.2008L31.2861 32.1845Z" fill="url(#paint20_linear_212_1092)"/>
<path opacity="0.15" d="M19.6044 38.011C19.6044 38.011 19.7371 39.7944 20.0714 40.6637C20.0714 40.6637 19.2343 39.12 19.1428 37.835L19.6044 38.011Z" fill="url(#paint21_linear_212_1092)"/>
<path opacity="0.15" d="M27.5597 25.9531L27.6327 24.7196C25.9944 25.5848 22.5427 25.3398 20.9521 24.0547L20.7014 25.3628C20.7147 25.375 21.7361 26.4528 24.3919 26.5923C27.0477 26.7317 27.5597 25.9531 27.5597 25.9531Z" fill="url(#paint22_linear_212_1092)"/>
<path opacity="0.15" d="M25.0831 32.3861C25.0611 31.7159 24.9058 31.0572 24.6267 30.4501C24.3475 29.8431 23.9504 29.3003 23.4594 28.8547C23.4594 28.8547 24.8867 29.5318 25.3643 31.6753C25.3643 31.6753 26.4256 31.1702 26.9801 29.6563C26.9801 29.6563 26.8103 31.1702 25.9559 32.0314L28.5308 32.2737L25.0831 32.3861Z" fill="url(#paint23_linear_212_1092)"/>
<path d="M24.2553 5.00025C23.7103 4.99936 23.1705 5.10814 22.6667 5.32038C22.1629 5.53261 21.705 5.84414 21.3192 6.23713C20.9335 6.63013 20.6274 7.09689 20.4185 7.61072C20.2096 8.12456 20.102 8.67538 20.1018 9.2317V9.2317C20.1018 9.78812 20.2093 10.3391 20.4181 10.8531C20.6269 11.3671 20.933 11.834 21.3188 12.2271C21.7045 12.6203 22.1625 12.9319 22.6663 13.1442C23.1702 13.3566 23.7102 13.4654 24.2553 13.4645V13.4645C25.3539 13.4627 26.4068 13.0159 27.1828 12.2223C27.9589 11.4286 28.3945 10.353 28.3942 9.2317V9.2317C28.3942 8.11062 27.9583 7.03536 27.1823 6.242C26.4063 5.44865 25.3536 5.00204 24.2553 5.00025V5.00025Z" fill="#1D1617"/>
<path d="M19.9242 7.57291C20.0742 7.56591 20.2244 7.57453 20.3726 7.59864C20.4229 7.60201 20.4701 7.62419 20.5053 7.66093C20.5257 7.69131 20.5372 7.72701 20.5384 7.76384C20.5727 7.99892 20.5513 8.23896 20.4761 8.46389C20.4177 8.62096 20.236 8.70085 20.1206 8.81459C19.6722 9.25872 19.6364 9.99398 19.8128 10.6047C19.9893 11.2153 20.3434 11.7597 20.5729 12.35C20.8024 12.9404 20.9245 13.6513 20.5995 14.2457C20.4734 14.4732 20.244 14.652 20.2718 14.9228C20.3036 15.2545 20.5875 15.5714 20.7096 15.8706C20.8435 16.2251 20.8891 16.6081 20.8422 16.985C20.8086 17.4537 20.6381 17.9013 20.3527 18.27C20.1346 18.5295 19.8529 18.7254 19.5365 18.8377C19.22 18.9499 18.8801 18.9746 18.5513 18.9091C18.4126 18.8844 18.2814 18.8274 18.1679 18.7426C17.9729 18.5828 17.8946 18.3215 17.7885 18.0899C17.4476 17.3411 16.7272 16.7968 16.5083 16.002C16.2709 15.1557 16.6662 14.2755 17.1517 13.5565C17.3786 13.2207 17.6319 12.8917 17.7434 12.499C17.8933 11.9696 17.7619 11.4063 17.7275 10.8552C17.6945 10.3168 17.7552 9.77683 17.9065 9.26008C18.0153 8.88635 18.1838 8.45576 18.469 8.18766C18.8693 7.81621 19.3839 7.59882 19.9242 7.57291Z" fill="#1D1617"/>
<path d="M26.8475 6.93652C27.3011 7.21411 27.8596 8.38537 27.7946 10.8362C27.7389 12.9134 27.077 13.4238 26.7453 13.5714C26.4137 13.719 25.7743 13.6242 25.1534 13.5159V14.763C25.1534 14.763 26.0077 15.784 25.9494 16.3567C25.891 16.9295 24.7077 17.0581 23.9065 16.4921C23.1052 15.9261 22.4327 14.8388 22.4327 14.8388L22.4592 11.9709C22.4592 11.9709 22.0891 12.3365 21.4696 11.7814C20.9615 11.3223 20.7917 10.5519 21.1923 10.1457C21.5929 9.73943 22.3292 9.84911 22.6104 10.4395C22.6104 10.4395 23.6 10.4801 24.9226 9.7462C25.4371 9.46514 25.8795 9.06429 26.214 8.57613C26.5484 8.08798 26.7654 7.52627 26.8475 6.93652Z" fill="#FFEDE5"/>
<path d="M25.5237 10.3053C25.5239 10.3567 25.5093 10.4069 25.4817 10.4499C25.4542 10.4928 25.4148 10.5265 25.3686 10.5467C25.3224 10.5669 25.2713 10.5728 25.2218 10.5636C25.1724 10.5544 25.1266 10.5306 25.0903 10.495C25.0541 10.4595 25.0288 10.4138 25.0178 10.3637C25.0068 10.3136 25.0105 10.2614 25.0284 10.2134C25.0464 10.1654 25.0777 10.1239 25.1186 10.094C25.1595 10.0641 25.2081 10.0472 25.2584 10.0453C25.3269 10.0453 25.3929 10.0723 25.4423 10.1208C25.4918 10.1693 25.5209 10.2354 25.5237 10.3053Z" fill="#1D1617"/>
<g style="mix-blend-mode:multiply" opacity="0.5">
<g style="mix-blend-mode:multiply" opacity="0.5">
<path d="M25.582 12.0672L26.175 12.2622C26.1642 12.3028 26.1455 12.3408 26.1199 12.3739C26.0944 12.407 26.0626 12.4344 26.0265 12.4547C25.9903 12.4749 25.9505 12.4875 25.9095 12.4916C25.8684 12.4958 25.827 12.4914 25.7876 12.4788C25.7076 12.451 25.6414 12.3924 25.6031 12.3156C25.5647 12.2387 25.5571 12.1496 25.582 12.0672Z" fill="#F28F8F"/>
</g>
</g>
<path d="M27.6261 9.51208L27.1101 9.14378C27.1317 9.10811 27.1603 9.07733 27.194 9.05335C27.2277 9.02936 27.2658 9.01266 27.3061 9.00429C27.3464 8.99592 27.3879 8.99605 27.4281 9.00467C27.4683 9.01329 27.5064 9.03021 27.5399 9.05441C27.6085 9.10532 27.6555 9.18091 27.6715 9.26588C27.6875 9.35085 27.6713 9.43885 27.6261 9.51208Z" fill="#1D1617"/>
<path d="M27.5041 10.124C27.5046 10.1754 27.4902 10.2258 27.4628 10.2689C27.4354 10.312 27.3961 10.3459 27.3499 10.3664C27.3037 10.3868 27.2526 10.3929 27.2031 10.3838C27.1535 10.3748 27.1076 10.3511 27.0712 10.3156C27.0348 10.2801 27.0095 10.2344 26.9984 10.1843C26.9872 10.1342 26.9908 10.0818 27.0087 10.0338C27.0266 9.98574 27.058 9.94414 27.0989 9.9142C27.1398 9.88425 27.1884 9.86728 27.2388 9.86542C27.3071 9.86535 27.3728 9.8922 27.4223 9.94038C27.4717 9.98856 27.501 10.0544 27.5041 10.124Z" fill="#1D1617"/>
<g style="mix-blend-mode:multiply" opacity="0.5">
<g style="mix-blend-mode:multiply" opacity="0.5">
<path d="M26.297 9.96954L26.3315 11.543L27.1433 11.2898L26.297 9.96954Z" fill="#F28F8F"/>
</g>
</g>
<g style="mix-blend-mode:multiply" opacity="0.5">
<g style="mix-blend-mode:multiply" opacity="0.5">
<path d="M25.1548 13.5161C24.4994 13.4268 23.1543 13.026 22.9474 12.4816C23.0307 12.7567 23.1946 12.9991 23.417 13.1763C23.8176 13.531 25.1521 13.9372 25.1521 13.9372L25.1548 13.5161Z" fill="#F28F8F"/>
</g>
</g>
<path d="M20.6988 14.7766C19.4147 14.87 18.8854 15.0366 18.1704 16.6561C17.527 18.1117 15.9882 21.8787 15.6035 22.7182C15.2188 23.5577 15.1458 23.8949 15.4708 24.7737C15.7362 25.49 17.9038 29.605 18.1412 30.2048C18.3787 30.8047 18.4835 31.4113 18.8881 32.11C19.2927 32.8087 19.9321 33.4911 20.4375 33.6523C21.187 33.8919 22.162 33.5588 22.1899 33.0971C22.2177 32.6354 21.0902 31.8649 20.7837 30.8399C20.9877 30.9766 21.2024 31.0957 21.4258 31.196C21.7296 31.3233 22.0692 31.2948 22.17 31.1188C22.2708 30.9428 21.967 30.8358 21.6964 30.5609C21.5346 30.3971 21.248 30.0288 20.8819 29.7038C20.6338 29.4844 20.2279 29.4195 20.0448 29.1784C19.9467 29.0498 19.5009 27.9354 19.1653 26.9429C18.7514 25.712 18.2062 24.0736 18.2062 24.0736L20.4375 19.3344C20.4375 19.3344 22.1872 17.5524 20.6988 14.7766Z" fill="#FFEDE5"/>
<path d="M18.1373 30.2047C18.1373 30.2047 18.6507 29.1444 20.0409 29.1783L19.6735 28.3442C19.6735 28.3442 18.3164 28.4417 17.7446 29.38L18.1373 30.2047Z" fill="url(#paint24_linear_212_1092)"/>
<path d="M17.9874 29.3041L18.2858 29.7361C18.3075 29.7675 18.335 29.7941 18.3669 29.8144C18.3989 29.8347 18.4344 29.8482 18.4716 29.8542C18.5087 29.8601 18.5467 29.8583 18.5831 29.849C18.6196 29.8396 18.6538 29.8229 18.6838 29.7997L19.2144 29.3935C19.2761 29.3453 19.3175 29.2749 19.33 29.1966C19.3426 29.1184 19.3255 29.0382 19.2821 28.9724L19.0048 28.5553C18.984 28.5231 18.9569 28.4956 18.9253 28.4745C18.8937 28.4533 18.8582 28.4389 18.821 28.4322C18.7837 28.4255 18.7455 28.4266 18.7087 28.4354C18.6719 28.4442 18.6373 28.4606 18.6069 28.4836L18.0444 28.8898C17.9832 28.9371 17.9428 29.0073 17.9321 29.0849C17.9214 29.1626 17.9413 29.2414 17.9874 29.3041V29.3041Z" fill="#1D1617"/>
<path d="M17.8878 29.2935L18.1889 29.7255C18.2106 29.7567 18.2383 29.7832 18.2702 29.8034C18.3021 29.8236 18.3377 29.837 18.3748 29.843C18.4118 29.8489 18.4497 29.8472 18.4862 29.8379C18.5226 29.8287 18.5568 29.8121 18.5869 29.7891L19.1175 29.3829C19.1791 29.3347 19.2205 29.2644 19.2333 29.1862C19.2461 29.1081 19.2294 29.0278 19.1865 28.9618L18.9092 28.5447C18.8883 28.5127 18.8611 28.4853 18.8295 28.4643C18.7979 28.4432 18.7624 28.4289 18.7253 28.4222C18.6881 28.4155 18.65 28.4165 18.6132 28.4253C18.5764 28.434 18.5417 28.4502 18.5113 28.473L17.9488 28.886C17.8885 28.9323 17.8484 29.0009 17.837 29.0771C17.8256 29.1532 17.8438 29.2309 17.8878 29.2935Z" fill="url(#paint25_linear_212_1092)"/>
<path d="M19.1321 29.1512C19.1254 29.2048 19.0982 29.2535 19.0565 29.2866L18.5259 29.6929C18.5074 29.7079 18.486 29.7187 18.4632 29.7245C18.4403 29.7304 18.4164 29.7311 18.3932 29.7267C18.3705 29.7231 18.3487 29.7149 18.3291 29.7026C18.3095 29.6903 18.2925 29.6741 18.2791 29.6549L17.9767 29.2216C17.9512 29.1857 17.9398 29.1412 17.9448 29.0971C17.9466 29.0703 17.9542 29.0443 17.9671 29.0209C17.9799 28.9974 17.9977 28.9772 18.0191 28.9617L18.5816 28.5554C18.6004 28.5412 18.6219 28.5311 18.6447 28.5257C18.6676 28.5204 18.6912 28.5199 18.7142 28.5243C18.737 28.5284 18.7587 28.5371 18.778 28.5499C18.7974 28.5627 18.814 28.5793 18.827 28.5988L19.1043 29.0158C19.1303 29.0557 19.1416 29.1037 19.1361 29.1512H19.1321Z" fill="#1D1617"/>
</g>
</g>
<defs>
<linearGradient id="paint0_linear_212_1092" x1="25" y1="0" x2="25" y2="50" gradientUnits="userSpaceOnUse">
<stop stop-color="#2ECC71"/>
<stop offset="1" stop-color="#158053"/>
</linearGradient>
<linearGradient id="paint1_linear_212_1092" x1="16.8355" y1="29.2725" x2="16.8355" y2="29.704" gradientUnits="userSpaceOnUse">
<stop stop-color="#53E88B"/>
<stop offset="1" stop-color="#15BE77"/>
</linearGradient>
<linearGradient id="paint2_linear_212_1092" x1="16.8174" y1="29.8897" x2="16.8174" y2="30.3051" gradientUnits="userSpaceOnUse">
<stop stop-color="#53E88B"/>
<stop offset="1" stop-color="#15BE77"/>
</linearGradient>
<linearGradient id="paint3_linear_212_1092" x1="17.111" y1="30.2458" x2="17.111" y2="31.0262" gradientUnits="userSpaceOnUse">
<stop stop-color="#53E88B"/>
<stop offset="1" stop-color="#15BE77"/>
</linearGradient>
<linearGradient id="paint4_linear_212_1092" x1="17.6176" y1="30.4662" x2="17.6176" y2="31.452" gradientUnits="userSpaceOnUse">
<stop stop-color="#53E88B"/>
<stop offset="1" stop-color="#15BE77"/>
</linearGradient>
<linearGradient id="paint5_linear_212_1092" x1="39.5638" y1="15.7723" x2="39.5638" y2="20.8089" gradientUnits="userSpaceOnUse">
<stop stop-color="#53E88B"/>
<stop offset="1" stop-color="#15BE77"/>
</linearGradient>
<linearGradient id="paint6_linear_212_1092" x1="39.0393" y1="16.3903" x2="39.0393" y2="20.7862" gradientUnits="userSpaceOnUse">
<stop stop-color="#53E88B"/>
<stop offset="1" stop-color="#15BE77"/>
</linearGradient>
<linearGradient id="paint7_linear_212_1092" x1="39.0404" y1="17.7368" x2="39.0404" y2="19.4278" gradientUnits="userSpaceOnUse">
<stop stop-color="#53E88B"/>
<stop offset="1" stop-color="#15BE77"/>
</linearGradient>
<linearGradient id="paint8_linear_212_1092" x1="39.0405" y1="18.2982" x2="39.0405" y2="18.8722" gradientUnits="userSpaceOnUse">
<stop stop-color="#53E88B"/>
<stop offset="1" stop-color="#15BE77"/>
</linearGradient>
<linearGradient id="paint9_linear_212_1092" x1="33.9803" y1="19.0575" x2="33.9803" y2="24.0962" gradientUnits="userSpaceOnUse">
<stop stop-color="#53E88B"/>
<stop offset="1" stop-color="#15BE77"/>
</linearGradient>
<linearGradient id="paint10_linear_212_1092" x1="33.455" y1="19.6813" x2="33.455" y2="24.0775" gradientUnits="userSpaceOnUse">
<stop stop-color="#53E88B"/>
<stop offset="1" stop-color="#15BE77"/>
</linearGradient>
<linearGradient id="paint11_linear_212_1092" x1="33.4556" y1="21.0238" x2="33.4556" y2="22.7143" gradientUnits="userSpaceOnUse">
<stop stop-color="#53E88B"/>
<stop offset="1" stop-color="#15BE77"/>
</linearGradient>
<linearGradient id="paint12_linear_212_1092" x1="33.4556" y1="21.5895" x2="33.4556" y2="22.1622" gradientUnits="userSpaceOnUse">
<stop stop-color="#53E88B"/>
<stop offset="1" stop-color="#15BE77"/>
</linearGradient>
<linearGradient id="paint13_linear_212_1092" x1="24.3954" y1="14.5627" x2="24.3954" y2="22.7015" gradientUnits="userSpaceOnUse">
<stop stop-color="#53E88B"/>
<stop offset="1" stop-color="#15BE77"/>
</linearGradient>
<linearGradient id="paint14_linear_212_1092" x1="24.1935" y1="19.1733" x2="24.1935" y2="21.5395" gradientUnits="userSpaceOnUse">
<stop stop-color="#53E88B"/>
<stop offset="1" stop-color="#15BE77"/>
</linearGradient>
<linearGradient id="paint15_linear_212_1092" x1="11.8144" y1="38.9127" x2="11.8144" y2="39.6359" gradientUnits="userSpaceOnUse">
<stop stop-color="#53E88B"/>
<stop offset="1" stop-color="#15BE77"/>
</linearGradient>
<linearGradient id="paint16_linear_212_1092" x1="12.0639" y1="37.9678" x2="12.0639" y2="38.7556" gradientUnits="userSpaceOnUse">
<stop stop-color="#53E88B"/>
<stop offset="1" stop-color="#15BE77"/>
</linearGradient>
<linearGradient id="paint17_linear_212_1092" x1="35.1068" y1="41.174" x2="35.1068" y2="42.0035" gradientUnits="userSpaceOnUse">
<stop stop-color="#53E88B"/>
<stop offset="1" stop-color="#15BE77"/>
</linearGradient>
<linearGradient id="paint18_linear_212_1092" x1="35.8787" y1="41.7008" x2="35.8787" y2="42.5477" gradientUnits="userSpaceOnUse">
<stop stop-color="#53E88B"/>
<stop offset="1" stop-color="#15BE77"/>
</linearGradient>
<linearGradient id="paint19_linear_212_1092" x1="36.8425" y1="42.1721" x2="36.8425" y2="43.0229" gradientUnits="userSpaceOnUse">
<stop stop-color="#53E88B"/>
<stop offset="1" stop-color="#15BE77"/>
</linearGradient>
<linearGradient id="paint20_linear_212_1092" x1="31.4971" y1="30.1277" x2="31.4971" y2="32.2008" gradientUnits="userSpaceOnUse">
<stop stop-color="#53E88B"/>
<stop offset="1" stop-color="#15BE77"/>
</linearGradient>
<linearGradient id="paint21_linear_212_1092" x1="19.6071" y1="37.835" x2="19.6071" y2="40.6637" gradientUnits="userSpaceOnUse">
<stop stop-color="#53E88B"/>
<stop offset="1" stop-color="#15BE77"/>
</linearGradient>
<linearGradient id="paint22_linear_212_1092" x1="24.167" y1="24.0547" x2="24.167" y2="26.609" gradientUnits="userSpaceOnUse">
<stop stop-color="#53E88B"/>
<stop offset="1" stop-color="#15BE77"/>
</linearGradient>
<linearGradient id="paint23_linear_212_1092" x1="25.9951" y1="28.8547" x2="25.9951" y2="32.3861" gradientUnits="userSpaceOnUse">
<stop stop-color="#53E88B"/>
<stop offset="1" stop-color="#15BE77"/>
</linearGradient>
<linearGradient id="paint24_linear_212_1092" x1="18.8928" y1="28.3442" x2="18.8928" y2="30.2047" gradientUnits="userSpaceOnUse">
<stop stop-color="#53E88B"/>
<stop offset="1" stop-color="#15BE77"/>
</linearGradient>
<linearGradient id="paint25_linear_212_1092" x1="18.5356" y1="28.4178" x2="18.5356" y2="29.8464" gradientUnits="userSpaceOnUse">
<stop stop-color="#53E88B"/>
<stop offset="1" stop-color="#15BE77"/>
</linearGradient>
<clipPath id="clip0_212_1092">
<rect width="32.7556" height="40.3836" fill="white" transform="translate(8.99994 5.00024)"/>
</clipPath>
</defs>
</svg>
