<svg width="251" height="329" viewBox="0 0 251 329" fill="none" xmlns="http://www.w3.org/2000/svg">
<g clip-path="url(#clip0_368_478)">
<g clip-path="url(#clip1_368_478)">
<path d="M118.111 318.604C113.237 318.613 108.376 318.098 103.613 317.069C95.2861 315.362 87.4428 311.833 80.6475 306.737C73.8523 301.641 68.2743 295.105 64.3154 287.598C61.1739 280.577 58.8402 273.223 57.359 265.678L57.0173 264.241C52.1357 243.489 45.9848 221.544 34.635 201.718C32.8044 198.528 30.8029 195.337 28.8746 192.268C24.2096 185.319 20.2599 177.918 17.0855 170.177C12.2038 156.903 13.1069 143.702 19.7704 135.007C20.6481 133.656 21.7902 132.495 23.1282 131.596C24.4661 130.696 25.9723 130.075 27.5566 129.77C28.522 129.653 29.501 129.736 30.4331 130.013C31.3652 130.289 32.2304 130.754 32.9752 131.377C33.5562 131.84 34.0327 132.419 34.3734 133.078C34.7142 133.737 34.9114 134.461 34.9523 135.201H33.3658C33.3276 134.685 33.182 134.182 32.9382 133.725C32.6945 133.268 32.3579 132.867 31.9501 132.547C31.3706 132.066 30.7005 131.707 29.9794 131.489C29.2584 131.272 28.5009 131.201 27.7519 131.28C25.002 131.905 22.5986 133.562 21.0396 135.908C14.7179 144.213 13.7171 156.805 18.5988 169.568C21.7463 177.254 25.672 184.599 30.3147 191.489C32.243 194.582 34.2444 197.773 36.0995 200.988C47.4737 220.96 53.6978 243.026 58.5794 263.9L58.9211 265.337C60.3713 272.758 62.6642 279.989 65.7554 286.892C69.6026 294.186 75.0248 300.537 81.6307 305.487C88.2366 310.436 95.8612 313.859 103.954 315.511C120.319 318.747 137.298 316.45 152.209 308.983C158.18 306.328 163.57 302.53 168.075 297.804C172.657 292.269 176.189 285.947 178.497 279.147C182.573 268.479 185.819 257.226 188.748 246.388C193.264 230.215 197.926 213.482 205.834 198.333C208.275 193.9 210.716 189.54 213.303 185.326C218.148 177.764 222.235 169.745 225.507 161.384C228.314 153.444 228.436 146.771 225.898 141.899C225.006 140.275 223.768 138.866 222.271 137.771C220.774 136.677 219.054 135.924 217.233 135.567C215.962 135.267 214.638 135.267 213.366 135.567C212.095 135.867 210.912 136.459 209.91 137.296L208.861 136.103C210.038 135.097 211.435 134.38 212.939 134.008C214.443 133.636 216.014 133.619 217.526 133.959C219.592 134.385 221.538 135.26 223.226 136.523C224.914 137.787 226.301 139.406 227.289 141.266C230.047 146.624 229.925 153.59 226.972 161.969C223.666 170.435 219.512 178.546 214.572 186.179C212.131 190.393 209.447 194.728 207.25 199.112C199.439 214.116 194.802 230.775 190.31 246.85C187.259 257.762 184.111 269.039 179.986 279.756C177.626 286.743 174.003 293.24 169.295 298.924C164.642 303.801 159.079 307.723 152.917 310.469C142.069 315.738 130.176 318.518 118.111 318.604V318.604Z" fill="#53E88B"/>
<path d="M136.026 34.9999C137.288 33.0009 138.012 30.7105 138.125 28.3506C138.263 27.2908 138.166 26.2137 137.842 25.1953C137.517 24.1769 136.972 23.2419 136.246 22.4564C135.636 21.8719 134.879 21.4091 134.318 20.7758C133.756 20.1426 133.488 19.4849 133.024 18.876C132.521 18.2228 131.875 17.694 131.134 17.3307C130.393 16.9674 129.578 16.7795 128.753 16.7814C127.069 16.7814 125.287 17.5608 123.871 16.7814C122.992 16.343 122.407 15.4662 121.43 14.979C120.511 14.5124 119.457 14.383 118.453 14.6137C117.575 14.9192 116.648 15.0596 115.719 15.0277C114.401 14.8329 113.498 13.6638 112.326 13.0062C111.724 12.6989 111.061 12.5268 110.386 12.502C109.71 12.4772 109.036 12.6002 108.413 12.8624C107.79 13.1247 107.232 13.5198 106.778 14.02C106.324 14.5203 105.985 15.1136 105.785 15.7584C105.626 16.3735 105.626 17.0188 105.785 17.6339C106.053 19.1196 107.078 20.3131 107.152 21.7988C107.225 23.2845 106.322 24.5754 107.152 25.8906C107.981 27.2059 109.202 27.2546 109.788 28.4968C110.569 30.1773 109.788 32.3694 110.495 34.1718C110.862 35.3165 111.057 36.9484 112.131 37.6791C113.62 38.702 116.866 37.8496 118.648 37.6791L125.555 37.1189C128.606 36.8266 132.365 37.1189 135.123 35.6088C135.456 35.4576 135.762 35.2518 136.026 34.9999V34.9999Z" fill="#151416"/>
<path d="M112.595 33.9281C112.353 33.596 112.035 33.3258 111.668 33.1395C111.301 32.9531 110.895 32.856 110.484 32.856C110.072 32.856 109.666 32.9531 109.299 33.1395C108.932 33.3258 108.615 33.596 108.372 33.9281C106.249 36.3638 109.837 41.235 112.595 41.5273C112.756 38.9968 112.756 36.4586 112.595 33.9281V33.9281Z" fill="#FFEDE5"/>
<path d="M146.888 74.7247C146.245 78.8274 145.381 82.8926 144.301 86.9028C144.13 87.6579 143.984 88.3886 143.886 89.0949C143.789 89.8012 143.691 90.3371 143.569 91.2383C143.569 91.4087 143.569 91.6036 143.569 91.7741C143.569 92.3586 143.398 92.9675 143.325 93.6252L140.249 122.244C121.138 127.48 101.196 122.244 101.196 122.244C101.196 122.244 101.196 121.878 101.196 121.172C100.879 117.933 99.9027 107.63 98.9264 96.0121C98.9264 96.0121 98.9264 95.8416 98.9264 95.7685C98.9362 95.59 98.9362 95.4112 98.9264 95.2327C98.5114 90.3614 98.1209 85.1979 97.8036 80.2779C97.2178 71.7289 96.8517 63.8375 96.9249 58.9419C96.9249 57.1395 101.148 57.3344 104.028 56.9447C106.151 56.6524 108.324 56.4575 110.203 56.3601C112.082 56.2627 113.498 56.214 114.45 56.214H115.524C115.524 56.214 115.768 53.413 115.768 53.3887L116.427 46.5202C116.747 46.6026 117.074 46.6596 117.403 46.6907C118.007 46.8037 118.62 46.8688 119.234 46.8855C120.039 46.8855 120.796 46.8855 121.504 46.8855L122.554 46.7638H123.164C123.847 46.642 124.506 46.4958 125.116 46.3254C125.727 46.1549 125.922 46.0818 126.312 45.96C128.096 45.3898 129.788 44.5698 131.34 43.5244L131.56 43.3782L131.975 43.0616L132.268 42.8424C132.268 43.1834 132.268 43.3295 132.268 43.4757C132.073 45.0832 131.853 47.1291 131.755 49.1507C131.755 50.5633 131.609 51.9516 131.56 53.1451C131.511 54.3386 131.121 56.0678 131.975 56.6768C132.28 56.8477 132.609 56.9709 132.951 57.0421C134.291 57.2532 135.647 57.3429 137.003 57.31C137.418 57.31 137.833 57.31 138.248 57.31C139.288 57.2495 140.332 57.2495 141.372 57.31C142.099 57.3079 142.82 57.4512 143.49 57.7315C144.161 58.0118 144.769 58.4234 145.278 58.9419C145.91 59.8557 146.312 60.9086 146.449 62.0108L146.742 64.008C147.207 67.5625 147.256 71.1589 146.888 74.7247V74.7247Z" fill="#FFEDE5"/>
<path d="M132.17 42.6718C131.84 44.4148 131.127 46.0632 130.082 47.4985C129.038 48.9337 127.687 50.1202 126.128 50.9726C124.569 51.8249 122.84 52.322 121.066 52.4281C119.291 52.5342 117.515 52.2467 115.865 51.5861L116.329 46.5444C119.093 47.0765 121.94 47.0059 124.674 46.3374C127.408 45.669 129.965 44.4185 132.17 42.6718V42.6718Z" fill="#E0855C" fill-opacity="0.1"/>
<path d="M113.083 26.6214C111.667 28.0828 111.545 31.3465 111.448 34.9512C111.081 45.9116 114.377 49.3214 119.966 49.9303C125.556 50.5392 131.438 48.3715 132.634 38.2393C133.244 33.1489 133.879 28.4968 132.024 26.2804C129.363 23.0167 117.379 22.1399 113.083 26.6214Z" fill="#FFEDE5"/>
<path d="M131.804 36.7535C131.804 36.7535 133.513 32.2233 136.222 34.6346C138.931 37.0458 135.197 43.8899 131.047 43.3784C131.096 43.3784 130.535 38.3123 131.804 36.7535Z" fill="#FFEDE5"/>
<path d="M135.026 36.7047C134.386 36.9045 133.812 37.275 133.366 37.7764C132.862 38.1966 132.455 38.7199 132.17 39.3109C132.17 39.4814 132.341 39.6031 132.463 39.4814C132.807 39.1415 133.133 38.7837 133.44 38.4097C133.662 38.6547 133.938 38.8462 134.245 38.9699C134.489 38.9699 134.685 38.7507 134.587 38.5558C134.418 38.2979 134.193 38.0814 133.928 37.9226C134.383 37.6314 134.816 37.3057 135.222 36.9483C135.229 36.919 135.23 36.8883 135.223 36.8587C135.217 36.8291 135.204 36.8014 135.185 36.7778C135.166 36.7541 135.142 36.7352 135.114 36.7226C135.087 36.7099 135.057 36.7038 135.026 36.7047Z" fill="#E0855C" fill-opacity="0.1"/>
<path d="M116.256 34.7074C116.256 34.7074 115.304 35.0484 115.45 33.3678C115.597 31.6873 116.256 32.077 116.256 32.077C116.256 32.077 116.915 32.077 116.817 33.3922C116.72 34.7074 116.256 34.7074 116.256 34.7074Z" fill="#3B2645"/>
<path d="M125.849 34.7074C125.849 34.7074 124.921 35.0484 125.068 33.3678C125.214 31.6873 125.849 32.077 125.849 32.077C125.849 32.077 126.508 32.077 126.41 33.3922C126.312 34.7074 125.849 34.7074 125.849 34.7074Z" fill="#3B2645"/>
<path d="M117.282 29.6172C116.898 29.4005 116.456 29.3097 116.018 29.3578C115.58 29.4059 115.168 29.5904 114.841 29.8851C114.824 29.9184 114.816 29.9554 114.818 29.9925C114.82 30.0296 114.831 30.0657 114.85 30.0974C114.87 30.1291 114.897 30.1553 114.93 30.1735C114.962 30.1918 114.999 30.2015 115.036 30.2017C115.378 30.2017 115.671 30.0069 116.012 29.9825C116.37 29.9655 116.728 30.0236 117.062 30.153C117.379 30.2504 117.599 29.7633 117.282 29.6172Z" fill="#3B2645"/>
<path d="M127.289 30.4452C126.898 29.471 125.214 29.3979 124.482 29.9824C124.446 30.0097 124.418 30.0448 124.398 30.0849C124.378 30.125 124.368 30.1691 124.368 30.2138C124.368 30.2585 124.378 30.3026 124.398 30.3427C124.418 30.3828 124.446 30.4179 124.482 30.4452C124.92 30.4817 125.361 30.4817 125.8 30.4452C126.155 30.5022 126.5 30.6088 126.825 30.7618C126.867 30.8232 126.932 30.8654 127.005 30.8791C127.078 30.8928 127.154 30.8769 127.216 30.8349C127.277 30.7929 127.319 30.7283 127.333 30.6552C127.347 30.5821 127.331 30.5066 127.289 30.4452V30.4452Z" fill="#3B2645"/>
<path d="M118.184 42.5501C120.243 42.8194 122.336 42.4629 124.189 41.5271C123.912 42.177 123.501 42.7619 122.984 43.2443C122.467 43.7267 121.855 44.0958 121.186 44.3281C119.063 44.9126 118.184 42.5501 118.184 42.5501Z" fill="white"/>
<path d="M105.858 58.9177C111.472 62.8391 111.985 70.4626 109.251 76.5516C107.396 80.6191 103.954 83.4688 101.929 87.3171C99.8174 91.0494 97.3663 94.5798 94.6061 97.8633C88.5528 105.536 82.7925 112.477 80.5713 115.108C72.9316 124.217 56.871 136.249 51.0862 140.438C49.7682 141.412 48.9871 141.948 48.9871 141.948C48.9871 141.948 43.4465 139.05 44.9109 133.691C44.9109 133.691 66.8783 110.407 70.1246 105.657C73.7121 99.484 76.9711 93.1264 79.8879 86.6108C83.6305 79.3851 87.5277 72.2568 91.5794 65.226C93.4345 61.9866 95.8021 57.9191 99.8782 57.1884C101.523 57.0039 103.184 57.3542 104.613 58.187C105.045 58.4006 105.461 58.6448 105.858 58.9177Z" fill="#FFEDE5"/>
<path d="M44.911 133.716C45.5122 133.67 46.116 133.67 46.7172 133.716C46.7172 133.716 51.9894 136.639 51.0863 140.438C51.0863 140.438 50.5249 140.95 49.6462 141.729C48.7675 142.508 47.8156 143.434 46.6684 144.603C45.5212 145.772 42.9095 149.474 41.7868 149.158C41.5251 149.061 41.2964 148.892 41.1277 148.671L38.8578 146.235C37.5886 144.822 35.465 142.435 37.076 140.56C35.9044 141.266 33.1707 142.996 31.8282 142.167L31.2668 141.266C31.2668 141.266 35.2942 138.27 36.9539 136.785C39.193 134.911 41.9915 133.832 44.911 133.716Z" fill="#FFEDE5"/>
<path d="M112.522 96.2317C112.513 96.3616 112.513 96.492 112.522 96.6219C112.522 96.6219 112.742 96.6219 112.693 96.6219L112.522 96.2317Z" fill="#D6BED3"/>
<path d="M200.147 327.737C197.56 328.005 194.948 328.225 192.287 328.346L42.0549 328.468H41.5912H40.8101L38.174 328.225C37.572 328.225 36.9946 327.986 36.5689 327.561C36.1432 327.136 35.904 326.56 35.904 325.959C35.904 325.359 36.1432 324.783 36.5689 324.358C36.9946 323.933 37.572 323.694 38.174 323.694L40.8345 323.451H41.5912H42.0793L192.287 323.572C194.923 323.572 197.535 323.889 200.147 324.181C200.52 324.306 200.845 324.545 201.075 324.864C201.305 325.183 201.428 325.566 201.428 325.959C201.428 326.352 201.305 326.735 201.075 327.054C200.845 327.374 200.52 327.612 200.147 327.737V327.737Z" fill="#C6C6C6"/>
<path d="M121.577 175.17C119.332 193.121 116.696 208.733 116.696 208.733C117.062 213.068 117.233 217.769 117.233 222.592C117.233 232.042 116.598 242.077 115.792 250.918C114.767 262.195 113.352 271.791 112.741 276.614V277.223C113.645 309.202 104.516 313.44 100.244 306.45C95.973 299.46 100.244 278.855 100.244 278.855C100.258 278.668 100.258 278.481 100.244 278.294C98.4474 268.725 97.2491 259.053 96.6565 249.335C95.192 225.807 97.706 209.707 97.4131 206.784C92.3118 155.636 99.439 127.432 99.439 127.432C100.552 123.334 102.561 119.532 105.321 116.301C110.52 110.699 116.769 112.112 120.699 118.956C121.112 119.658 121.487 120.381 121.821 121.124C123.423 125.055 124.331 129.232 124.506 133.472C124.897 144.067 123.408 160.41 121.577 175.17Z" fill="#F5A784"/>
<path d="M146.791 248.092C146.223 258.013 145.033 267.889 143.227 277.661L143.007 278.854C143.007 278.854 147.279 299.533 143.007 306.45C138.736 313.367 129.705 309.324 130.51 277.661C130.51 277.515 130.51 277.369 130.51 277.247C129.827 272.668 128.46 262.755 127.386 251.015C126.556 242.101 125.922 232.115 125.922 222.665C125.922 217.793 126.117 213.117 126.483 208.757C126.483 208.757 123.774 193.145 121.601 175.219C119.771 160.434 118.257 144.091 118.892 133.594C119.075 129.352 119.991 125.175 121.601 121.245C121.921 120.48 122.296 119.739 122.724 119.029C127.24 111.21 134.757 110.528 140.298 119.345C141.885 121.901 143.132 124.652 144.008 127.529C144.008 127.529 151.135 155.661 146.034 206.882C145.668 209.756 148.084 225.295 146.791 248.092Z" fill="#F5A784"/>
<path d="M44.3253 149.523C44.8116 150.084 45.4156 150.533 46.0947 150.836C46.7738 151.139 47.5113 151.289 48.255 151.276C48.5957 151.197 48.9168 151.05 49.1989 150.843C49.4809 150.637 49.7181 150.376 49.8961 150.075C50.074 149.775 50.1891 149.441 50.2343 149.095C50.2794 148.749 50.2538 148.397 50.1589 148.061C49.875 147.32 49.4142 146.66 48.8164 146.137C45.1308 142.484 41.3475 138.83 37.5154 135.445C36.875 134.724 36.0192 134.229 35.0746 134.032C34.1961 134.032 33.346 134.342 32.6756 134.909C32.0051 135.475 31.5579 136.261 31.4134 137.125C31.4134 138.684 32.7558 139.269 33.8542 140.146C37.3202 143.214 40.7861 146.429 44.3253 149.523Z" fill="#158053"/>
<path d="M43.7878 145.212C43.9397 145.056 44.0635 144.874 44.1539 144.676C44.2158 144.425 44.2193 144.162 44.1644 143.909C44.1094 143.656 43.9973 143.418 43.8366 143.215C42.9335 141.729 41.0785 139.342 39.2479 139.123C38.6435 139.092 38.0416 139.22 37.502 139.494C36.9624 139.767 36.5041 140.177 36.1724 140.682C35.6247 141.468 35.2763 142.375 35.1573 143.326C35.0382 144.276 35.1521 145.241 35.489 146.138C36.0247 147.751 37.1253 149.117 38.5888 149.986C39.3192 150.295 40.1408 150.31 40.8822 150.029C41.6236 149.747 42.2273 149.191 42.5674 148.476C42.9335 147.575 42.8115 146.479 43.3973 145.724C43.5083 145.539 43.6393 145.368 43.7878 145.212V145.212Z" fill="#FFEDE5"/>
<path d="M137.198 58.9175C131.56 62.8389 131.048 70.4624 133.806 76.5514C135.636 80.6189 139.078 83.4686 141.128 87.3169C143.256 91.0384 145.707 94.5673 148.451 97.8631C154.504 105.535 160.289 112.477 162.485 115.107C170.149 124.265 186.21 136.249 191.995 140.438L194.118 141.948C194.118 141.948 199.635 139.05 198.17 133.691C198.17 133.691 176.203 110.407 172.956 105.657C169.359 99.4892 166.1 93.131 163.193 86.6106C159.434 79.3037 155.553 72.2647 151.477 65.2258C149.622 61.9864 147.279 57.9189 143.178 57.1882C141.534 57.0055 139.873 57.3556 138.443 58.1868C138.011 58.3994 137.595 58.6436 137.198 58.9175Z" fill="#FFEDE5"/>
<path d="M198.146 133.716C197.536 133.67 196.924 133.67 196.315 133.716C196.315 133.716 191.043 136.638 191.946 140.438C191.946 140.438 192.532 140.949 193.386 141.729C194.24 142.508 195.241 143.434 196.364 144.603C197.487 145.772 200.147 149.474 201.245 149.157C201.504 149.055 201.731 148.887 201.904 148.67L204.15 146.235C205.444 144.822 207.543 142.435 205.956 140.56C207.103 141.266 209.837 142.995 211.204 142.167L211.668 141.266C211.668 141.266 207.64 138.27 205.956 136.784C203.76 134.935 201.016 133.856 198.146 133.716V133.716Z" fill="#FFEDE5"/>
<path d="M198.707 149.523C198.221 150.084 197.617 150.533 196.937 150.836C196.258 151.139 195.521 151.289 194.777 151.276C194.432 151.203 194.106 151.06 193.818 150.856C193.531 150.651 193.288 150.391 193.105 150.09C192.922 149.789 192.803 149.453 192.755 149.104C192.706 148.756 192.73 148.401 192.824 148.061C193.129 147.353 193.597 146.727 194.191 146.235C197.885 142.581 201.66 139.017 205.517 135.542C206.154 134.818 207.011 134.322 207.958 134.13C208.833 134.13 209.68 134.442 210.346 135.008C211.013 135.575 211.455 136.36 211.594 137.223C211.594 138.782 210.276 139.366 209.154 140.243C205.712 143.215 202.246 146.43 198.707 149.523Z" fill="#157F53"/>
<path d="M199.268 145.212C199.102 145.063 198.969 144.88 198.878 144.676C198.826 144.422 198.83 144.161 198.889 143.908C198.948 143.656 199.061 143.42 199.22 143.215C200.098 141.729 201.953 139.342 203.784 139.123C204.388 139.092 204.99 139.22 205.53 139.494C206.069 139.767 206.528 140.177 206.859 140.682C207.401 141.472 207.74 142.382 207.846 143.334C207.953 144.285 207.823 145.248 207.47 146.138C206.95 147.759 205.845 149.131 204.37 149.986C203.639 150.295 202.818 150.31 202.076 150.029C201.335 149.747 200.731 149.191 200.391 148.476C200.05 147.575 200.172 146.479 199.561 145.724L199.268 145.212Z" fill="#FFEDE5"/>
<path d="M147.157 232.48V234.916C147.157 236.548 147.157 238.229 147.157 239.958V241.931C147.157 243.928 147.01 245.998 146.913 248.117C140.593 249.857 134.086 250.83 127.532 251.016C127.264 248.288 126.727 241.03 126.703 240.226C126.703 238.57 126.336 233.893 126.312 233.26C126.166 229.704 126.068 226.148 126.068 222.665C126.068 218.135 126.239 213.702 126.58 209.586C126.58 209.293 126.58 209.025 126.58 208.757C126.58 208.49 123.871 193.169 121.699 175.219C121.455 177.119 121.211 179.018 120.967 180.845C118.916 196.287 116.744 208.757 116.744 208.757C117.11 213.093 117.281 217.794 117.281 222.616C117.281 226.294 117.281 229.923 117.012 233.771C117.012 234.405 116.524 242.54 116.451 243.319C116.28 245.925 116.061 248.483 115.841 250.943C112.424 250.796 109.055 250.577 105.711 250.285C103.075 250.066 99.7559 249.92 96.534 249.457C96.3875 247.265 96.2899 245.17 96.2167 243.124C96.2167 242.613 96.2167 242.101 96.2167 241.59C96.2167 239.349 96.2167 237.23 96.2167 235.184V233.576C96.2167 218.817 97.6568 209.098 97.4371 206.785C92.3358 155.636 99.463 127.432 99.463 127.432C100.576 123.334 102.585 119.532 105.345 116.301C107.438 116.624 109.491 117.163 111.472 117.909C114.49 118.695 117.605 119.048 120.723 118.956H122.968C125.677 118.956 128.387 118.639 131.072 118.566H132.878C135.452 118.528 138.022 118.773 140.542 119.297C142.048 121.88 143.213 124.648 144.008 127.529C145.98 136.723 147.139 146.071 147.474 155.466C148.301 172.616 147.819 189.805 146.034 206.882C145.741 209.05 147.035 218.329 147.157 232.48Z" fill="#2B2728"/>
<path d="M112.595 277.222C112.937 289.815 111.741 298.096 109.886 303.089C107.054 310.81 102.563 310.712 100.122 306.547C99.463 305.392 99.0089 304.131 98.7798 302.821C96.998 294.126 100.122 278.952 100.122 278.952C100.136 278.765 100.136 278.578 100.122 278.392C101.337 279.276 102.713 279.913 104.174 280.267C105.813 280.669 107.538 280.53 109.091 279.871C110.645 279.213 111.942 278.07 112.79 276.614L112.595 277.222Z" fill="#AB8DA8"/>
<path d="M144.472 302.139C144.264 303.687 143.767 305.182 143.008 306.548C140.372 310.834 135.832 310.81 133.025 302.505C131.316 297.633 130.218 289.523 130.584 277.637C132.412 279.276 134.766 280.209 137.223 280.267C139.414 280.066 141.496 279.218 143.203 277.832C143.248 278.212 143.248 278.596 143.203 278.977C143.203 278.977 145.985 293.347 144.472 302.139Z" fill="#AB8DA8"/>
<path d="M108.909 284.7C107.673 283.964 106.26 283.576 104.821 283.576C103.381 283.576 101.969 283.964 100.732 284.7C100.687 284.75 100.656 284.813 100.644 284.88C100.632 284.947 100.639 285.017 100.664 285.08C100.69 285.143 100.732 285.198 100.788 285.239C100.843 285.279 100.908 285.303 100.976 285.309C102.197 285.309 103.417 284.797 104.564 284.822C105.907 284.935 107.233 285.197 108.519 285.601C108.629 285.615 108.74 285.592 108.836 285.537C108.932 285.482 109.008 285.398 109.052 285.296C109.096 285.195 109.106 285.082 109.08 284.974C109.054 284.867 108.994 284.77 108.909 284.7V284.7Z" fill="#291B30"/>
<path d="M108.518 288.597C106.434 287.385 103.988 286.945 101.611 287.355C100.805 287.355 100.781 288.694 101.611 288.621C102.759 288.511 103.918 288.56 105.052 288.767C106.102 288.962 107.054 289.401 108.103 289.62C108.233 289.647 108.367 289.629 108.484 289.567C108.601 289.505 108.692 289.404 108.742 289.282C108.791 289.16 108.796 289.024 108.755 288.899C108.714 288.774 108.63 288.667 108.518 288.597V288.597Z" fill="#291B30"/>
<path d="M140.835 284.7C138.98 284.067 134.953 283.823 133.513 285.528C133.318 285.747 133.513 286.21 133.781 286.186C134.929 286.039 135.929 285.577 137.125 285.528C138.321 285.479 139.566 285.796 140.689 285.723C140.756 285.732 140.825 285.729 140.891 285.712C140.957 285.695 141.018 285.665 141.073 285.625C141.127 285.584 141.173 285.533 141.208 285.475C141.242 285.416 141.265 285.352 141.275 285.284C141.284 285.217 141.281 285.149 141.264 285.083C141.247 285.017 141.217 284.956 141.176 284.901C141.136 284.847 141.085 284.801 141.026 284.767C140.967 284.732 140.903 284.709 140.835 284.7V284.7Z" fill="#291B30"/>
<path d="M141.738 288.816C139.712 287.915 134.66 287.257 133.635 289.985C133.488 290.351 133.952 290.643 134.245 290.472C135.299 289.886 136.475 289.548 137.68 289.484C138.886 289.421 140.091 289.634 141.201 290.107C141.933 290.399 142.495 289.133 141.738 288.816Z" fill="#291B30"/>
<path d="M49.3289 56.019C49.3289 55.8729 49.036 55.8729 49.0116 56.019C47.7912 64.3245 48.499 73.0684 48.499 81.5687C48.499 90.5562 48.2061 99.6167 48.7431 108.58C48.7662 108.676 48.8209 108.761 48.8983 108.822C48.9758 108.882 49.0716 108.916 49.1702 108.916C49.2689 108.916 49.3646 108.882 49.4421 108.822C49.5196 108.761 49.5743 108.676 49.5974 108.58C50.1099 99.6167 49.817 90.5562 49.817 81.5687C49.817 73.2633 50.5249 64.3976 49.3289 56.019Z" fill="#F7F8F8"/>
<path d="M59.9952 58.8446C59.9692 58.725 59.9029 58.6179 59.8074 58.541C59.712 58.4642 59.593 58.4223 59.4704 58.4223C59.3477 58.4223 59.2288 58.4642 59.1333 58.541C59.0378 58.6179 58.9716 58.725 58.9456 58.8446C58.9456 66.8334 58.433 74.9684 58.9456 82.9329C58.9456 83.0686 58.9996 83.1987 59.0957 83.2946C59.1919 83.3905 59.3222 83.4444 59.4582 83.4444C59.5941 83.4444 59.7245 83.3905 59.8206 83.2946C59.9167 83.1987 59.9708 83.0686 59.9708 82.9329C60.5321 74.9684 60.044 66.8334 59.9952 58.8446Z" fill="#F7F8F8"/>
<path d="M169.125 142.484C169.105 142.412 169.062 142.348 169.002 142.303C168.943 142.258 168.87 142.233 168.795 142.233C168.72 142.233 168.647 142.258 168.588 142.303C168.528 142.348 168.485 142.412 168.466 142.484C167.778 152.943 167.639 163.43 168.051 173.903C168.051 184.377 168.051 194.825 168.441 205.299C168.462 205.377 168.508 205.445 168.572 205.495C168.636 205.544 168.714 205.57 168.795 205.57C168.876 205.57 168.954 205.544 169.018 205.495C169.082 205.445 169.128 205.377 169.149 205.299C169.491 194.825 169.491 184.377 169.539 173.903C169.938 163.43 169.8 152.943 169.125 142.484Z" fill="#F7F8F8"/>
<path d="M187.943 81.2281C187.867 74.2588 187.411 67.2989 186.576 60.3791C186.576 59.9651 185.917 60.0868 185.893 60.3791C185.704 67.8629 185.924 75.3513 186.552 82.8112C186.869 89.7527 186.796 96.8648 187.723 103.733C187.723 104.366 188.797 104.172 188.822 103.587C189.163 96.1584 188.382 88.5836 187.943 81.2281Z" fill="#F7F8F8"/>
<path d="M192.825 85.1009C192.808 85.0464 192.774 84.9987 192.728 84.9649C192.681 84.9311 192.626 84.9128 192.569 84.9128C192.511 84.9128 192.456 84.9311 192.409 84.9649C192.363 84.9987 192.329 85.0464 192.312 85.1009C191.666 95.1077 191.617 105.144 192.166 115.157C192.151 115.218 192.15 115.281 192.163 115.343C192.176 115.404 192.203 115.462 192.242 115.511C192.281 115.561 192.33 115.601 192.387 115.628C192.443 115.656 192.506 115.67 192.569 115.67C192.632 115.67 192.694 115.656 192.75 115.628C192.807 115.601 192.857 115.561 192.895 115.511C192.934 115.462 192.961 115.404 192.974 115.343C192.987 115.281 192.986 115.218 192.971 115.157C193.52 105.144 193.472 95.1077 192.825 85.1009V85.1009Z" fill="#F7F8F8"/>
<path d="M120.845 180.821C120.882 178.924 121.128 177.037 121.577 175.194C121.333 177.094 121.089 178.994 120.845 180.821Z" fill="#291B30"/>
<path d="M147.401 155.466C144.106 135.713 116.891 134.787 116.891 134.787C115.207 126.652 126.19 124.217 126.19 124.217L132.61 118.688C135.184 118.649 137.754 118.895 140.274 119.418C141.864 121.95 143.119 124.676 144.008 127.529C145.94 136.727 147.075 146.074 147.401 155.466V155.466Z" fill="#1D1617"/>
<path d="M144.399 129.648C122.432 139.951 98.5604 130.501 98.5604 130.501C100.293 125.629 98.9997 100.786 98.8777 96.0609C98.8777 96.0609 98.8777 95.8904 98.8777 95.8173C98.8875 95.6388 98.8875 95.46 98.8777 95.2815C103.491 84.6134 104.003 64.0568 104.028 56.9935C106.103 56.6768 108.275 56.5063 110.154 56.4089C110.887 64.3003 113.498 84.5404 120.772 83.6635C128.045 82.7867 131.511 64.7631 132.781 56.8717C134.119 57.0957 135.476 57.1854 136.832 57.1396C137.247 57.1396 137.662 57.1396 138.077 57.1396C137.443 67.9294 143.447 90.6051 143.618 91.2383C143.618 91.4088 143.618 91.6037 143.618 91.7742C143.618 92.3587 143.447 92.9676 143.374 93.6253C143.374 93.6253 143.374 93.8932 143.374 94.0393C141.836 107.776 144.399 129.648 144.399 129.648Z" fill="#15BE77"/>
</g>
</g>
<defs>
<clipPath id="clip0_368_478">
<rect width="250.111" height="328.468" fill="white"/>
</clipPath>
<clipPath id="clip1_368_478">
<rect width="250.111" height="328.468" fill="white"/>
</clipPath>
</defs>
</svg>
