<svg width="26" height="25" viewBox="0 0 26 25" fill="none" xmlns="http://www.w3.org/2000/svg">
<g clip-path="url(#clip0_45_804)">
<path d="M13.4783 25C20.3819 25 25.9783 19.4036 25.9783 12.5C25.9783 5.59648 20.3819 3.8147e-05 13.4783 3.8147e-05C6.57477 3.8147e-05 0.978333 5.59648 0.978333 12.5C0.978333 19.4036 6.57477 25 13.4783 25Z" fill="#3C5A9A"/>
<path d="M17.5427 3.8369H14.7736C13.1304 3.8369 11.3026 4.52803 11.3026 6.90999C11.3107 7.73995 11.3026 8.53482 11.3026 9.42939H9.40161V12.4545H11.3615V21.1632H14.9628V12.397H17.3398L17.5548 9.4209H14.9007C14.9007 9.4209 14.9067 8.097 14.9007 7.71253C14.9007 6.77124 15.8802 6.82514 15.9391 6.82514C16.4052 6.82514 17.3114 6.8265 17.5441 6.82514V3.8369H17.5427Z" fill="white"/>
</g>
<defs>
<clipPath id="clip0_45_804">
<rect width="25" height="25" fill="white" transform="translate(0.978271)"/>
</clipPath>
</defs>
</svg>
