<svg width="26" height="25" viewBox="0 0 26 25" fill="none" xmlns="http://www.w3.org/2000/svg">
<g clip-path="url(#clip0_45_797)">
<path d="M25.3702 12.7339C25.3702 11.7096 25.2872 10.9622 25.1075 10.1871H13.4238V14.81H20.2818C20.1436 15.9589 19.397 17.689 17.7377 18.8516L17.7145 19.0064L21.4086 21.8712L21.6646 21.8967C24.0151 19.7237 25.3702 16.5263 25.3702 12.7339Z" fill="#4285F4"/>
<path d="M13.4237 24.9141C16.7836 24.9141 19.6043 23.8068 21.6646 21.8968L17.7377 18.8516C16.6869 19.5852 15.2765 20.0973 13.4237 20.0973C10.133 20.0973 7.33995 17.9243 6.34432 14.9208L6.19838 14.9332L2.35712 17.9091L2.30688 18.0489C4.35324 22.1181 8.55663 24.9141 13.4237 24.9141Z" fill="#34A853"/>
<path d="M6.34445 14.9208C6.08175 14.1457 5.92971 13.3152 5.92971 12.457C5.92971 11.5988 6.08175 10.7684 6.33063 9.99331L6.32367 9.82823L2.43428 6.80457L2.30702 6.86516C1.46362 8.5538 0.979675 10.4501 0.979675 12.457C0.979675 14.464 1.46362 16.3602 2.30702 18.0488L6.34445 14.9208Z" fill="#FBBC05"/>
<path d="M13.4237 4.81672C15.7604 4.81672 17.3367 5.82712 18.2355 6.67149L21.7475 3.23886C19.5905 1.23189 16.7836 2.28882e-05 13.4237 2.28882e-05C8.55662 2.28882e-05 4.35324 2.79592 2.30688 6.86519L6.33049 9.99334C7.33994 6.98981 10.133 4.81672 13.4237 4.81672Z" fill="#EB4335"/>
</g>
<defs>
<clipPath id="clip0_45_797">
<rect width="24.4048" height="25" fill="white" transform="translate(0.978271)"/>
</clipPath>
</defs>
</svg>
