<svg width="25" height="24" viewBox="0 0 25 24" fill="none" xmlns="http://www.w3.org/2000/svg">
<g opacity="0.5">
<path fill-rule="evenodd" clip-rule="evenodd" d="M8.74707 8.71384H17.2095C19.5669 8.71384 21.4783 10.583 21.4783 12.8885V17.8253C21.4783 20.1308 19.5669 22 17.2095 22H8.74707C6.38963 22 4.47827 20.1308 4.47827 17.8253V12.8885C4.47827 10.583 6.38963 8.71384 8.74707 8.71384ZM12.9732 17.3295C13.4711 17.3295 13.8674 16.9419 13.8674 16.455V14.2489C13.8674 13.7719 13.4711 13.3844 12.9732 13.3844C12.4854 13.3844 12.0891 13.7719 12.0891 14.2489V16.455C12.0891 16.9419 12.4854 17.3295 12.9732 17.3295Z" fill="url(#paint0_linear_45_749)"/>
<path opacity="0.4" d="M18.5011 7.39595V8.86667C18.1455 8.7673 17.7695 8.71761 17.3834 8.71761H16.7229V7.39595C16.7229 5.37868 15.0462 3.73903 12.9835 3.73903C10.9207 3.73903 9.24409 5.36874 9.23393 7.37608V8.71761H8.5836C8.18731 8.71761 7.81134 8.7673 7.45569 8.87661V7.39595C7.46585 4.41476 9.93507 2 12.9632 2C16.0319 2 18.5011 4.41476 18.5011 7.39595Z" fill="url(#paint1_linear_45_749)"/>
</g>
<defs>
<linearGradient id="paint0_linear_45_749" x1="12.9783" y1="8.71384" x2="12.9783" y2="22" gradientUnits="userSpaceOnUse">
<stop stop-color="#53E88B"/>
<stop offset="1" stop-color="#15BE77"/>
</linearGradient>
<linearGradient id="paint1_linear_45_749" x1="12.9784" y1="2" x2="12.9784" y2="8.87661" gradientUnits="userSpaceOnUse">
<stop stop-color="#53E88B"/>
<stop offset="1" stop-color="#15BE77"/>
</linearGradient>
</defs>
</svg>
