<svg width="25" height="24" viewBox="0 0 25 24" fill="none" xmlns="http://www.w3.org/2000/svg">
<g opacity="0.5">
<path opacity="0.4" d="M22.9781 15.9402C22.9781 18.7302 20.7381 20.9902 17.9481 21.0002H17.9381H8.02815C5.24815 21.0002 2.97815 18.7502 2.97815 15.9602V15.9502C2.97815 15.9502 2.98415 11.5242 2.99215 9.2982C2.99315 8.8802 3.47315 8.6462 3.80015 8.9062C6.17615 10.7912 10.4251 14.2282 10.4781 14.2732C11.1881 14.8422 12.0881 15.1632 13.0081 15.1632C13.9281 15.1632 14.8281 14.8422 15.5381 14.2622C15.5912 14.2272 19.7451 10.8932 22.1572 8.9772C22.4851 8.7162 22.9671 8.9502 22.9681 9.3672C22.9781 11.5762 22.9781 15.9402 22.9781 15.9402Z" fill="url(#paint0_linear_45_745)"/>
<path d="M22.4543 5.6736C21.5883 4.0416 19.8843 2.9996 18.0083 2.9996H8.02828C6.15228 2.9996 4.44828 4.0416 3.58228 5.6736C3.38828 6.0386 3.48028 6.4936 3.80328 6.7516L11.2283 12.6906C11.7483 13.1106 12.3783 13.3196 13.0083 13.3196C13.0123 13.3196 13.0153 13.3196 13.0183 13.3196C13.0213 13.3196 13.0253 13.3196 13.0283 13.3196C13.6583 13.3196 14.2883 13.1106 14.8083 12.6906L22.2333 6.7516C22.5563 6.4936 22.6483 6.0386 22.4543 5.6736Z" fill="url(#paint1_linear_45_745)"/>
</g>
<defs>
<linearGradient id="paint0_linear_45_745" x1="12.9781" y1="8.79707" x2="12.9781" y2="21.0002" gradientUnits="userSpaceOnUse">
<stop stop-color="#53E88B"/>
<stop offset="1" stop-color="#15BE77"/>
</linearGradient>
<linearGradient id="paint1_linear_45_745" x1="13.0183" y1="2.9996" x2="13.0183" y2="13.3196" gradientUnits="userSpaceOnUse">
<stop stop-color="#53E88B"/>
<stop offset="1" stop-color="#15BE77"/>
</linearGradient>
</defs>
</svg>
