<svg width="25" height="24" viewBox="0 0 25 24" fill="none" xmlns="http://www.w3.org/2000/svg">
<path opacity="0.4" fill-rule="evenodd" clip-rule="evenodd" d="M18.7149 6.04606C20.4222 7.36388 21.8758 9.29455 22.9197 11.7091C22.9978 11.8924 22.9978 12.1067 22.9197 12.2812C20.8319 17.1103 17.1149 20 12.9783 20H12.9685C8.84169 20 5.12461 17.1103 3.03681 12.2812C2.95876 12.1067 2.95876 11.8924 3.03681 11.7091C5.12461 6.87903 8.84169 4 12.9685 4H12.9783C15.0466 4 17.0075 4.71758 18.7149 6.04606ZM9.07583 12C9.07583 14.1333 10.8222 15.8691 12.9783 15.8691C15.1246 15.8691 16.871 14.1333 16.871 12C16.871 9.85697 15.1246 8.12121 12.9783 8.12121C10.8222 8.12121 9.07583 9.85697 9.07583 12Z" fill="#09051C"/>
<path d="M15.4092 11.9969C15.4092 13.3254 14.3165 14.4114 12.9799 14.4114C11.6336 14.4114 10.5409 13.3254 10.5409 11.9969C10.5409 11.832 10.5604 11.6779 10.5897 11.5227H10.6385C11.7214 11.5227 12.5994 10.6694 12.6385 9.60175C12.7458 9.58332 12.8628 9.57265 12.9799 9.57265C14.3165 9.57265 15.4092 10.6587 15.4092 11.9969Z" fill="#09051C"/>
</svg>
